<svg width="679" height="646" viewBox="0 0 679 646" fill="none" xmlns="http://www.w3.org/2000/svg">
<path d="M607.024 448.064L613.145 444.59C614.837 447.287 616.896 449.707 618.896 451.531C620.564 453.053 623.126 453.016 624.752 451.448L624.948 451.259C626.74 449.531 626.698 446.634 624.836 444.983C622.94 443.299 621.099 441.195 619.669 438.671C617.587 434.996 617.579 431.676 620.156 430.214C622.604 428.823 625.32 430.01 629.635 433.868C635.864 439.451 641.753 442.33 648.003 438.783C653.673 435.565 655.854 429.044 653.297 421.376L659.418 417.902L655.837 411.582L650.167 414.8C648.734 412.515 647.328 410.766 645.985 409.398C644.344 407.726 641.658 407.704 639.971 409.331C638.228 411.012 638.22 413.808 639.962 415.492C641.267 416.754 642.684 418.426 643.974 420.702C646.349 424.893 645.312 427.271 643.508 428.295C641.382 429.502 638.75 428.013 633.582 423.702C626.528 417.564 621.23 416.48 615.432 419.771C609.697 423.026 607.102 429.868 610.016 438.015L603.443 441.745L607.024 448.064Z" fill="#FFCE88"/>
<path d="M312.596 546.402C297.161 525.611 284.765 525.43 284.765 525.43C284.765 525.43 279.138 488.903 283.627 473.364C288.116 457.824 308.413 471.452 308.413 471.452C308.413 471.452 281.502 418.656 292.54 412.725C313.1 401.679 345.485 457.68 345.485 457.68C345.485 457.68 337.9 433.03 352.439 433.122C374.366 433.26 376.262 489.778 376.262 489.778C376.262 489.778 380.585 478.643 394.113 485.022C408.684 491.893 412.631 533.272 413.459 565.248H336.649C325.66 558.513 316.684 551.908 312.596 546.402Z" fill="#2993F2"/>
<path d="M342.798 453.179C342.798 453.179 341.896 425.09 356.435 425.181C378.361 425.319 376.261 489.778 376.261 489.778C376.261 489.778 385.42 471.54 398.948 477.92C413.795 484.921 415.558 530.656 414.977 565.249H389.461L292.54 412.726C313.099 401.679 342.798 453.179 342.798 453.179Z" fill="#0E538B"/>
<path d="M223.406 563.423C223.406 563.423 153.411 571.489 136.456 565.545C119.501 559.601 130.729 550.098 130.729 550.098C130.729 550.098 94.8717 545.514 91.4121 534.833C87.9533 524.152 104.919 524.084 104.919 524.084C104.919 524.084 68.9272 504.208 72.9671 496.501C80.4939 482.146 120.88 501.732 120.88 501.732C120.88 501.732 106.938 490.514 115.332 484.906C127.991 476.449 151.049 508.203 151.049 508.203C151.049 508.203 149.207 500.118 159.464 498.519C177.867 495.649 223.406 563.423 223.406 563.423Z" fill="#2993F2"/>
<path d="M159.484 492.552C149.227 494.152 151.05 508.204 151.05 508.204C151.05 508.204 127.203 470.328 114.544 478.785C106.149 484.394 117.586 500.191 117.586 500.191C117.586 500.191 80.4944 482.146 72.9688 496.502L216.706 558.932C211.428 550.992 176.673 489.872 159.484 492.552Z" fill="#0E538B"/>
<path d="M223.841 564.443C223.841 564.443 160.147 520.088 150.984 500.589C141.821 481.09 159.369 482.715 159.369 482.715C159.369 482.715 133.168 448.184 139.386 436.253C145.604 424.322 159.913 438.782 159.913 438.782C159.913 438.782 146.66 391.292 156.637 388.276C175.221 382.658 193.401 442.796 193.401 442.796C193.401 442.796 200.342 409.525 212.183 411.997C230.04 415.725 212.222 464.914 212.222 464.914C212.222 464.914 217.491 448.891 227.471 456.324C245.379 469.66 223.841 564.443 223.841 564.443Z" fill="#2993F2"/>
<path d="M244.894 457.092C233.648 451.768 231.388 440.565 231.388 440.565C231.388 440.565 231.313 412.752 213.455 409.023C201.614 406.551 193.325 428.896 193.325 428.896C193.325 428.896 175.22 382.658 156.636 388.276L224.032 563.699C226.383 552.514 258.289 463.434 244.894 457.092Z" fill="#0E538B"/>
<path d="M243.479 564.58H371.918C376.013 564.58 379.334 561.257 379.334 557.158C379.334 553.058 376.013 549.735 371.918 549.735H243.479C239.383 549.735 236.062 553.058 236.062 557.158C236.062 561.257 239.383 564.58 243.479 564.58Z" fill="#D3D3D3"/>
<path d="M221.015 550.176H349.454C353.55 550.176 356.87 546.853 356.87 542.753C356.87 538.654 353.55 535.331 349.454 535.331H221.015C216.919 535.331 213.598 538.654 213.598 542.753C213.598 546.853 216.919 550.176 221.015 550.176Z" fill="#AAAAAA"/>
<path d="M238.985 536.53H367.423C371.519 536.53 374.84 533.206 374.84 529.107C374.84 525.008 371.519 521.685 367.423 521.685H238.985C234.889 521.685 231.568 525.008 231.568 529.107C231.568 533.206 234.89 536.53 238.985 536.53Z" fill="#D3D3D3"/>
<path d="M253.961 521.747H382.4C386.496 521.747 389.816 518.424 389.816 514.325C389.816 510.225 386.496 506.902 382.4 506.902H253.961C249.865 506.902 246.545 510.225 246.545 514.325C246.545 518.424 249.865 521.747 253.961 521.747Z" fill="#AAAAAA"/>
<path d="M162.982 504.624C162.982 540.121 191.733 568.896 227.2 568.896C262.666 568.896 291.417 540.121 291.417 504.624C291.417 469.128 262.666 440.353 227.2 440.353C191.733 440.353 162.982 469.128 162.982 504.624Z" fill="#FFCE88"/>
<path d="M173.312 504.625C173.312 534.411 197.438 558.557 227.199 558.557C256.96 558.557 281.086 534.411 281.086 504.625C281.086 474.838 256.96 450.692 227.199 450.692C197.438 450.692 173.312 474.839 173.312 504.625Z" fill="#2993F2"/>
<path d="M210.195 539.254L213.262 530.789C209.502 529.231 206.015 527.151 203.291 525.019C201.018 523.24 200.516 519.999 202.143 517.613L202.339 517.325C204.132 514.696 207.79 514.129 210.268 516.124C212.793 518.157 215.837 520.029 219.321 521.293C224.395 523.135 228.578 522.434 229.869 518.87C231.096 515.485 229.021 512.312 223.24 507.694C214.877 501.03 209.992 494.217 213.123 485.574C215.964 477.733 223.71 473.588 233.914 475.173L236.98 466.709L245.704 469.875L242.864 477.716C246.049 479.035 248.552 480.435 250.562 481.836C253.019 483.549 253.621 486.934 251.932 489.409C250.187 491.968 246.668 492.575 244.175 490.739C242.306 489.362 239.898 487.931 236.756 486.791C230.969 484.691 228.197 486.507 227.293 489.002C226.228 491.942 228.666 494.944 235.2 500.541C244.438 508.128 246.936 514.579 244.031 522.598C241.157 530.528 233.096 535.264 222.213 533.331L218.92 542.419L210.195 539.254Z" fill="white"/>
<path d="M458.797 561.969C458.797 561.969 558.589 512.722 575.751 487.038C592.913 461.352 567.685 459.897 567.685 459.897C567.685 459.897 612.218 416.55 605.953 398.301C599.687 380.053 576.307 397.49 576.307 397.49C576.307 397.49 605.253 332.993 591.751 326.58C566.603 314.635 531.324 383.275 531.324 383.275C531.324 383.275 538.906 353.457 521.588 354.425C495.472 355.887 496.551 423.339 496.551 423.339C496.551 423.339 493.602 397.476 477.861 405.877C449.618 420.95 458.797 561.969 458.797 561.969Z" fill="#0E538B"/>
<path d="M472.177 395.444C484.469 388.617 496.711 408.57 496.711 408.57C496.711 408.57 495.471 355.888 521.587 354.426C538.905 353.457 531.323 383.276 531.323 383.276C531.323 383.276 566.602 314.635 591.75 326.581L458.681 560.873C457.741 544.512 447.827 408.968 472.177 395.444Z" fill="#2993F2"/>
<path d="M461.375 562.579C461.375 562.579 542.992 572.724 564.125 563.683C585.257 554.642 570.112 543.475 570.112 543.475C570.112 543.475 615.488 534.549 618.989 520.618C622.49 506.688 600.828 508.056 600.828 508.056C600.828 508.056 645.068 479.599 639.25 470.108C628.414 452.429 578.541 480.896 578.541 480.896C578.541 480.896 595.377 465.38 584.182 458.942C567.299 449.232 540.587 491.743 540.587 491.743C540.587 491.743 542.246 481.265 529.017 480.103C505.282 478.019 461.375 562.579 461.375 562.579Z" fill="#0E538B"/>
<path d="M528.481 472.49C541.71 473.651 540.587 491.743 540.587 491.743C540.587 491.743 567.782 441.352 584.665 451.061C595.86 457.5 582.614 478.645 582.614 478.645C582.614 478.645 628.414 452.43 639.25 470.108L461.127 562.127C467.183 551.539 506.31 470.542 528.481 472.49Z" fill="#2993F2"/>
<path d="M631.182 566.775C631.182 568.044 630.154 569.072 628.887 569.072H56.8753C55.6081 569.072 54.5808 568.044 54.5808 566.775C54.5808 565.507 55.6081 564.479 56.8753 564.479H628.887C630.154 564.479 631.182 565.507 631.182 566.775Z" fill="#0E538B"/>
<path d="M230.817 167.368L233.727 174.627L245.914 171.232L251.477 181.321L261.013 180.272L261.543 185.103L248.789 186.506L243.518 176.945L230.84 180.477L226.461 169.553L230.817 167.368Z" fill="#2993F2"/>
<path d="M155.234 361.829L158.23 354.388C154.932 352.883 151.892 350.921 149.534 348.938C147.565 347.282 147.22 344.381 148.744 342.308L148.927 342.058C150.606 339.774 153.88 339.384 156.024 341.238C158.209 343.127 160.86 344.89 163.923 346.125C168.383 347.923 172.129 347.431 173.39 344.298C174.588 341.323 172.84 338.433 167.839 334.14C160.601 327.944 156.465 321.724 159.524 314.127C162.299 307.236 169.326 303.788 178.361 305.52L181.356 298.08L189.025 301.173L186.25 308.065C189.044 309.34 191.229 310.664 192.975 311.976C195.108 313.578 195.538 316.61 193.957 318.76C192.323 320.984 189.17 321.415 187.008 319.701C185.387 318.416 183.289 317.067 180.527 315.953C175.441 313.902 172.915 315.432 172.032 317.625C170.992 320.209 173.068 322.958 178.71 328.147C186.698 335.191 188.718 341.014 185.881 348.062C183.075 355.032 175.748 358.996 166.12 356.933L162.903 364.921L155.234 361.829Z" fill="#D3D3D3"/>
<path d="M352.066 564.494H502.928C508.938 564.494 513.811 559.618 513.811 553.602C513.811 547.587 508.938 542.71 502.928 542.71H352.066C346.056 542.71 341.183 547.587 341.183 553.602C341.183 559.618 346.056 564.494 352.066 564.494Z" fill="#FFCE88"/>
<path d="M329.391 542.933H471.412C477.423 542.933 482.295 538.056 482.295 532.041C482.295 526.026 477.423 521.149 471.412 521.149H329.391C323.381 521.149 318.509 526.026 318.509 532.041C318.509 538.056 323.381 542.933 329.391 542.933Z" fill="#EF81F6"/>
<path d="M349.625 521.141H485.478C491.352 521.141 496.113 516.376 496.113 510.497V509.993C496.113 504.115 491.352 499.349 485.478 499.349H349.625C343.751 499.349 338.989 504.115 338.989 509.993V510.497C338.99 516.376 343.751 521.141 349.625 521.141Z" fill="#FFCE88"/>
<path d="M349.758 499.409H486.247C492.02 499.409 496.699 494.727 496.699 488.949V488.086C496.699 482.309 492.02 477.625 486.247 477.625H349.758C343.986 477.625 339.306 482.309 339.306 488.086V488.949C339.306 494.727 343.986 499.409 349.758 499.409Z" fill="#EF81F6"/>
<path d="M345.264 478.907H483.004C489.015 478.907 493.887 474.03 493.887 468.015C493.887 461.999 489.015 457.123 483.004 457.123H345.264C339.253 457.123 334.381 461.999 334.381 468.015C334.381 474.03 339.253 478.907 345.264 478.907Z" fill="#FFCE88"/>
<path d="M351.209 457.397H488.949C494.96 457.397 499.832 452.521 499.832 446.505C499.832 440.49 494.96 435.614 488.949 435.614H351.209C345.198 435.614 340.326 440.49 340.326 446.505C340.326 452.521 345.198 457.397 351.209 457.397Z" fill="#EF81F6"/>
<path d="M344.307 415.314H476.242C482.134 415.314 486.91 410.534 486.91 404.637V404.207C486.91 398.311 482.134 393.531 476.242 393.531H344.307C338.414 393.531 333.638 398.311 333.638 404.207V404.637C333.638 410.534 338.415 415.314 344.307 415.314Z" fill="#EF81F6"/>
<path d="M332.487 436.259H459.237C465.02 436.259 469.709 431.566 469.709 425.778V424.956C469.709 419.168 465.02 414.476 459.237 414.476H332.487C326.703 414.476 322.015 419.168 322.015 424.956V425.778C322.015 431.566 326.703 436.259 332.487 436.259Z" fill="#FFCE88"/>
<path d="M479.157 456.657C453.215 480.603 451.58 521.062 475.506 547.027C499.431 572.991 539.857 574.627 565.798 550.681C591.74 526.736 593.375 486.276 569.45 460.312C545.525 434.348 505.099 432.712 479.157 456.657Z" fill="#FFCE88"/>
<path d="M486.126 464.22C464.357 484.314 462.985 518.265 483.062 540.052C503.138 561.839 537.061 563.213 558.83 543.118C580.598 523.025 581.97 489.074 561.894 467.287C541.817 445.499 507.895 444.127 486.126 464.22Z" fill="#2993F2"/>
<path d="M555.095 520.429C556.328 522.05 556.242 524.317 554.889 525.84C552.234 528.825 547.893 532.437 542.44 535.116C534.464 539.035 525.302 540.234 516.652 537.278C511.247 535.431 506.096 531.657 502.219 526.506L497.506 528.822C495.904 529.609 493.967 528.948 493.181 527.345L493.121 527.223C492.335 525.619 492.996 523.682 494.598 522.895L498.466 520.994C497.692 519.723 497.156 518.936 496.8 518.21C496.207 517.001 495.615 515.49 495.086 513.798L491.097 515.757C489.495 516.545 487.559 515.883 486.773 514.28C485.986 512.677 486.647 510.739 488.249 509.952L493.084 507.576C491.684 501.359 491.911 495.093 493.756 489.682C496.894 480.484 503.809 473.483 512.148 469.386C517.01 466.997 521.106 466.031 524.46 465.667C526.792 465.414 528.906 467.053 529.244 469.377L529.254 469.45C529.604 471.858 527.914 474.069 525.505 474.402C522.765 474.781 519.57 475.647 515.944 477.429C510.626 480.041 506.139 484.348 503.927 490.539C502.695 494.147 502.363 498.363 503.599 502.41L530.794 489.047C532.395 488.26 534.332 488.922 535.118 490.525C535.905 492.128 535.243 494.066 533.642 494.853L505.239 508.809C505.77 510.199 506.302 511.589 506.718 512.436C507.251 513.525 507.785 514.613 508.618 516.006L537.081 502.019C538.717 501.216 540.694 501.891 541.497 503.528C542.3 505.165 541.625 507.144 539.989 507.947L512.735 521.339C515.301 524.431 518.476 526.624 521.721 527.732C528.148 529.828 533.813 529.146 539.856 526.177C543.54 524.367 546.529 522.085 548.759 519.94C550.594 518.177 553.553 518.403 555.095 520.429Z" fill="white"/>
<path d="M487.318 332.05C486.47 333.425 486.712 335.209 487.898 336.306C490.224 338.459 493.928 340.974 498.439 342.669C505.039 345.149 512.364 345.388 518.965 342.387C523.091 340.512 526.866 337.135 529.53 332.77L533.429 334.235C534.755 334.732 536.232 334.061 536.73 332.734L536.768 332.633C537.265 331.307 536.594 329.828 535.269 329.33L532.069 328.128C532.582 327.065 532.945 326.402 533.17 325.801C533.545 324.801 533.896 323.563 534.183 322.186L537.483 323.425C538.808 323.923 540.286 323.251 540.783 321.925C541.281 320.599 540.609 319.12 539.284 318.622L535.284 317.12C535.911 312.103 535.25 307.174 533.376 303.045C530.191 296.025 524.192 291.032 517.293 288.44C513.271 286.929 509.963 286.483 507.287 286.454C505.426 286.434 503.883 287.891 503.796 289.751L503.793 289.81C503.703 291.739 505.207 293.354 507.135 293.431C509.327 293.518 511.916 293.956 514.916 295.082C519.315 296.735 523.19 299.789 525.413 304.506C526.663 307.259 527.249 310.562 526.586 313.852L504.087 305.401C502.762 304.903 501.284 305.574 500.787 306.901C500.29 308.227 500.961 309.706 502.286 310.204L525.784 319.031C525.472 320.169 525.159 321.308 524.896 322.009C524.558 322.909 524.22 323.81 523.67 324.973L500.122 316.127C498.769 315.619 497.26 316.305 496.752 317.659C496.245 319.014 496.93 320.523 498.283 321.032L520.831 329.502C519.043 332.141 516.705 334.116 514.229 335.242C509.316 337.392 504.791 337.291 499.791 335.413C496.744 334.268 494.209 332.697 492.283 331.176C490.698 329.925 488.38 330.332 487.318 332.05Z" fill="#D3D3D3"/>
<path d="M278.507 256.791L271.328 253.154L264.265 257.011C263.46 257.45 262.501 256.775 262.643 255.869L263.881 247.912L258.033 242.381C257.367 241.75 257.712 240.629 258.617 240.484L266.561 239.203L270.01 231.927C270.403 231.098 271.575 231.08 271.993 231.897L275.665 239.062L283.644 240.097C284.553 240.215 284.933 241.325 284.286 241.975L278.612 247.685L280.094 255.6C280.263 256.502 279.325 257.205 278.507 256.791Z" fill="#EF81F6"/>
<path d="M422.59 110.756L430.009 111.51L432.539 99.6965L443.523 99.4594L446.861 90.9285L451.176 92.6193L446.711 104.029L436.303 104.254L433.671 116.544L422.506 115.409L422.59 110.756Z" fill="#EF81F6"/>
<path d="M238.521 287.786L246.458 290.406C246.458 290.406 259.043 286.325 260.282 283.758C261.522 281.191 261.872 274.961 263.662 274.792C265.453 274.622 268.914 275.205 269.738 279.468C270.336 282.562 265.808 291.506 266.515 292.458C266.958 293.054 271.477 294.69 274.798 295.833C276.982 296.583 278.557 298.507 278.892 300.827L278.893 300.834C279.119 302.402 278.232 303.93 276.766 304.497L274.482 305.379L275.211 307.739C275.753 309.496 274.792 311.384 273.058 311.966L271.292 312.559L271.856 313.996C272.583 315.847 271.559 317.948 269.659 318.501L268.115 318.949L268.179 319.362C268.444 321.08 267.369 322.733 265.703 323.17L264.17 323.572L243.031 316.59C241.05 315.936 239.227 314.876 237.672 313.476L230.651 309.767C229.897 309.369 229.55 308.467 229.834 307.646L236.343 288.887C236.657 287.981 237.627 287.491 238.521 287.786Z" fill="#FFCE88"/>
<path d="M524.632 262.184C524.735 261.891 527.221 257.636 530.43 253.015C545.358 231.492 567.492 210.747 593.45 211.526L593.469 211.367C581.733 210.079 570.234 213.207 560.139 218.782C543.486 227.767 527.26 244.889 518.383 258.05L524.632 262.184Z" fill="#EF81F6"/>
<path d="M353.924 235.328C353.924 235.328 353.162 233.788 353.208 230.23C353.265 225.831 354.146 219.188 354.322 218.601C354.64 217.539 340.421 213.078 340.421 213.078C340.421 213.078 317.606 211.91 314.211 209.361C310.815 206.812 307.958 205.763 309.542 208.405C312.407 213.184 319.092 220.194 320.578 221.15C322.064 222.105 339.784 226.566 340.103 226.566C340.421 226.566 340.315 237.717 340.315 237.717L353.924 235.328Z" fill="#F7A491"/>
<path d="M339.121 230.575C339.121 230.575 353.893 228.062 354.162 229.539C360.131 262.25 361.143 273.062 361.803 273.401C364.051 274.559 396.203 246.318 401.516 244.469C404.058 243.585 406.823 243.732 409.474 243.811C415.794 243.997 413.663 243.846 416.995 244.01L416.991 244.017C417.172 244.029 417.273 244.036 417.273 244.036L417.239 249.986C410.118 256.399 393.816 353.526 392.444 353.462C390.91 353.39 358.688 361.506 359.256 358.789C359.348 358.347 381.101 340.532 387.27 314.82C389.341 306.189 390.363 296.895 391.486 288.761C384.327 292.354 356.365 306.126 351.934 304.307C338.149 298.646 339.121 230.575 339.121 230.575Z" fill="#D3D3D3"/>
<path d="M283.632 403.031C283.632 403.031 253.653 426.533 252.654 430.699C251.213 436.702 223.761 428.811 230.381 427.59C231.904 427.31 236.778 426.071 237.179 425.858C239.322 424.711 265.997 392.539 265.997 392.539L283.632 403.031Z" fill="#F7A491"/>
<path d="M217.508 427.591L236.648 426.03C236.648 426.03 242.12 430.563 252.634 430.775C252.634 430.775 254.315 435.582 253.516 441.201C253.378 442.171 253.216 445.1 252.239 445.034C248.703 444.793 239.281 442.447 228.546 440.298C228.546 440.298 214.119 437.24 205.786 432.251C197.453 427.261 217.508 427.591 217.508 427.591Z" fill="#1E0F00"/>
<path d="M417.955 344.076C417.955 344.076 396.002 347.768 371.723 342.084C343.628 335.505 312.563 329.424 303.461 334.72C296.135 338.983 250.383 408.174 250.383 408.174L268.051 421.078L318.427 364.621C318.427 364.621 382.698 388.354 397.133 385.724C430.008 379.734 430.475 353.457 417.955 344.076Z" fill="#AEE0FF"/>
<path d="M393.955 330.114L371.989 356.24L412.737 368.666L417.955 344.076L393.955 330.114Z" fill="#AEE0FF"/>
<path d="M349.316 449.451C349.316 449.451 350.652 485.74 351.479 491.886C352.303 498.002 336.093 516.433 338.164 510.022C338.64 508.548 339.869 503.667 339.87 503.212C339.88 500.78 333.858 459.383 333.858 459.383L349.316 449.451Z" fill="#F7A491"/>
<path d="M332.048 521.359L339.771 503.761C339.771 503.761 346.354 501.096 351.537 491.938C351.537 491.938 356.561 492.741 361.122 496.115C361.909 496.697 367.271 500.621 366.897 501.526C365.522 504.858 358.221 511.997 350.238 519.793C350.238 519.793 338.922 528.929 330.576 533.897C322.231 538.864 332.048 521.359 332.048 521.359Z" fill="#1E0F00"/>
<path d="M313.734 377.906C321.412 367.66 383.366 357.93 383.366 357.93L400.641 324.698L438.842 348.275C438.842 348.275 435.024 378.698 432.157 386.827C428.337 397.66 402.664 398.212 386.984 398.05C372.557 397.902 346.206 400.846 346.206 400.846L355.119 479.543C355.119 479.543 337.599 483.533 332.676 482.888C332.119 482.815 304.184 390.65 313.734 377.906Z" fill="#CCE9FF"/>
<path d="M417.061 244.09L438.615 245.272C438.615 245.272 439.108 245.446 439.258 245.474C441.014 245.799 439.419 308.66 437.853 332.139C436.286 355.617 433.111 365.48 433.111 365.48C433.111 365.48 403.88 360.286 394.91 356.801C391.187 355.355 382.176 344.08 382.176 344.08C382.176 344.08 391.382 331.694 396.018 311.574C399.595 296.057 404.005 268.549 406.529 262.808C412.326 249.622 417.061 244.09 417.061 244.09Z" fill="white"/>
<path d="M438.001 226.249L438.613 245.294C438.613 245.294 424.662 269.354 417.499 266.001C411.488 263.188 416.823 244.886 416.823 244.886C416.823 244.886 417.864 240.69 419.308 235.869C420.316 232.5 421.155 228.851 421.093 226.173C420.942 219.664 438.001 226.249 438.001 226.249Z" fill="#F7A491"/>
<path d="M421.333 182.81C421.333 182.81 414.224 193.537 413.693 202.564C413.162 211.591 415.073 217.751 415.073 217.751L437.887 190.457L421.333 182.81Z" fill="#1E0F00"/>
<path d="M411.331 200.717C411.009 203.878 412.236 206.592 414.072 206.779C415.908 206.967 417.657 204.556 417.978 201.395C418.3 198.234 417.072 195.52 415.237 195.332C413.401 195.145 411.652 197.556 411.331 200.717Z" fill="#F48C7F"/>
<path d="M445.268 194.83C445.791 194.718 445.74 220.995 438.13 227.179C430.52 233.362 417.275 233.905 413.408 227.676C409.13 220.787 413.199 193.099 424.517 187.219C435.836 181.338 445.268 194.83 445.268 194.83Z" fill="#F7A491"/>
<path d="M447.199 178.536C453.009 183.634 455.821 187.357 459.752 196.421C464.585 207.565 454.996 219.111 446.955 223.699C438.914 228.288 438.232 233.921 438.232 233.921L437.914 230.416C437.569 227.694 438.392 226.141 439.161 224.495C439.845 223.031 442.044 218.013 442.901 216.689C445.164 213.196 445.61 212.44 444.493 209.122C443.633 206.567 444.629 200.934 443.299 196.722L432.476 194.386C432.476 194.386 425.703 192.757 422.282 188.807C412.462 177.468 431.878 164.824 447.199 178.536Z" fill="#1E0F00"/>
<path d="M441.917 211.997C440.584 214.881 440.861 217.848 442.535 218.624C444.21 219.399 446.647 217.691 447.981 214.807C449.314 211.924 449.037 208.957 447.362 208.181C445.688 207.405 443.25 209.114 441.917 211.997Z" fill="#F7A491"/>
<path d="M587.691 221.413L589.446 209.309L580.478 200.998C579.457 200.052 579.964 198.344 581.335 198.108L593.381 196.039L598.506 184.935C599.09 183.67 600.87 183.625 601.517 184.858L607.206 195.684L619.342 197.131C620.723 197.296 621.317 198.975 620.346 199.973L611.816 208.733L614.191 220.732C614.461 222.099 613.048 223.182 611.8 222.566L600.84 217.154L590.172 223.122C588.957 223.802 587.491 222.792 587.691 221.413Z" fill="#EF81F6"/>
<path d="M515.67 139.512C514.44 144.57 512.222 152.564 512.222 152.564C512.397 154.761 513.046 163.907 513.817 175.117L497.355 168.523C497.355 168.523 497.552 150.258 496.818 149.14C496.197 148.195 495.153 149.375 490.107 142.148C488.65 140.062 488.378 136.334 488.378 136.334C488.378 136.334 488.078 131.747 489.107 131.32C490.136 130.892 491.317 131.578 491.69 132.37C492.063 133.163 491.966 135.009 492.339 135.802C492.712 136.595 495.093 137.55 496.096 137.5C497.098 137.451 495.971 123.93 495.971 123.93C495.971 123.93 495.411 120.096 495.127 118.842C494.885 117.772 493.912 114.636 493.912 114.636C493.912 114.636 492.77 110.085 494.182 109.738C495.014 109.533 497.135 113.23 498.588 117.153C500.154 121.379 501.041 125.86 501.489 125.8C502.54 125.658 501.983 118.245 501.983 118.245C501.983 118.245 500.935 114.85 500.962 113.247C499.973 111.284 499.317 107.641 501.058 107.34C501.379 107.284 503.675 111.911 503.675 111.911C503.675 111.911 504.577 115.169 505.103 116.691C506.031 119.377 506.171 123.618 506.655 125.488C507.057 127.043 507.421 126.404 507.587 126.469C507.715 126.52 507.491 124.374 507.234 121.425C507.105 119.939 507.275 118.226 506.86 116.534C506.476 114.968 506.255 112.725 506.155 111.371C505.873 107.536 508.285 107.929 509.119 111.435C509.437 112.77 509.771 114.228 510.104 115.705C511.4 121.453 511.363 126.991 511.982 127.037C512.786 127.097 512.257 117.014 512.257 117.014C512.257 117.014 513.491 111.433 514.716 116.613C516.138 122.623 515.989 127.524 515.97 127.74C515.841 129.207 516.9 134.454 515.67 139.512Z" fill="#F8A492"/>
<path d="M438.643 245.304C438.643 245.304 459.981 244.298 465.494 241.802C468.836 240.289 496.292 218.146 496.292 218.146L495.985 158.861L515.294 157.392C515.294 157.392 525.306 222.921 521.838 230.094C518.257 237.501 478.068 267.996 470.03 281.228C465.4 288.852 455.743 392.531 454.282 393.465C443.883 398.881 411.77 404.29 412.526 401.005C433.431 310.201 438.643 245.304 438.643 245.304Z" fill="#D3D3D3"/>
<path d="M279.014 155.269C279.014 190.766 307.765 219.541 343.231 219.541C378.698 219.541 407.449 190.766 407.449 155.269C407.449 119.773 378.698 90.9976 343.231 90.9976C307.765 90.9976 279.014 119.773 279.014 155.269Z" fill="#FFCE88"/>
<path d="M289.345 155.27C289.345 185.056 313.471 209.202 343.232 209.202C372.993 209.202 397.119 185.056 397.119 155.27C397.119 125.483 372.993 101.337 343.232 101.337C313.471 101.337 289.345 125.483 289.345 155.27Z" fill="#2993F2"/>
<path d="M326.229 189.899L329.295 181.434C325.536 179.876 322.049 177.796 319.324 175.664C317.051 173.885 316.549 170.644 318.176 168.258L318.373 167.97C320.165 165.341 323.823 164.774 326.301 166.769C328.826 168.802 331.87 170.674 335.354 171.939C340.429 173.78 344.611 173.079 345.901 169.516C347.129 166.13 345.054 162.958 339.273 158.339C330.91 151.675 326.025 144.862 329.156 136.22C331.997 128.379 339.743 124.234 349.946 125.819L353.013 117.355L361.737 120.521L358.897 128.361C362.081 129.681 364.585 131.08 366.595 132.482C369.052 134.195 369.654 137.579 367.965 140.055C366.22 142.613 362.701 143.221 360.208 141.384C358.339 140.007 355.931 138.576 352.789 137.436C347.002 135.337 344.23 137.153 343.326 139.648C342.261 142.588 344.699 145.589 351.233 151.187C360.471 158.773 362.968 165.224 360.064 173.243C357.19 181.173 349.129 185.91 338.246 183.976L334.953 193.065L326.229 189.899Z" fill="white"/>
<path d="M344.878 219.875C344.878 219.875 338.936 217.326 337.344 216.795C335.753 216.264 330.659 215.308 330.659 215.308C330.659 215.308 322.754 207.184 320.737 206.971C318.721 206.759 325.353 215.839 325.353 215.839L328.113 218.495C328.113 218.495 323.656 214.671 322.807 214.14C321.958 213.609 315.273 203.945 313.575 204.582C311.877 205.219 316.44 212.016 318.668 215.627C320.897 219.238 331.084 221.468 331.084 221.468L344.878 219.875Z" fill="#F7A491"/>
<path d="M273.859 246.113C273.871 247.706 309.958 248.145 317.437 280.172L322.248 278.59C311.53 246.033 275.8 247.344 274.051 246.146C274.027 246.129 274.017 246.11 274.019 246.113H273.859Z" fill="#EF81F6"/>
<path d="M74.0234 452.148L75.2633 447.877C81.8245 446.637 87.4727 442.166 89.3329 435.761C89.9285 433.711 90.3388 431.978 90.6426 429.658L81.8525 427.101L83.4156 421.72L91.3522 424.029C91.6699 421.342 92.1246 417.862 93.0921 414.531C96.0195 404.452 104.842 399.887 114.314 402.642C117.017 403.429 119.103 404.448 120.654 405.493C122.06 406.442 122.428 408.357 121.503 409.78C120.572 411.21 118.676 411.619 117.223 410.725C116.016 409.982 114.481 409.267 112.553 408.706C105.897 406.77 101.827 410.588 100.065 416.652C98.9989 420.325 98.7172 423.207 98.4351 426.089L110.724 429.664L109.161 435.045L97.555 431.669C96.8682 434.989 96.0966 438.284 94.4355 441.136C92.43 444.536 89.489 447.015 85.8677 448.647L85.8176 448.818L108.247 455.343C109.905 455.825 110.858 457.562 110.376 459.221L110.31 459.447C109.829 461.107 108.094 462.061 106.436 461.578L74.0234 452.148Z" fill="#EF81F6"/>
</svg>
