<svg width="560" height="446" viewBox="0 0 560 446" fill="none" xmlns="http://www.w3.org/2000/svg">
        <path d="M223.121 19.3709C215.842 23.0603 209.019 27.1498 202.835 31.5081C181.212 46.7343 163.818 68.8991 142.57 84.1729C122.506 98.5931 98.004 102.099 75.0454 104.508C35.0254 108.71 -48.443 149.005 -33.3717 223.69C-27.8886 250.871 -8.55235 269.329 1.34763 293.94C11.8786 320.122 10.7725 352.778 27.5391 375.474C34.9152 385.454 45.0965 392.046 55.5495 397.039C125.117 430.256 203.24 428.713 277.006 425.05C335.227 422.159 428.74 437.435 479.88 400.137C505.27 381.618 492.066 330.996 509.635 303.806C524.401 280.959 544.493 265.956 554.363 237.356C571.158 188.691 547.217 125.362 505.296 108.087C479.101 97.2934 451.349 92.3463 425.456 80.4931C398.702 68.2397 388.393 49.8863 367.993 28.1675C331.111 -11.093 268.337 -3.55988 223.121 19.3709Z" fill="#E6F4FF"/>
        <path d="M276.336 288.566C276.336 288.566 290.6 251.755 286.66 215.404C286.658 215.404 257.394 254.539 276.336 288.566Z" fill="#FCD2B1"/>
        <path d="M103.752 198.871C103.752 198.871 93.2054 267.217 95.3949 268.5C95.3949 268.5 130.713 213.744 103.752 198.871Z" fill="#FCD2B1"/>
        <path d="M104.439 207.231L105.397 206.652C105.245 207.502 102.772 210.351 100.515 211.572C99.5548 212.098 98.4506 212.435 97.2608 212.384C96.7724 212.367 96.2745 212.29 95.7632 212.128C95.3489 211.707 94.8452 210.72 94.3701 209.537C94.3625 209.527 94.3625 209.51 94.3549 209.501C94.2428 209.209 94.1325 208.908 94.0185 208.599C93.7182 207.784 93.4521 206.917 93.245 206.118C93.2184 206.032 93.205 205.947 93.1765 205.87C92.8838 204.685 92.7299 203.664 92.8307 203.13C92.8573 203.01 92.9162 202.892 93.0188 202.779C93.1823 202.581 93.454 202.4 93.798 202.227C94.3036 201.988 94.9707 201.788 95.6796 201.615H95.6891C96.1851 201.495 96.6983 201.39 97.2038 201.314C97.2399 201.304 97.2817 201.295 97.3236 201.287C97.7531 201.217 98.1617 201.158 98.5399 201.104C98.7452 201.079 98.9333 201.062 99.1139 201.036C99.7487 200.965 100.201 200.931 100.288 200.931C100.665 200.942 104.667 205.882 104.439 207.231Z" fill="#EBA87F"/>
        <path d="M101.368 180.169C101.349 180.073 101.349 180.035 101.349 180.035C100.797 181.426 94.4116 187.925 94.0125 188.325C93.9935 188.344 93.9935 188.344 93.9935 188.344L90.1525 179.33L91.0647 189.087V189.106C91.0647 189.106 91.0648 189.106 91.0457 189.106C90.5136 188.973 81.351 186.743 80.5927 186.514C80.5718 186.514 80.5718 186.514 80.5718 186.514C79.6614 185.2 79.0153 183.656 78.7283 181.979C78.4242 180.207 78.5572 178.473 79.0133 176.853C80.1917 172.794 83.5918 169.535 88.0201 168.773C92.6403 167.972 97.0876 170.088 99.4994 173.785C100.336 175.042 100.925 176.51 101.193 178.091C101.311 178.797 101.368 179.483 101.368 180.169Z" fill="#C28FFF"/>
        <path d="M118.412 221.3L115.405 218.612L112.019 215.599L103.955 208.407C103.955 208.407 99.9368 207.764 99.1101 202.772C99.0588 202.432 99.015 202.093 98.9846 201.724C98.9276 201.832 98.8573 201.941 98.7794 202.038C98.4487 202.493 98.0001 202.808 97.5079 202.997L97.4832 203C97.4661 203.002 97.4661 203.002 97.4509 203.004C97.4395 203.004 97.4395 203.004 97.4205 203.008C97.4072 203.01 97.4072 203.01 97.3958 203.01C97.3787 203.012 97.3787 203.012 97.3654 203.029C96.9434 203.21 96.455 203.296 95.997 203.296C95.0562 203.328 94.1116 203.098 93.4996 202.77C93.1595 202.583 92.9048 202.356 92.8192 202.124C92.7337 201.889 92.8972 201.583 93.245 201.266C94.1059 200.456 96.0939 199.509 98.1788 199.208C99.3989 199.002 100.665 199.048 101.744 199.46C105.391 200.864 105.142 203.376 105.142 203.376L112.976 209.979L113.186 210.154L113.328 210.265L113.33 210.28L117.365 213.674C117.365 213.674 117.365 213.674 117.367 213.689C117.382 213.802 117.506 214.591 117.696 215.902C117.813 216.748 117.971 217.805 118.127 219.065C118.224 219.757 118.315 220.506 118.412 221.3Z" fill="#FFC393"/>
        <path d="M226.197 151.953C225.803 151.157 225.28 150.374 224.644 149.644C224.45 149.813 224.247 149.987 224.047 150.16C223.925 150.28 223.79 150.385 223.667 150.494C223.65 150.505 223.635 150.517 223.627 150.526C223.589 150.566 223.551 150.597 223.503 150.629C223.473 150.659 223.445 150.69 223.408 150.709C223.355 150.751 223.298 150.801 223.254 150.841C223.123 150.955 222.981 151.065 222.848 151.178C222.724 151.281 222.599 151.384 222.473 151.487C222.426 151.519 222.378 151.559 222.333 151.599L221.861 151.972C221.846 151.982 221.821 152.001 221.808 152.013L221.801 152.022C221.626 152.157 221.46 152.281 221.295 152.417C221.177 152.498 221.059 152.592 220.947 152.676C220.814 152.779 220.681 152.874 220.556 152.977C220.428 153.072 220.301 153.165 220.168 153.259C219.902 153.459 219.632 153.657 219.372 153.846L219.014 154.099C218.879 154.196 218.75 154.282 218.625 154.364C218.427 154.513 218.22 154.65 218.02 154.781C217.825 154.926 217.625 155.056 217.42 155.185C217.235 155.313 217.045 155.441 216.859 155.559C216.819 155.582 216.779 155.605 216.741 155.637C216.365 155.875 215.983 156.114 215.605 156.344C215.206 156.596 214.805 156.843 214.404 157.078C214.225 157.179 214.043 157.287 213.871 157.388C213.816 157.413 213.765 157.444 213.719 157.468C213.632 157.524 213.543 157.579 213.453 157.623C213.413 157.646 213.374 157.669 213.339 157.691C213.187 157.771 213.033 157.859 212.879 157.949C212.725 158.029 212.573 158.116 212.419 158.198C212.115 158.366 211.807 158.536 211.5 158.696C211.266 158.821 211.03 158.938 210.796 159.063C210.682 159.121 210.568 159.17 210.462 159.227C210.268 159.33 210.063 159.424 209.869 159.519C209.705 159.601 209.552 159.679 209.39 159.761C209.225 159.833 209.065 159.915 208.9 159.997H208.883C208.681 160.094 208.468 160.197 208.257 160.296C208.054 160.392 207.841 160.487 207.628 160.582C207.204 160.775 206.788 160.958 206.36 161.141L206.237 161.192C206.102 161.253 205.959 161.314 205.821 161.377C205.682 161.436 205.543 161.489 205.403 161.55C204.88 161.773 204.352 161.987 203.827 162.193C203.662 162.257 203.487 162.324 203.327 162.395C203.327 162.395 203.327 162.395 203.316 162.395C202.93 162.539 202.544 162.692 202.156 162.837C201.959 162.915 201.755 162.993 201.556 163.06C201.398 163.115 201.233 163.178 201.077 163.233C201.077 163.233 201.077 163.233 201.067 163.233C197.743 164.445 194.467 165.451 191.293 166.417C191.185 166.457 191.078 166.49 190.977 166.518C190.968 166.52 190.968 166.52 190.968 166.52C187.912 167.456 184.953 168.35 182.109 169.364C181.509 169.579 180.904 169.802 180.313 170.034C179.956 170.166 179.612 170.307 179.276 170.435C179.057 170.532 178.827 170.633 178.59 170.73C178.554 170.743 178.523 170.757 178.5 170.776C178.426 170.802 178.352 170.839 178.28 170.875C177.987 171.006 177.691 171.149 177.407 171.279C177.252 171.359 177.107 171.431 176.961 171.5C176.929 171.513 176.906 171.525 176.879 171.536L176.872 171.538C176.754 171.595 176.636 171.662 176.529 171.711C176.292 171.81 176.056 171.919 175.836 172.026C175.796 172.039 175.746 172.062 175.706 172.085C175.577 172.144 175.446 172.213 175.315 172.273C175.22 172.329 175.114 172.376 175.017 172.432C174.937 172.476 174.847 172.529 174.758 172.577C174.684 172.611 174.614 172.655 174.541 172.698C174.422 172.775 174.302 172.841 174.188 172.916C174.083 172.971 173.988 173.036 173.891 173.101C173.796 173.163 173.703 173.228 173.614 173.293C173.566 173.325 173.517 173.358 173.481 173.388C173.392 173.444 173.314 173.505 173.234 173.566C173.131 173.642 173.031 173.714 172.934 173.787C172.833 173.869 172.747 173.941 172.647 174.023C172.612 174.044 172.584 174.065 172.561 174.095C172.544 174.105 172.529 174.124 172.515 174.135C172.443 174.187 172.381 174.238 172.32 174.299C172.293 174.311 172.272 174.332 172.257 174.351C172.147 174.435 172.046 174.526 171.955 174.616C171.93 174.635 171.915 174.648 171.892 174.665C171.791 174.766 171.683 174.858 171.584 174.955C171.242 175.267 170.913 175.593 170.583 175.913C170.467 176.031 170.353 176.142 170.239 176.26C170.06 176.43 169.893 176.607 169.716 176.777C169.61 176.878 169.513 176.982 169.402 177.085C169.294 177.186 169.188 177.285 169.077 177.394C168.901 177.556 168.714 177.718 168.528 177.889C168.332 178.053 168.138 178.225 167.935 178.389C167.741 178.553 167.546 178.707 167.333 178.865C167.23 178.947 167.12 179.029 167.01 179.105C166.667 179.347 166.304 179.603 165.913 179.85C165.896 179.862 165.888 179.871 165.873 179.881C163.697 181.708 161.637 183.553 161.106 184.704C161.232 184.879 161.376 185.06 161.538 185.238C162.273 186.078 163.376 186.995 165.025 187.694C167.983 188.954 172.66 189.543 180.042 187.936C181.201 187.685 182.442 187.38 183.75 187.014C184.272 186.861 184.816 186.705 185.365 186.539C185.521 186.486 185.677 186.429 185.846 186.383C186.019 186.326 186.188 186.278 186.361 186.221C186.623 186.135 186.882 186.051 187.146 185.956C187.355 185.895 187.572 185.825 187.775 185.747C187.923 185.695 188.073 185.649 188.229 185.594C188.444 185.514 188.668 185.442 188.892 185.363C189.132 185.282 189.37 185.19 189.611 185.106C189.685 185.08 189.752 185.055 189.826 185.028C193.123 183.818 196.789 182.278 200.853 180.35C205.944 178.231 210.276 175.963 213.856 173.638C214.286 173.358 214.71 173.08 215.124 172.801C215.187 172.759 215.249 172.716 215.314 172.674C215.314 172.666 215.331 172.662 215.329 172.655C215.536 172.516 215.728 172.38 215.924 172.243C215.939 172.232 215.951 172.232 215.964 172.218C216.154 172.083 216.335 171.948 216.515 171.812C216.62 171.738 216.713 171.675 216.81 171.603C216.905 171.528 217.007 171.454 217.099 171.384C217.289 171.239 217.477 171.094 217.657 170.949C217.878 170.783 218.083 170.619 218.292 170.454C218.71 170.114 219.115 169.777 219.503 169.432C224.927 164.708 227.457 159.91 227.204 155.668C227.116 154.372 226.786 153.124 226.197 151.953Z" fill="#FCD2B1"/>
        <path d="M176.329 425.418C176.329 425.418 174.187 429.431 172.786 431.022C171.385 432.617 158.824 437.65 158.796 442.378C158.766 447.51 175.036 443.897 178.588 443.712C182.137 443.523 182.406 440.785 183.904 437.881C185.392 434.978 186.903 435.466 187.184 433.126C187.462 430.784 185.734 425.416 185.734 425.416H176.329V425.418Z" fill="#0E538C"/>
        <path d="M230.383 424.949C230.383 424.949 234.758 429.848 239.198 430.875C243.643 431.901 250.284 433.45 250.322 436.261C250.354 439.075 234.002 440.684 228.916 437.85C221.331 433.62 220.561 434.894 219.717 432.785C218.877 430.67 220.726 425.017 220.675 424.345C220.607 423.514 230.383 424.949 230.383 424.949Z" fill="#0E538C"/>
        <path d="M229.891 422.607C229.891 422.607 230.47 424.903 230.383 424.949C230.293 425 220.373 426.184 220.675 424.347C220.916 422.853 221.266 421.227 221.266 421.227L229.891 422.607Z" fill="#0E538C"/>
        <path d="M185.61 423.872C185.61 423.872 186.028 426.058 185.944 426.113C185.864 426.165 175.885 427.954 175.94 426.134C175.98 424.692 176.858 423.009 176.858 423.009L185.61 423.872Z" fill="#0E538C"/>
        <path d="M199.348 201.419C196.3 201.832 191.229 201.411 187.761 198.92C187.761 198.92 187.751 198.448 187.683 197.503C187.529 195.374 187.069 190.838 185.74 183.85C185.233 181.154 201.368 190.96 201.368 190.96C201.368 190.96 201.319 191.906 201.294 193.184C201.277 193.855 201.256 194.617 201.266 195.391C201.266 195.658 201.277 195.925 201.277 196.199C201.294 196.912 201.325 197.59 201.378 198.173C201.405 198.364 201.454 198.612 201.522 198.871C201.652 199.385 201.84 199.925 201.92 200.115C202.157 200.672 201.078 201.179 199.348 201.419Z" fill="#F1B99E"/>
        <path d="M295.461 216.511C295.461 216.511 306.093 217.754 306.69 218.436C307.286 219.118 307.144 219.7 306.146 219.623C305.142 219.547 295.816 218.722 295.816 218.722C295.816 218.722 308.003 222.328 308.62 222.773C308.983 223.033 308.778 224.163 308.231 224.172C307.691 224.182 295.362 221.314 295.362 221.314C295.362 221.314 306.728 224.704 307.127 225.237C307.474 225.706 307.022 226.712 306.157 226.52C305.293 226.328 294.52 223.791 294.52 223.791C294.52 223.791 302.605 226.793 302.66 227.461C302.695 227.867 302.558 228.851 300.499 228.01C298.445 227.17 293.348 225.71 293.348 225.71L295.461 216.511Z" fill="#F1B99E"/>
        <path d="M282.895 217.015C282.895 217.015 286.431 217.199 287.515 215.404C288.435 213.878 290.685 212.492 291.375 212.067C292.297 211.496 294.553 208.727 295.206 209.838C295.86 210.951 291.694 214.568 290.962 215.488C290.227 216.409 295.33 216.075 296.259 216.744C297.192 217.417 296.683 225.88 293.184 225.706C289.683 225.533 286.22 223.025 285.59 223.118C284.962 223.212 283.033 223.094 283.033 223.094L282.895 217.015Z" fill="#F1B99E"/>
        <path d="M209.868 166.147C209.868 166.147 213.415 172.738 211.657 173.766C210.205 174.612 213.36 181.078 213.772 182.137C214.186 183.197 211.14 183.963 210.492 184.643C209.849 185.32 207.93 193.693 205.425 193.945C202.922 194.198 191.627 190.261 188.554 187.052C185.479 183.845 182.955 169.365 185.009 163.26C187.062 157.152 203.614 154.633 209.868 166.147Z" fill="#F1B99E"/>
        <path d="M211.202 169.024C211.202 169.024 215.022 158.093 208.758 155.971C200.779 153.266 188.926 159.163 187.557 159.517C186.193 159.87 178.442 160.403 182.355 174.051C185.716 185.769 186.187 186.265 186.187 186.265C186.187 186.265 188.696 179.477 190.115 178.442C192.337 176.826 197.204 177.215 197.204 177.215C197.204 177.215 194.882 171.041 198.51 170.166C202.131 169.293 202.574 174.526 211.202 169.024Z" fill="#0B4870"/>
        <path d="M193.343 173.68C193.024 172.832 191.992 169.192 188.873 171.33C185.758 173.466 190.814 180.331 191.359 180.416C191.903 180.504 196.033 180.805 193.343 173.68Z" fill="#EEA886"/>
        <path d="M201.269 195.389C201.269 195.66 201.272 195.927 201.278 196.195C192.045 193.087 190.259 188.411 190.259 188.411C193.134 190.452 201.291 193.179 201.291 193.179C201.272 193.857 201.259 194.621 201.269 195.389Z" fill="#A77860"/>
        <path d="M100.463 259.345C101.216 261.878 100.986 265.735 100.619 269.864C96.2099 270.337 95.3945 268.5 95.3945 268.5C96.4398 267.101 97.8937 262.205 99.4351 255.774C99.7696 256.984 100.123 258.179 100.463 259.345Z" fill="#0E538C"/>
        <path d="M280.616 228.786C273.734 250.005 277.364 276.881 276.25 281.344C274.878 286.842 276.336 288.566 276.336 288.566C269.948 290.011 265.63 287.812 261.392 284.153C261.017 283.837 260.654 283.511 260.297 283.164C254.721 277.859 250.827 270.19 247.869 265.691C246.227 263.193 243.186 260.204 239.777 257.268C238.99 256.589 238.177 255.911 237.354 255.242C230.257 249.455 222.575 244.37 222.575 244.37L223.772 258.444C223.772 258.444 229.822 298.844 233.657 349.048C234.674 373.185 235.987 394.944 236.574 407.901C236.586 407.945 236.586 407.988 236.586 408.03C236.662 412.11 236.704 416.177 236.713 420.223C236.685 420.28 236.654 420.337 236.601 420.394C236.601 421.968 236.592 423.487 236.573 423.487C231.772 422.138 224.774 422.995 224.569 423.007C224.55 423.013 224.533 423.032 224.517 423.047C222.932 424.086 203.794 424.876 198.185 424.981C193.229 425.067 183.731 423.794 180.691 423.409C180.253 423.35 179.944 423.314 179.807 423.297C179.124 423.228 175.168 423.399 171.509 423.478H171.27C171.262 423.478 171.262 423.478 171.252 423.478C169.137 423.512 167.151 423.512 165.986 423.409C162.801 423.117 161.592 415.287 161.592 415.287C161.045 416.915 158.477 421.785 157.783 423.093C157.669 423.297 157.612 423.409 157.612 423.409C153.378 423.264 150.312 422.927 149.544 422.283C148.834 421.673 149.508 414.7 150.922 404.577V404.568C150.956 398.256 154.74 351.966 158.074 312.237C160.087 288.204 161.938 266.566 162.69 257.617L159.562 242.427C159.562 242.427 157.439 243.801 154.476 245.716C153.545 246.316 152.524 246.968 151.473 247.658C149.354 249.032 147.07 250.516 144.937 251.907C143.765 252.669 141.982 253.634 139.781 254.714C130.516 259.275 114.013 265.963 106.339 268.481C104.497 262.855 106.265 253.514 104.131 250.878C103.199 249.727 102.547 247.134 102.074 243.776C103.232 238.135 104.328 232.262 105.235 226.972C106.168 221.535 106.905 216.719 107.282 213.413C107.394 212.39 107.479 211.515 107.531 210.802C107.633 209.299 107.616 207.967 107.514 206.808C107.156 202.678 105.725 200.582 104.737 199.614C104.172 199.056 103.752 198.867 103.752 198.867C103.752 198.867 104.309 198.436 105.318 198.343C106.962 198.189 109.842 198.875 113.584 203.572C116.418 207.128 121.215 211.902 125.685 216.075C130.094 220.197 134.19 223.717 135.748 224.885C135.986 225.074 136.176 225.196 136.277 225.255C146.433 218.995 157.036 211.105 165.547 205.865C168.493 204.054 171.182 202.56 173.527 201.554C176.148 200.439 186.425 197.381 186.425 197.381L187.683 197.501C187.751 198.446 187.761 198.918 187.761 198.918C191.227 201.407 196.298 201.828 199.348 201.417C201.078 201.177 202.157 200.67 201.92 200.113C201.84 199.923 201.652 199.383 201.523 198.869L202.705 198.979L202.902 198.997C210.086 200.397 217.103 204.715 224.483 209.232C238.861 218.025 248.402 230.2 251.216 230.39C254.164 228.603 256.87 227.015 259.353 225.615C260.886 224.748 262.342 223.959 263.72 223.229C283.615 212.641 287.22 215.372 287.22 215.372C284.343 219.315 282.203 223.9 280.616 228.786Z" fill="#C28FFF"/>
        <path d="M224.577 423.043C224.558 423.043 224.533 423.043 224.516 423.051C224.533 423.034 224.55 423.015 224.567 423.011C224.569 423.015 224.577 423.034 224.577 423.043Z" fill="url(#paint0_linear)"/>
        <path d="M94.9385 214.349C94.9385 214.349 100.155 279.097 105.53 290.253C105.182 290.253 107.756 293.113 107.756 293.113L118.387 347.893C118.387 347.893 122.386 350.34 124.38 345.757C124.093 346.043 114.605 292.532 113.461 289.958C112.315 287.381 109.873 286.381 108.801 280.302C107.733 274.224 99.9065 216.048 99.6918 213.796C99.4732 211.538 94.9385 214.349 94.9385 214.349Z" fill="#0B4870"/>
        <path d="M224.643 149.642C224.008 150.353 223.381 151.046 222.733 151.709C222.567 151.868 222.4 152.037 222.238 152.205C222.041 152.403 221.832 152.601 221.626 152.801L221.594 152.84C221.402 153.019 221.21 153.2 221.026 153.381C219.79 154.541 218.534 155.609 217.28 156.592C217.082 156.739 216.885 156.883 216.696 157.028C216.364 157.278 216.031 157.522 215.702 157.762C215.425 157.96 215.142 158.162 214.86 158.355C214.568 158.547 214.273 158.751 213.971 158.951C213.659 159.155 213.348 159.351 213.036 159.546C212.893 159.633 212.732 159.74 212.589 159.828C212.428 159.917 212.285 160.012 212.124 160.104C211.82 160.289 211.514 160.468 211.215 160.645C210.909 160.813 210.603 160.982 210.295 161.15C210.25 161.183 210.206 161.196 210.17 161.228C207.908 162.452 205.635 163.477 203.377 164.371C203.073 164.487 202.76 164.615 202.438 164.733C194.376 167.786 186.466 169.207 179.579 171.93C178.961 172.173 178.374 172.439 177.805 172.725C177.575 172.834 177.359 172.948 177.14 173.07C176.705 173.255 176.298 173.445 175.916 173.642C172.153 175.618 164.199 181.989 161.096 184.695C161.624 183.544 163.686 181.699 165.862 179.871C165.879 179.862 165.887 179.852 165.902 179.841C167.463 178.534 169.078 177.247 170.23 176.253C170.486 176.03 170.716 175.816 170.918 175.627C171.48 175.105 172.005 174.606 172.507 174.126C172.522 174.116 172.537 174.097 172.552 174.086C176.123 170.671 178.081 168.54 178.281 167.719C178.645 166.236 175.122 160.436 174.956 160.171C174.928 160.209 174.725 160.573 174.388 161.12C173.244 163.004 170.68 167.157 169.289 168.649C167.639 170.4 167.86 169.785 167.039 170.617C166.948 170.705 166.833 170.755 166.704 170.762C161.058 164.773 169.986 144.594 175.58 139.429C175.806 139.227 176.017 139.054 176.234 138.913C187.622 131.982 195.46 142.747 201.173 149.817C202.682 151.685 204.029 153.287 205.266 154.255C211.202 158.901 224.643 149.642 224.643 149.642Z" fill="#C28FFF"/>
        <path d="M98.9915 208.849C99.2956 209.859 99.5236 211.593 99.6947 213.784C98.7254 214.318 97.6231 214.661 96.4447 214.604C95.7415 215.214 95.6256 215.824 94.7913 215.652C94.5993 214.432 93.5559 213.041 93.3658 211.841V211.784C93.2898 211.46 93.2499 211.136 93.1948 210.831C93.0428 209.973 92.9097 209.154 92.7577 208.315C92.7577 208.239 92.7387 208.163 92.7197 208.087C92.5486 207.038 92.3586 206.009 92.1875 204.999C92.1685 204.79 92.1115 204.58 92.0925 204.39C91.9975 203.951 91.9404 203.513 91.8644 203.094C91.7884 202.655 91.7124 202.236 91.6363 201.798C91.2942 199.911 90.9712 198.177 90.7051 196.615C90.6101 196.1 90.515 195.604 90.439 195.147C90.363 194.804 90.3059 194.48 90.247 194.175C90.1159 193.432 90 192.765 89.8878 192.174C87.018 191.584 82.7208 190.097 80.5371 186.495C80.5371 186.495 80.5561 186.495 80.5751 186.515C80.5751 186.515 80.5751 186.515 80.596 186.515C81.3544 186.743 90.5169 188.973 91.0491 189.106C91.0681 189.106 91.0681 189.106 91.0681 189.106V189.087L90.1558 179.33L93.9968 188.344C93.9968 188.344 93.9968 188.344 94.0158 188.325C94.4149 187.925 100.801 181.426 101.352 180.035C101.352 180.035 101.352 180.073 101.371 180.169V180.226C101.447 181.331 101.523 187.124 95.7073 191.031C95.7643 191.393 95.8233 191.774 95.8803 192.174C95.9544 192.765 96.0513 193.413 96.1635 194.099C96.2395 194.69 96.3345 195.3 96.4295 195.928C96.6215 197.053 96.8096 198.215 97.0016 199.378C97.2088 200.54 97.4007 201.703 97.6079 202.808C97.6478 202.979 97.6839 203.151 97.7238 203.322C98.1362 205.476 98.5753 207.439 98.9915 208.849Z" fill="#0B4870"/>
        <path d="M90.194 208.151C90.5494 209.836 92.6077 209.295 94.6052 208.5C96.2206 207.858 97.8969 207.242 97.8133 205.975C97.6232 203.141 89.5858 205.262 90.194 208.151Z" fill="#FFC393"/>
        <path d="M91.1299 210.067C92.044 213.219 98.371 209.544 97.8901 207.987C97.4131 206.429 90.2993 207.22 91.1299 210.067Z" fill="#FFC393"/>
        <path d="M92.1592 212.677C92.9479 215.395 98.3949 212.228 97.9806 210.886C97.5719 209.542 91.4465 210.225 92.1592 212.677Z" fill="#FFC393"/>
        <path d="M89.4782 205.455C90.3943 208.607 96.7193 204.933 96.2385 203.374C95.7633 201.815 88.6496 202.61 89.4782 205.455Z" fill="#FFC393"/>
        <path d="M380.392 281.028C381.685 281.058 356.432 285.639 363.369 292.098C370.306 298.558 407.502 293.26 410.587 303.697C413.677 314.138 387.979 318.333 386.824 321.595C385.665 324.856 445.809 318.47 435.005 342.5C427.832 358.464 422.779 357.831 409.513 358.76C396.249 359.688 337.315 353.843 338.35 343.406C339.386 332.964 328.538 311.4 361.33 312.669C373.638 313.147 387.928 306.987 377.954 305.618C368.835 304.364 347.895 303.825 350.407 295.446C352.924 287.065 362.951 280.648 380.392 281.028Z" fill="#C28FFF"/>
        <path d="M430.169 317.898C431.12 317.898 431.891 317.125 431.891 316.172C431.891 315.218 431.12 314.445 430.169 314.445C429.218 314.445 428.447 315.218 428.447 316.172C428.447 317.125 429.218 317.898 430.169 317.898Z" fill="#2A94F4"/>
        <path d="M402.152 281.538C404.411 281.538 406.243 279.701 406.243 277.435C406.243 275.17 404.411 273.333 402.152 273.333C399.892 273.333 398.06 275.17 398.06 277.435C398.06 279.701 399.892 281.538 402.152 281.538Z" fill="#C28FFF"/>
        <path d="M340.123 272.214C341.613 272.214 342.821 271.002 342.821 269.508C342.821 268.013 341.613 266.802 340.123 266.802C338.632 266.802 337.424 268.013 337.424 269.508C337.424 271.002 338.632 272.214 340.123 272.214Z" fill="#0E538C"/>
        <path d="M366.831 257.988L371.524 255.654L370.761 250.457L375.188 259.406L372.755 264.062L371.995 258.867L366.831 257.988Z" fill="#0E538C"/>
        <path d="M374.426 254.211L379.122 251.877L376.69 256.53L380.356 260.288L375.188 259.406L370.762 250.457L374.426 254.211Z" fill="#0E538C"/>
        <path d="M420.284 290.604L422.968 289.272L422.533 286.301L425.064 291.417L423.673 294.079L423.238 291.109L420.284 290.604Z" fill="#0E538C"/>
        <path d="M424.627 288.446L427.31 287.111L425.921 289.771L428.017 291.92L425.064 291.417L422.532 286.301L424.627 288.446Z" fill="#0E538C"/>
        <path d="M320.604 305.988L323.286 304.654L322.847 301.681L325.383 306.802L323.991 309.46L323.556 306.489L320.604 305.988Z" fill="#C28FFF"/>
        <path d="M324.947 303.827L327.629 302.495L326.239 305.157L328.337 307.303L325.382 306.802L322.847 301.681L324.947 303.827Z" fill="#C28FFF"/>
        <path d="M446.039 363.596C446.039 400.101 416.539 429.692 380.13 429.692C343.725 429.692 314.211 400.103 314.211 363.596C314.211 354.075 316.231 345.039 319.861 336.86C318.951 336.118 318.521 335.295 318.521 334.373C318.521 330.939 324.569 328.804 338.751 327.238C349.837 326.009 364.528 325.334 380.13 325.334C395.724 325.334 410.421 326.009 421.507 327.238C435.685 328.804 441.734 330.939 441.734 334.373C441.734 335.293 441.303 336.118 440.394 336.86C444.019 345.037 446.039 354.075 446.039 363.596Z" fill="#0E538C"/>
        <path d="M336.625 413.231L332.3 433.951C332.3 433.951 334.455 436.686 340.276 435.148L347.945 421.277C343.889 418.994 340.1 416.293 336.625 413.231Z" fill="#0E538C"/>
        <path d="M423.679 413.189C420.21 416.255 416.415 418.959 412.357 421.248L420.041 435.148C425.865 436.686 428.018 433.951 428.018 433.951L423.683 413.189H423.679Z" fill="#0E538C"/>
        <defs>
        <linearGradient id="paint0_linear" x1="224.548" y1="423.009" x2="224.548" y2="423.051" gradientUnits="userSpaceOnUse">
        <stop stop-color="#250027"/>
        <stop offset="1" stop-color="#450074"/>
        </linearGradient>
        </defs>
        </svg>