<svg width="661" height="598" viewBox="0 0 661 598" fill="none" xmlns="http://www.w3.org/2000/svg">
<path d="M597.391 298.607C621.17 298.607 640.448 279.319 640.448 255.526C640.448 231.733 621.17 212.445 597.391 212.445C573.611 212.445 554.334 231.733 554.334 255.526C554.334 279.319 573.611 298.607 597.391 298.607Z" stroke="#C1C1C1" stroke-miterlimit="10" stroke-dasharray="12.28 12.28"/>
<path d="M496.062 93.5757C513.707 99.5586 531.248 106.858 543.593 118.322C555.937 129.786 562.119 146.265 554.713 160.056C544.823 178.476 513.487 189.187 513.34 209.144C513.236 223.437 530.238 234.344 547.406 239.543C564.567 244.736 583.571 246.61 599.184 254.203C622.741 265.661 633.789 287.841 638.312 309.122C643.006 331.216 641.102 356.373 620.948 372.405C595.897 392.332 554.462 390.085 518.995 385.835C471.666 380.164 424.545 373.501 377.437 366.845C274.162 352.246 170.887 337.64 67.6114 323.041C56.5397 321.473 45.015 319.765 36.0181 314.517C18.1527 304.1 16.6349 282.593 27.0211 267.241C37.4074 251.888 56.6192 241.46 75.7025 232.427C94.7859 223.4 114.934 214.864 129.231 201.532C143.522 188.201 150.634 168.47 139.82 153.295C130.657 140.441 110.968 133.57 102.387 120.478C91.0769 103.227 104.089 81.1933 124.61 70.1827C145.132 59.1721 402.836 61.9523 496.062 93.5757Z" fill="#F7F7F7"/>
<path d="M536.697 285.49L528.893 287.045L527.773 281.429C527.014 277.608 523.477 275.085 519.896 275.796L481.43 283.475C477.849 284.191 475.548 287.878 476.313 291.699L477.433 297.315L469.63 298.87C468.742 299.048 468.173 299.966 468.357 300.909L476.527 341.908C476.717 342.851 477.598 343.482 478.486 343.304L545.565 329.918C546.453 329.74 547.022 328.822 546.838 327.879L538.667 286.88C538.465 285.943 537.584 285.312 536.697 285.49ZM527.033 287.419L479.282 296.947L478.162 291.332C477.617 288.6 479.257 285.967 481.815 285.459L520.282 277.78C522.84 277.271 525.368 279.072 525.913 281.803L527.033 287.419Z" fill="#C28FFF"/>
<path d="M511.126 312.453L503.115 314.051L469.141 303.402L469.367 303.077L503.2 313.684L510.906 312.147L538.087 289.36L538.417 289.574L511.126 312.453Z" fill="white"/>
<path d="M327.483 221.239C327.483 221.239 320.108 218.808 318.658 219.659C317.207 220.51 309.716 230.59 309.716 230.59L319.747 235.379L331.107 228.006L327.483 221.239Z" fill="#FCD2B1"/>
<path d="M504.509 270.37C504.509 270.37 510.519 282.556 509.258 284.73C507.991 286.91 494.386 289.36 494.386 289.36L490.744 277.137L497.238 270.364H504.509V270.37Z" fill="#FCD2B1"/>
<path d="M400.169 465.989L368.459 476.283H407.06V465.989H400.169Z" fill="#0A3951"/>
<path d="M478.76 465.989L449.799 476.283H488.076L486.111 465.989H478.76Z" fill="#0A3951"/>
<path d="M416.32 255.048L396.307 470.68H409.214C409.214 470.68 439.902 381.174 429.663 369.331C432.955 354.664 453.918 296.561 449.076 290.358C444.235 284.154 435.361 251.766 435.361 251.766L416.32 255.048Z" fill="#083047"/>
<path d="M421.094 260.86L431.498 275.196L474.402 470.68H488.032C488.032 470.68 489.165 372.613 479.396 360.231C475.492 338.075 473.643 262.709 470.761 254.448C457.736 253.799 423.542 249.782 423.542 249.782L421.094 260.86Z" fill="#0A3951"/>
<path d="M493.834 155.248C487.188 144.801 467.927 145.762 453.214 144.378C448.954 143.98 445.398 142.186 442.374 141.776L422.342 147.814C421.192 148.059 405.095 149.241 403.253 150.349C403.033 150.606 385.596 211.992 327.36 220.161C327.972 224.447 327.36 230.571 327.36 230.571C327.36 230.571 387.334 232.31 406.185 197.16C410.322 235.66 416.32 255.048 416.32 255.048L471.403 257.473C471.403 257.473 474.243 198.733 480.363 185.261C512.189 205.47 494.44 272.219 494.44 272.219C494.44 272.219 496.888 273.444 504.845 272.219C523.212 225.672 502.403 168.721 493.834 155.248Z" fill="white"/>
<path d="M429.662 153.564L436.076 162.726L449.076 142.927L444.351 139.939L429.662 153.564Z" fill="#F2F2F2"/>
<path d="M429.662 153.564L427.667 162.725L421.094 148.653L423.542 144.378L429.662 153.564Z" fill="#F2F2F2"/>
<path d="M428.323 160.386L429.664 164.532L423.17 236.211C423.17 236.211 431.463 269.243 432.02 267.222C432.577 265.201 440.705 238.887 440.705 238.887L433.305 164.636L433.954 160.343L429.67 153.558L428.323 160.386Z" fill="#C28FFF"/>
<path d="M444.375 87.4702C451.108 92.9816 454.168 105.842 451.108 112.578C448.047 119.314 440.091 122.988 437.031 126.663C430.91 119.314 422.342 114.415 422.342 114.415L426.626 96.0436L435.195 91.7569L444.375 87.4702Z" fill="#0E538C"/>
<path d="M423.566 130.079V146.001L429.687 155.187L444.376 141.561L438.561 113.361L423.566 130.079Z" fill="#FCD2B1"/>
<path d="M404.771 92.7792C406.485 111.83 397.378 130.281 407.63 136.087C409.919 138.971 432.956 142.149 435.814 133.49C438.672 124.831 445.955 100.287 440.233 92.7792C434.516 85.2714 404.771 92.7792 404.771 92.7792Z" fill="#FFE3CA"/>
<path d="M431.524 94.8188C430.299 99.7179 431.524 108.904 436.42 110.128C436.42 112.468 436.169 116.552 435.991 119.204C435.893 120.667 437.007 121.929 438.47 122.009C439.621 122.07 440.704 122.058 440.704 121.764C440.704 121.151 444.376 94.8188 444.376 94.8188H431.524Z" fill="#0E538C"/>
<path d="M445.427 115.042C446.391 111.448 445.406 108.061 443.229 107.477C441.051 106.892 438.505 109.332 437.541 112.925C436.578 116.519 437.562 119.905 439.74 120.49C441.918 121.074 444.464 118.635 445.427 115.042Z" fill="#FFE3CA"/>
<path d="M437.03 109.516L436.418 120.538L439.478 121.151L440.702 105.841L437.03 109.516Z" fill="#0E538C"/>
<path d="M444.596 95.9821C434.448 98.4377 424.074 99.9319 413.651 100.452C408.271 100.722 402.292 100.514 398.362 96.8272C395.125 93.7898 394.066 88.8172 395.278 84.5428C396.49 80.2684 399.733 76.7411 403.644 74.6406C407.555 72.5401 412.072 71.7685 416.509 71.8298C414.826 71.542 413.364 73.4893 413.694 75.1672C414.025 76.8452 415.61 78.0393 417.268 78.4619C418.927 78.8844 420.665 78.6884 422.373 78.5537C426.651 78.223 430.996 78.3026 435.152 79.3621C439.308 80.4154 443.445 82.6689 445.416 86.4841C447.387 90.2992 446.328 95.8045 442.441 97.6172" fill="#0E538C"/>
<path d="M41.6918 476.283H619.302C623.684 476.283 627.234 479.835 627.234 484.22V526.37C627.234 530.755 623.684 534.306 619.302 534.306H41.6918C37.3096 534.306 33.7598 530.755 33.7598 526.37V484.22C33.7598 479.835 37.3096 476.283 41.6918 476.283Z" fill="#F2F2F2"/>
<path d="M309.587 221.239C309.587 221.239 316.968 218.808 318.413 219.659C319.857 220.51 327.354 230.59 327.354 230.59L317.323 235.379L305.964 228.006L309.587 221.239Z" fill="#FCD2B1"/>
<path d="M132.561 270.37C132.561 270.37 126.551 288.313 127.812 291.522C129.078 294.731 142.684 298.338 142.684 298.338L141.417 284.357L144.9 289.917L146.485 284.357L139.838 270.376H132.561V270.37Z" fill="#FCD2B1"/>
<path d="M236.907 465.989L268.617 476.283H230.01V465.989H236.907Z" fill="#0A3951"/>
<path d="M158.315 465.989L187.277 476.283H149L150.965 465.989H158.315Z" fill="#0A3951"/>
<path d="M219.305 257.638L240.763 470.68H227.855C227.855 470.68 197.167 381.174 207.407 369.331C204.114 354.664 183.151 296.561 187.993 290.358C192.834 284.154 201.708 251.766 201.708 251.766L219.305 257.638Z" fill="#083047"/>
<path d="M215.982 260.86L205.577 275.196L162.673 470.68H149.043C149.043 470.68 147.911 372.613 157.679 360.231C161.584 338.075 164.02 260.86 171.187 255.648C184.211 254.999 213.533 249.782 213.533 249.782L215.982 260.86Z" fill="#0A3951"/>
<path d="M220.358 283.849L206.893 254.454L179.963 283.849L167.722 261.803C167.722 261.803 162.826 198.728 156.706 185.255C124.88 205.464 142.629 272.213 142.629 272.213C142.629 272.213 140.181 273.438 132.224 272.213C113.863 225.672 134.672 168.721 143.241 155.249C149.888 144.801 169.412 142.456 184.125 141.072C188.385 140.674 194.383 144.091 197.406 143.681C197.406 143.681 211.085 143.221 222.714 146.455L222.726 146.461C227.745 147.857 231.98 149.241 233.822 150.349C237.495 154.636 220.358 283.849 220.358 283.849Z" fill="#0E538C"/>
<path d="M233.823 150.35C233.823 150.35 244.227 210.975 309.715 220.161C309.103 224.448 309.715 230.572 309.715 230.572C309.715 230.572 246.675 232.409 229.538 194.441C224.03 158.311 233.823 150.35 233.823 150.35Z" fill="#0E538C"/>
<path d="M219.305 145.536L207.688 218.403L184.125 141.072C188.385 140.674 192.241 140.349 195.264 139.939L219.305 145.536Z" fill="white"/>
<path d="M192.718 85.8472C185.986 91.3586 182.926 104.219 185.986 110.955C189.046 117.691 197.003 121.365 200.063 125.04C206.183 117.691 214.752 112.792 214.752 112.792L210.467 94.4205L201.899 90.1338L192.718 85.8472Z" fill="#0E538C"/>
<path d="M213.528 128.457V144.379L207.408 153.564L192.719 139.939L198.533 111.739L213.528 128.457Z" fill="#FCD2B1"/>
<path d="M234.948 91.3585C233.112 111.567 234.336 134.225 231.888 137.287C229.44 140.349 204.959 140.349 201.898 131.163C198.838 121.978 190.882 99.3195 197.002 91.3585C203.123 83.3976 234.948 91.3585 234.948 91.3585Z" fill="#FFE3CA"/>
<path d="M205.572 93.1958C206.796 98.0949 205.572 107.281 200.675 108.505C200.675 110.845 200.926 114.929 201.104 117.581C201.202 119.044 200.088 120.306 198.625 120.386C197.474 120.447 196.391 120.435 196.391 120.141C196.391 119.528 192.719 93.1958 192.719 93.1958H205.572Z" fill="#0E538C"/>
<path d="M197.373 118.896C199.551 118.311 200.535 114.924 199.572 111.331C198.609 107.737 196.062 105.298 193.884 105.883C191.707 106.467 190.722 109.854 191.686 113.447C192.649 117.041 195.196 119.48 197.373 118.896Z" fill="#FFE3CA"/>
<path d="M200.063 107.893L200.675 118.916L197.615 119.528L196.391 104.219L200.063 107.893Z" fill="#0E538C"/>
<path d="M202.725 94.0838C206.238 96.8824 210.902 98.1929 215.352 97.6295C218.877 97.1825 222.225 95.6332 225.775 95.5474C228.492 95.4801 231.148 96.2823 233.854 96.5395C236.975 96.8334 240.255 96.3619 242.893 94.6656C245.531 92.9693 247.404 89.9197 247.178 86.7904C246.865 82.4241 242.636 79.1601 238.315 78.4497C233.994 77.7394 229.624 78.9764 225.426 80.2257C221.233 81.4688 216.876 82.7487 212.549 82.1179C209.519 81.677 206.685 80.3114 203.662 79.8092C200.387 79.2581 196.942 79.7602 193.961 81.2177C191.709 82.32 189.689 83.9918 188.446 86.178C187.204 88.3642 186.825 91.0771 187.688 93.4347C188.465 95.5536 190.191 97.2499 192.211 98.2542C194.23 99.2585 196.525 99.6136 198.784 99.5708L202.725 94.0838Z" fill="#0E538C"/>
<path d="M207.407 153.564L200.999 162.726L187.999 142.927L192.718 139.939L207.407 153.564Z" fill="#F2F2F2"/>
<path d="M207.407 153.565L209.402 162.726L215.982 148.653L213.528 144.379L207.407 153.565Z" fill="#F2F2F2"/>
<path d="M208.748 159.725L207.407 163.467L212.965 185.286C212.965 185.286 208.24 220.228 207.683 218.403C207.126 216.578 197.144 183.804 197.144 183.804L203.772 163.559L203.123 159.688L207.407 153.564L208.748 159.725Z" fill="#C28FFF"/>
<path d="M310.793 233.505C311.974 231.851 315.524 227.424 315.524 227.424L324.509 233.505L318.364 237.528L310.793 233.505Z" fill="#FFE3CA"/>
<path d="M327.605 221.239C327.605 221.239 323.003 219.004 319.912 218.808C316.821 218.612 312.751 223.015 312.751 223.015C312.751 223.015 312.88 223.805 314.526 223.805C316.166 223.805 319.453 222.225 319.453 222.225L327.746 225.703L327.605 221.239Z" fill="#FFE3CA"/>
<path d="M561.384 37.1631H489.892C475.736 37.1631 464.156 48.7432 464.156 62.8953C464.156 72.7853 469.811 81.4076 478.043 85.7127L476.483 93.0551C476.483 93.0551 488.032 88.6276 489.892 88.6276H561.384C575.541 88.6276 587.121 77.0475 587.121 62.8953C587.121 48.7432 575.541 37.1631 561.384 37.1631Z" fill="#2A94F4"/>
<path d="M567.351 43.8564H495.859C481.703 43.8564 470.123 55.4366 470.123 69.5887C470.123 79.4787 475.778 88.101 484.01 92.406L482.449 99.7485C482.449 99.7485 493.999 95.321 495.859 95.321H567.351C581.508 95.321 593.087 83.7408 593.087 69.5887C593.087 55.4366 581.508 43.8564 567.351 43.8564Z" stroke="#2A94F4" stroke-miterlimit="10"/>
<path d="M173.69 55.6382H95.5265C92.2766 55.6382 89.6143 58.302 89.6143 61.5538V98.3028C89.6143 101.555 92.2766 104.218 95.5265 104.218H154.527L165.476 112.381L160.868 104.218H173.696C176.946 104.218 179.608 101.555 179.608 98.3028V61.5538C179.608 58.302 176.946 55.6382 173.69 55.6382Z" fill="#CCE9FF"/>
<path d="M171.553 59.4473H93.384C90.134 59.4473 87.4717 62.1111 87.4717 65.3629V102.112C87.4717 105.364 90.134 108.027 93.384 108.027H152.384L163.334 116.191L158.725 108.027H171.553C174.803 108.027 177.466 105.364 177.466 102.112V65.3629C177.466 62.1111 174.803 59.4473 171.553 59.4473Z" stroke="#CCE9FF" stroke-miterlimit="10"/>
<path d="M76.6947 483.865C89.9637 483.865 95.5638 473.264 97.7672 462.015C100.258 449.326 98.4282 435.823 98.4282 435.823H54.9613C54.9613 435.823 54.894 436.338 54.7961 437.256C53.9882 445.242 51.3686 483.865 76.6947 483.865Z" fill="#B6E7FF"/>
<path d="M54.9609 435.823C54.9609 436.773 64.6923 437.544 76.7005 437.544C88.7025 437.544 98.4401 436.773 98.4401 435.823C98.4401 434.874 88.7087 434.103 76.7005 434.103C64.6923 434.103 54.9609 434.874 54.9609 435.823Z" fill="#85DDFF"/>
<path d="M17.835 315.239C17.835 315.239 40.7619 350.139 54.5143 371.437C68.2668 392.736 71.8717 397.157 73.5059 404.041C75.1461 410.924 76.615 436.313 76.615 436.313H77.631C77.631 436.313 77.276 414.757 76.0397 407.507C74.8401 400.495 76.1254 397.978 77.1107 390.605C78.0961 383.232 79.4059 371.437 71.9513 363.244C64.5028 355.05 66.4674 347.022 63.8479 341.62C61.2284 336.213 40.921 329.661 38.3015 324.088C35.682 318.515 24.2246 315.074 17.835 315.239Z" fill="#2A94F4"/>
<path d="M17.835 315.239C17.835 315.239 25.0386 323.432 29.9533 326.219C34.868 329.005 37.157 326.543 40.921 333.261C44.685 339.979 44.8319 342.931 48.2777 346.366C51.7234 349.808 55.818 349.973 56.1485 357.505C56.479 365.044 54.5143 371.431 54.5143 371.431C54.5143 371.431 19.31 317.039 17.835 315.239Z" fill="#41AAF7"/>
<path d="M74.8031 436.313H73.7749C73.7749 436.313 73.4689 429.338 70.6964 425.952C68.9092 423.765 61.32 421.285 53.8225 418.309C49.6912 416.674 45.5906 414.886 42.4937 412.914C33.7722 407.372 25.4607 389.515 24.7507 386.331C24.4998 385.222 24.3896 384.549 24.3957 384.089V384.077C24.4141 383.22 24.8364 383.091 25.5709 382.228C25.9258 381.811 26.9847 381.952 28.2822 382.35C32.0401 383.495 35.2166 386.073 37.1812 389.478C38.999 392.626 41.9061 396.563 45.4682 397.519C51.6253 399.16 51.1112 400.183 53.3818 406.447C55.6464 412.712 61.3689 413.735 68.5481 421.12C75.7273 428.511 74.8031 436.313 74.8031 436.313Z" fill="#2A94F4"/>
<path d="M53.8225 418.309C49.6912 416.674 45.5906 414.886 42.4937 412.914C33.7722 407.372 25.4607 389.515 24.7507 386.33C24.4998 385.222 24.3896 384.548 24.3957 384.089C24.4202 384.297 24.8242 387.126 29.3716 389.006C34.0843 390.954 35.0085 390.954 35.6266 393.93C36.2448 396.906 36.7589 400.09 39.2193 400.703C41.6797 401.321 43.222 398.547 45.1622 403.06C47.1146 407.574 48.0449 409.117 49.832 409.729C51.6253 410.348 52.984 409.423 53.3818 412.914C53.6205 415.045 53.7552 417.066 53.8225 418.309Z" fill="#41AAF7"/>
<path d="M82.3438 436.313H83.5618C83.5618 436.313 85.9426 393.109 89.217 389.098C91.3285 386.508 98.3057 381.872 107.193 378.345C112.083 376.404 116.948 374.291 120.614 371.958C130.946 365.393 140.787 344.241 141.632 340.469C141.932 339.159 142.06 338.363 142.054 337.811V337.799C142.03 336.783 141.528 336.629 140.665 335.613C140.249 335.117 138.988 335.288 137.452 335.76C132.996 337.119 129.238 340.169 126.912 344.205C124.758 347.934 121.312 352.6 117.095 353.727C109.806 355.675 110.412 356.887 107.719 364.303C105.038 371.719 98.2568 372.931 89.7556 381.682C81.2483 390.433 82.3438 436.313 82.3438 436.313Z" fill="#2A94F4"/>
<path d="M107.192 378.345C112.083 376.404 116.948 374.291 120.614 371.958C130.946 365.393 140.787 344.242 141.632 340.469C141.932 339.159 142.06 338.363 142.054 337.812C142.023 338.063 141.546 341.406 136.166 343.629C130.584 345.932 129.489 345.932 128.761 349.465C128.032 352.986 127.42 356.759 124.507 357.487C121.594 358.216 119.77 354.934 117.462 360.28C115.149 365.626 114.053 367.451 111.93 368.18C109.806 368.908 108.196 367.812 107.725 371.952C107.431 374.481 107.272 376.875 107.192 378.345Z" fill="#41AAF7"/>
<path d="M76.6947 483.865C89.9637 483.865 95.5639 473.264 97.7672 462.015C84.7614 457.079 68.3833 449.173 54.7961 437.256C53.9882 445.242 51.3686 483.865 76.6947 483.865Z" fill="#CCE9FF"/>
<path d="M585.377 485.487C594.16 485.487 597.863 478.469 599.326 471.023C600.972 462.627 599.766 453.686 599.766 453.686H570.995C570.995 453.686 570.952 454.029 570.884 454.635C570.346 459.926 568.614 485.487 585.377 485.487Z" fill="#B6E7FF"/>
<path d="M570.988 453.692C570.988 454.323 577.427 454.831 585.377 454.831C593.322 454.831 599.766 454.323 599.766 453.692C599.766 453.061 593.328 452.553 585.377 452.553C577.433 452.553 570.988 453.061 570.988 453.692Z" fill="#85DDFF"/>
<path d="M538.195 358.087C538.195 358.087 556.361 385.736 567.255 402.614C578.155 419.491 581.007 422.994 582.305 428.444C583.602 433.894 584.771 454.017 584.771 454.017H586.197C586.197 454.017 587.103 437.011 585.42 431.432C583.731 425.853 584.38 423.643 585.163 417.801C585.94 411.959 586.981 402.614 581.075 396.122C575.175 389.631 576.729 383.275 574.654 378.988C572.58 374.701 556.489 369.514 554.414 365.099C552.339 360.684 543.257 357.959 538.195 358.087Z" fill="#2A94F4"/>
<path d="M542.168 358.087C542.168 358.087 547.878 364.579 551.771 366.783C555.663 368.988 557.481 367.04 560.462 372.362C563.448 377.684 563.559 380.023 566.294 382.748C569.024 385.473 572.268 385.602 572.531 391.572C572.788 397.543 571.234 402.608 571.234 402.608C571.234 402.608 543.337 359.514 542.168 358.087Z" fill="#41AAF7"/>
<path d="M590.812 453.692L591.852 453.38C591.852 453.38 590.047 446.227 591.828 441.959C592.972 439.203 599.901 434.39 606.59 429.105C610.275 426.196 613.886 423.141 616.426 420.207C623.574 411.952 626.567 391.358 626.328 387.916C626.249 386.716 626.157 386.006 626.01 385.54L626.004 385.528C625.729 384.665 625.257 384.665 624.254 384.016C623.77 383.697 622.736 384.169 621.548 384.965C618.09 387.267 615.661 390.837 614.7 394.879C613.812 398.621 612.062 403.489 608.751 405.528C603.022 409.062 603.848 409.938 603.444 416.968C603.053 423.992 597.569 426.766 592.544 436.423C587.513 446.074 590.812 453.692 590.812 453.692Z" fill="#2A94F4"/>
<path d="M606.591 429.099C610.276 426.19 613.887 423.134 616.427 420.201C623.575 411.946 626.568 391.352 626.33 387.91C626.25 386.71 626.158 386 626.011 385.534C626.048 385.755 626.495 388.737 622.468 392.019C618.287 395.418 617.351 395.7 617.633 398.902C617.914 402.099 618.355 405.479 616.047 406.851C613.74 408.223 611.347 405.884 610.747 411.04C610.141 416.202 609.67 418.039 608.042 419.209C606.414 420.373 604.761 419.852 605.41 423.508C605.808 425.731 606.285 427.819 606.591 429.099Z" fill="#41AAF7"/>
<path d="M585.377 485.488C594.16 485.488 597.863 478.47 599.326 471.023C590.721 467.759 579.875 462.523 570.884 454.636C570.346 459.927 568.614 485.488 585.377 485.488Z" fill="#CCE9FF"/>
</svg>
