<svg width="594" height="376" viewBox="0 0 594 376" fill="none" xmlns="http://www.w3.org/2000/svg">
<path d="M328.689 17.0425C336.143 20.2881 343.13 23.8852 349.464 27.7186C371.606 41.1111 389.419 60.6101 411.178 74.0436C431.725 86.7273 456.816 89.8108 480.327 91.9296C521.309 95.6263 606.786 131.07 591.352 196.763C585.737 220.67 565.935 236.908 555.797 258.557C545.013 281.587 546.146 310.309 528.976 330.274C521.422 339.052 510.996 344.85 500.292 349.242C429.05 378.461 349.049 377.103 273.51 373.881C213.886 371.339 118.124 384.774 65.754 351.967C39.7538 335.678 53.2745 291.15 35.2832 267.235C20.1646 247.139 -0.411338 233.939 -10.5183 208.783C-27.7194 165.979 -3.20034 110.276 39.7266 95.0795C66.552 85.5848 94.9714 81.2339 121.489 70.8058C148.885 60.0282 159.442 43.8861 180.333 24.7815C218.102 -9.75428 282.385 -3.12637 328.689 17.0425Z" fill="#CCE9FF"/>
<path d="M268.382 334.063C268.382 334.063 268.382 334.323 268.382 334.746C268.423 334.325 268.382 334.063 268.382 334.063Z" fill="white"/>
<path d="M318.119 333.92C319.024 350.738 306.167 365.109 289.404 366.019C272.641 366.929 258.32 354.031 257.411 337.211C256.506 320.393 269.359 306.016 286.13 305.112C302.886 304.202 317.21 317.097 318.119 333.92Z" fill="#C28FFF"/>
<path d="M293.703 321.493C294.114 321.467 294.556 321.471 295.023 321.489C297.89 321.61 301.325 324.051 301.998 329.044L302.082 330.712C301.971 335.385 298.878 341.269 289.454 348.907C288.896 349.354 288.115 349.397 287.52 349.014C277.329 342.441 273.618 336.92 273.007 332.286L272.919 330.622C273.047 325.586 276.204 322.783 279.036 322.354C279.499 322.282 279.937 322.233 280.352 322.217C283.639 322.036 285.297 323.383 287.22 325.439C288.913 323.186 290.41 321.672 293.703 321.493Z" fill="white"/>
<path d="M125.154 211.074C130.729 211.074 135.249 206.539 135.249 200.944C135.249 195.35 130.729 190.815 125.154 190.815C119.578 190.815 115.059 195.35 115.059 200.944C115.059 206.539 119.578 211.074 125.154 211.074Z" fill="#C28FFF"/>
<path d="M121.215 197.763C122.207 197.296 122.883 197.503 123.731 197.898C123.974 196.99 124.249 196.336 125.236 195.871C125.36 195.812 125.498 195.756 125.642 195.705C126.54 195.384 127.9 195.707 128.729 197.16L128.961 197.662C129.508 199.112 129.288 201.313 127.334 204.844C127.215 205.049 126.983 205.16 126.748 205.117C122.795 204.368 120.969 203.131 120.207 201.782L119.971 201.28C119.385 199.714 120.01 198.458 120.829 197.972C120.964 197.89 121.092 197.82 121.215 197.763Z" fill="white"/>
<path d="M120.417 295.393C133.12 295.393 143.418 285.06 143.418 272.314C143.418 259.568 133.12 249.236 120.417 249.236C107.714 249.236 97.416 259.568 97.416 272.314C97.416 285.06 107.714 295.393 120.417 295.393Z" fill="#C28FFF"/>
<path d="M111.441 265.064C113.699 264.001 115.238 264.472 117.169 265.368C117.72 263.302 118.347 261.812 120.602 260.752C120.886 260.617 121.196 260.49 121.531 260.375C123.572 259.644 126.679 260.379 128.555 263.691L129.09 264.833C130.338 268.139 129.832 273.154 125.377 281.196C125.118 281.667 124.582 281.916 124.049 281.817C115.04 280.108 110.881 277.294 109.137 274.218L108.602 273.076C107.27 269.504 108.693 266.643 110.56 265.534C110.863 265.353 111.161 265.192 111.441 265.064Z" fill="white"/>
<path d="M172.63 255.833C182.591 255.833 190.666 247.73 190.666 237.736C190.666 227.741 182.591 219.639 172.63 219.639C162.669 219.639 154.594 227.741 154.594 237.736C154.594 247.73 162.669 255.833 172.63 255.833Z" fill="#2A94F4"/>
<path d="M164.276 243.944L164.481 243.169C165.394 239.706 168.967 237.622 172.418 238.54C175.868 239.456 177.941 243.042 177.028 246.502L176.824 247.277L164.276 243.944Z" fill="white"/>
<path d="M173.676 237.8C175.898 237.8 177.699 235.993 177.699 233.764C177.699 231.534 175.898 229.727 173.676 229.727C171.454 229.727 169.653 231.534 169.653 233.764C169.653 235.993 171.454 237.8 173.676 237.8Z" fill="white"/>
<path d="M87.7546 241.095C95.7626 241.095 102.254 234.581 102.254 226.546C102.254 218.511 95.7626 211.997 87.7546 211.997C79.7466 211.997 73.2549 218.511 73.2549 226.546C73.2549 234.581 79.7466 241.095 87.7546 241.095Z" fill="#2A94F4"/>
<path d="M85.2453 234.547L85.0136 233.945C83.9763 231.258 85.3212 228.21 87.9934 227.171C90.6695 226.13 93.7076 227.475 94.745 230.161L94.9766 230.764L85.2453 234.547Z" fill="white"/>
<path d="M86.5648 226.71C88.3502 226.71 89.7975 225.258 89.7975 223.466C89.7975 221.675 88.3502 220.223 86.5648 220.223C84.7794 220.223 83.332 221.675 83.332 223.466C83.332 225.258 84.7794 226.71 86.5648 226.71Z" fill="white"/>
<path d="M463.649 206.651C469.224 206.651 473.744 202.116 473.744 196.521C473.744 190.927 469.224 186.392 463.649 186.392C458.074 186.392 453.554 190.927 453.554 196.521C453.554 202.116 458.074 206.651 463.649 206.651Z" fill="#C28FFF"/>
<path d="M467.588 193.338C467.709 193.395 467.839 193.465 467.972 193.543C468.793 194.031 469.416 195.287 468.83 196.853L468.594 197.355C467.829 198.703 466.006 199.939 462.053 200.689C461.821 200.734 461.586 200.624 461.471 200.415C459.513 196.885 459.293 194.686 459.84 193.235L460.075 192.733C460.901 191.28 462.261 190.958 463.158 191.278C463.302 191.327 463.441 191.385 463.565 191.444C464.554 191.909 464.83 192.563 465.07 193.469C465.92 193.08 466.597 192.872 467.588 193.338Z" fill="white"/>
<path d="M468.388 290.97C481.092 290.97 491.391 280.636 491.391 267.889C491.391 255.142 481.092 244.809 468.388 244.809C455.684 244.809 445.385 255.142 445.385 267.889C445.385 280.636 455.684 290.97 468.388 290.97Z" fill="#C28FFF"/>
<path d="M477.362 260.637C477.645 260.767 477.94 260.926 478.244 261.109C480.111 262.218 481.531 265.079 480.202 268.651L479.667 269.793C477.925 272.867 473.764 275.683 464.754 277.392C464.223 277.491 463.686 277.241 463.427 276.771C458.976 268.729 458.47 263.714 459.714 260.408L460.249 259.266C462.131 255.954 465.233 255.217 467.273 255.948C467.608 256.067 467.915 256.192 468.201 256.327C470.459 257.387 471.082 258.879 471.634 260.941C473.565 260.047 475.105 259.576 477.362 260.637Z" fill="white"/>
<path d="M416.174 251.407C426.135 251.407 434.21 243.305 434.21 233.311C434.21 223.316 426.135 215.214 416.174 215.214C406.213 215.214 398.138 223.316 398.138 233.311C398.138 243.305 406.213 251.407 416.174 251.407Z" fill="#2A94F4"/>
<path d="M424.527 239.521L424.322 238.745C423.41 235.283 419.836 233.199 416.385 234.115C412.939 235.033 410.862 238.616 411.775 242.079L411.979 242.854L424.527 239.521Z" fill="white"/>
<path d="M415.126 233.375C417.348 233.375 419.149 231.568 419.149 229.339C419.149 227.109 417.348 225.302 415.126 225.302C412.905 225.302 411.104 227.109 411.104 229.339C411.104 231.568 412.905 233.375 415.126 233.375Z" fill="white"/>
<path d="M501.048 236.669C509.056 236.669 515.548 230.156 515.548 222.121C515.548 214.086 509.056 207.572 501.048 207.572C493.041 207.572 486.549 214.086 486.549 222.121C486.549 230.156 493.041 236.669 501.048 236.669Z" fill="#2A94F4"/>
<path d="M503.558 230.12L503.789 229.518C504.827 226.833 503.482 223.783 500.809 222.744C498.133 221.703 495.095 223.051 494.058 225.734L493.826 226.337L503.558 230.12Z" fill="white"/>
<path d="M502.238 222.285C504.023 222.285 505.47 220.833 505.47 219.041C505.47 217.25 504.023 215.798 502.238 215.798C500.452 215.798 499.005 217.25 499.005 219.041C499.005 220.833 500.452 222.285 502.238 222.285Z" fill="white"/>
<path d="M389.2 340.609C408.033 340.609 423.301 325.29 423.301 306.393C423.301 287.497 408.033 272.178 389.2 272.178C370.367 272.178 355.1 287.497 355.1 306.393C355.1 325.29 370.367 340.609 389.2 340.609Z" fill="#2A94F4"/>
<path d="M399.782 323.016L399.942 321.506C400.656 314.773 395.75 308.678 389.035 307.96C382.32 307.241 376.248 312.17 375.536 318.903L375.376 320.413L399.782 323.016Z" fill="white"/>
<path d="M390.02 306.301C394.222 306.301 397.628 302.884 397.628 298.668C397.628 294.452 394.222 291.034 390.02 291.034C385.818 291.034 382.412 294.452 382.412 298.668C382.412 302.884 385.818 306.301 390.02 306.301Z" fill="white"/>
<path d="M185.568 340.615C204.402 340.615 219.669 325.296 219.669 306.399C219.669 287.502 204.402 272.184 185.568 272.184C166.735 272.184 151.468 287.502 151.468 306.399C151.468 325.296 166.735 340.615 185.568 340.615Z" fill="#2A94F4"/>
<path d="M192.937 324.683L193.371 323.227C195.301 316.739 191.588 309.844 185.122 307.909C178.653 305.971 171.783 309.697 169.856 316.185L169.418 317.64L192.937 324.683Z" fill="white"/>
<path d="M195.074 301.138C193.869 305.179 189.634 307.477 185.61 306.272C181.585 305.067 179.292 300.814 180.497 296.776C181.69 292.737 185.933 290.437 189.957 291.642C193.986 292.847 196.275 297.098 195.074 301.138Z" fill="white"/>
<path d="M341.902 84.3976V287.332C341.902 288.595 340.88 289.622 339.617 289.622H235.91C234.649 289.622 233.629 288.597 233.629 287.332V84.3976C233.629 83.1458 234.647 82.1206 235.91 82.1206H339.617C340.88 82.1206 341.902 83.1478 341.902 84.3976Z" fill="#F2F2F2"/>
<path d="M240.561 93.609V267.106H334.97V93.609C334.97 92.7244 334.236 92.0214 333.335 92.0214H242.192C241.294 92.0214 240.561 92.7244 240.561 93.609Z" fill="#B3B3B3"/>
<path d="M287.765 284.184C291.143 284.184 293.882 281.436 293.882 278.046C293.882 274.656 291.143 271.908 287.765 271.908C284.386 271.908 281.647 274.656 281.647 278.046C281.647 281.436 284.386 284.184 287.765 284.184Z" fill="#D3D3D3"/>
<path d="M287.765 89.4378C289.054 89.4378 290.099 88.3894 290.099 87.0963C290.099 85.8032 289.054 84.7549 287.765 84.7549C286.476 84.7549 285.432 85.8032 285.432 87.0963C285.432 88.3894 286.476 89.4378 287.765 89.4378Z" fill="#4D4D4D"/>
<path d="M334.97 92.0214H240.561V267.106H334.97V92.0214Z" fill="#F2F2F2"/>
<path d="M267.37 259.463C267.705 258.934 267.906 258.305 267.906 257.631C267.906 255.731 266.37 254.192 264.48 254.192C262.586 254.192 261.051 255.731 261.051 257.631C261.051 259.531 262.586 261.07 264.48 261.07C265.321 261.07 266.076 260.756 266.674 260.254L267.906 260.578L267.37 259.463Z" fill="#0E538C"/>
<path d="M253.248 254.192C253.355 254.192 253.46 254.196 253.579 254.208C254.293 254.28 255.122 254.936 255.221 256.194V256.614C255.134 257.78 254.279 259.211 251.815 260.99C251.671 261.097 251.477 261.097 251.333 260.99C248.873 259.211 248.018 257.778 247.931 256.614V256.194C248.03 254.936 248.855 254.282 249.569 254.208C249.688 254.196 249.797 254.192 249.9 254.192C250.725 254.192 251.121 254.55 251.576 255.093C252.03 254.548 252.425 254.192 253.248 254.192Z" fill="#C28FFF"/>
<path d="M334.97 114.381H240.561V202.304H334.97V114.381Z" fill="#D3D3D3"/>
<path d="M334.974 131.055H240.561V249.244H334.974V131.055Z" fill="#FFE3CA"/>
<path d="M251.948 127.869C254.354 127.869 256.305 125.912 256.305 123.497C256.305 121.082 254.354 119.125 251.948 119.125C249.541 119.125 247.59 121.082 247.59 123.497C247.59 125.912 249.541 127.869 251.948 127.869Z" fill="#CCCCCC"/>
<path d="M298.962 121.366H259.003V125.629H298.962V121.366Z" fill="#CCCCCC"/>
<path d="M327.379 121.743C327.688 121.743 327.939 121.492 327.939 121.181C327.939 120.87 327.688 120.619 327.379 120.619C327.069 120.619 326.818 120.87 326.818 121.181C326.818 121.492 327.069 121.743 327.379 121.743Z" fill="#999999"/>
<path d="M327.379 124.059C327.688 124.059 327.939 123.808 327.939 123.497C327.939 123.186 327.688 122.935 327.379 122.935C327.069 122.935 326.818 123.186 326.818 123.497C326.818 123.808 327.069 124.059 327.379 124.059Z" fill="#999999"/>
<path d="M327.379 126.375C327.688 126.375 327.939 126.124 327.939 125.813C327.939 125.502 327.688 125.251 327.379 125.251C327.069 125.251 326.818 125.502 326.818 125.813C326.818 126.124 327.069 126.375 327.379 126.375Z" fill="#999999"/>
<path d="M291.224 257.342C292.061 257.342 292.74 256.661 292.74 255.821C292.74 254.981 292.061 254.3 291.224 254.3C290.387 254.3 289.708 254.981 289.708 255.821C289.708 256.661 290.387 257.342 291.224 257.342Z" fill="#D3D3D3"/>
<path d="M284.986 257.342C285.823 257.342 286.502 256.661 286.502 255.821C286.502 254.981 285.823 254.3 284.986 254.3C284.149 254.3 283.47 254.981 283.47 255.821C283.47 256.661 284.149 257.342 284.986 257.342Z" fill="#F2F2F2"/>
<path d="M254.021 106.496C255.074 106.496 255.928 105.639 255.928 104.582C255.928 103.525 255.074 102.668 254.021 102.668C252.967 102.668 252.113 103.525 252.113 104.582C252.113 105.639 252.967 106.496 254.021 106.496Z" fill="#0B4870"/>
<path d="M259.334 100.366H257.387L257.092 99.6843C256.932 99.3133 256.566 99.0751 256.163 99.0751H251.872C251.469 99.0751 251.103 99.3133 250.943 99.6843L250.647 100.366H248.701C248.086 100.366 247.588 100.866 247.588 101.485V107.677C247.588 108.294 248.086 108.796 248.701 108.796H259.334C259.949 108.796 260.451 108.294 260.451 107.677V101.485C260.453 100.866 259.951 100.366 259.334 100.366ZM254.02 107.355C252.492 107.355 251.253 106.109 251.253 104.582C251.253 103.051 252.492 101.805 254.02 101.805C255.544 101.805 256.784 103.051 256.784 104.582C256.784 106.109 255.544 107.355 254.02 107.355Z" fill="#0B4870"/>
<path d="M299.555 146.043C299.049 143.004 299.201 140.155 300.25 137.657C301.015 140.58 301.129 143.646 299.555 146.043Z" fill="#C28FFF"/>
<path d="M397.709 152.077C396.504 152.985 389.126 152.993 384.519 152.909C381.467 151.087 375.533 149.288 373.032 148.569C373.192 147.628 373.332 146.892 373.447 146.466C374.181 143.664 380.354 140.715 382.855 140.27C385.356 139.825 388.739 134.374 392.123 135.403C395.498 136.438 385.51 142.777 385.356 144.4C385.272 145.297 388.343 145.824 391.553 146.136H391.584C394.196 146.382 396.884 146.466 398.013 146.466C399.517 146.466 404.064 146.851 407.045 144.457C409.425 142.836 411.549 141.947 412.31 142.92C413.914 144.965 399.472 150.749 397.709 152.077Z" fill="#FED5B5"/>
<path d="M194.979 150.304L185.571 157.088C185.571 157.088 185.726 157.539 186.012 158.359C180.146 156.764 174.818 154.532 173.963 153.727C173.134 152.963 170.748 151.737 170.143 151.427C170.964 151.803 175.164 153.709 177.034 153.934C177.042 153.944 177.042 153.944 177.042 153.944C177.194 153.963 177.326 153.963 177.437 153.963C177.852 153.953 178.183 153.803 178.438 153.586C180.719 152.983 184.95 151.739 184.516 150.936C184.272 150.493 184.113 149.581 184.01 148.646C185.431 147.759 184.987 145.871 184.987 145.871L181.98 142.608C181.98 142.608 183.072 142.297 183.5 140.75C183.934 139.194 174.921 135.421 174.921 135.421C174.545 135.259 173.971 135.091 173.971 135.091C174.506 134.704 179.997 134.958 183.587 136.353C183.87 136.468 184.142 136.569 184.413 136.681C183.895 138.936 183.568 140.663 183.568 140.663C189.893 143.117 190.826 140.389 190.826 140.389C191.579 141.766 195.026 148.329 195.026 148.329C195.035 149.03 195.018 149.69 194.979 150.304Z" fill="#FED5B5"/>
<path d="M184.008 148.645C184.111 149.58 184.27 150.492 184.514 150.936C184.948 151.738 180.716 152.984 178.435 153.586C178.18 153.802 177.85 153.953 177.435 153.962C177.324 153.962 177.192 153.962 177.04 153.943C177.04 153.943 177.04 153.943 177.032 153.933C175.162 153.709 170.962 151.803 170.14 151.426C170.049 151.379 170 151.359 170 151.359C170 151.359 170 151.35 169.993 151.34C169.878 151.162 169.802 150.973 169.757 150.783C169.73 150.709 169.718 150.631 169.708 150.549C169.704 150.477 169.701 150.4 169.701 150.318C169.652 149.229 170.386 148.295 170.471 148.182C170.479 148.182 170.479 148.172 170.479 148.172C170.479 148.172 170.471 148.161 170.46 148.131C170.407 148.01 170.349 147.887 170.3 147.764C170.24 147.577 170.16 147.34 170.125 147.048C170.101 146.995 170.094 146.926 170.094 146.86C170.086 146.84 170.086 146.821 170.086 146.813C170.01 145.757 170.436 144.946 170.687 144.562C170.744 144.474 170.808 144.399 170.874 144.314C170.874 144.314 170.822 144.173 170.783 143.907C170.771 143.87 170.771 143.823 170.763 143.78C170.752 143.677 170.744 143.568 170.74 143.446C170.724 142.962 170.816 142.513 170.968 142.126C171.063 141.843 171.191 141.589 171.314 141.38C171.355 141.324 171.39 141.265 171.429 141.201C171.478 141.136 171.528 141.06 171.581 140.986C171.645 140.9 171.713 140.806 171.797 140.713C171.824 140.672 171.861 140.627 171.9 140.591C171.9 140.591 171.888 140.572 171.888 140.545C171.836 140.259 171.569 138.73 172.104 137.26C172.69 135.627 173.424 135.489 173.967 135.092C173.967 135.092 174.541 135.26 174.917 135.422C174.917 135.422 183.93 139.195 183.496 140.752C183.066 142.298 181.976 142.609 181.976 142.609L184.983 145.872C184.985 145.87 185.43 147.758 184.008 148.645Z" fill="#FED5B5"/>
<path d="M183.567 140.664C183.567 140.664 183.894 138.938 184.412 136.683C187.627 137.977 190.216 139.319 190.761 140.28C190.78 140.319 190.796 140.356 190.825 140.393C190.823 140.391 189.893 143.119 183.567 140.664Z" fill="#FED5B5"/>
<path d="M178.435 153.586C177.653 153.795 177.1 153.926 177.04 153.946C177.04 153.946 177.04 153.946 177.032 153.936C177.1 153.7 179.099 146.136 183.817 145.834C183.817 145.834 183.856 147.257 184.008 148.646C184.111 149.581 184.27 150.493 184.514 150.936C184.948 151.739 180.717 152.983 178.435 153.586Z" fill="#B2897C"/>
<path d="M184.008 148.646C183.548 148.937 182.898 149.128 181.966 149.106C181.966 149.106 183 152.116 179.354 151.596C179.354 151.596 179.239 152.936 178.434 153.586C178.179 153.803 177.848 153.953 177.433 153.963C177.322 153.963 177.19 153.963 177.038 153.944C177.038 153.944 177.038 153.944 177.03 153.934C175.16 153.709 170.96 151.803 170.139 151.426C170.047 151.38 169.998 151.36 169.998 151.36C169.998 151.36 169.998 151.35 169.991 151.341C169.942 151.286 169.819 151.106 169.755 150.784C169.728 150.71 169.716 150.632 169.707 150.55C169.654 150.013 169.767 149.218 170.471 148.183C170.479 148.183 170.479 148.173 170.479 148.173C170.479 148.173 170.471 148.161 170.46 148.132C170.436 148.077 170.368 147.954 170.3 147.765C170.24 147.577 170.16 147.341 170.125 147.048C170.102 146.996 170.094 146.927 170.094 146.861C170.086 146.841 170.086 146.822 170.086 146.814C170.01 146.164 170.113 145.351 170.687 144.562C170.744 144.474 170.808 144.4 170.874 144.314C170.874 144.314 170.822 144.174 170.783 143.908C170.771 143.871 170.771 143.824 170.763 143.781C170.715 143.383 170.724 142.809 170.968 142.127C171.051 141.891 171.166 141.637 171.314 141.381C171.355 141.324 171.39 141.266 171.429 141.201C171.478 141.137 171.528 141.061 171.581 140.987C171.645 140.901 171.713 140.807 171.797 140.713C171.824 140.672 171.861 140.627 171.9 140.592C171.9 140.592 171.888 140.573 171.888 140.545C171.768 140.083 170.892 136.376 173.967 135.093C173.967 135.093 174.541 135.261 174.917 135.423C174.917 135.423 183.93 139.196 183.496 140.752C183.066 142.299 181.976 142.609 181.976 142.609L184.983 145.873C184.985 145.871 185.43 147.759 184.008 148.646Z" fill="#E6AC8C"/>
<path d="M190.824 140.391C190.824 140.391 189.892 143.117 183.566 140.665C183.566 140.665 183.893 138.938 184.411 136.683C185.088 133.732 186.102 129.895 187.167 127.848C187.601 127.038 187.685 126.708 188.586 126.792C189.491 126.878 189.746 130.357 189.678 133.308C189.604 136.261 190.824 140.391 190.824 140.391Z" fill="#FED5B5"/>
<path d="M330.035 179.797C328.564 191.95 328.332 193.057 328.332 193.057C326.47 190.342 324.839 187.696 323.611 185.609V185.605C322.067 176.671 326.143 159.626 326.143 159.626C326.143 159.626 331.505 167.641 330.035 179.797Z" fill="#C28FFF"/>
<path d="M299.555 146.043C298.403 147.816 296.344 149.21 292.967 149.929C277.127 153.276 272.041 127.789 272.041 127.789C274.797 127.26 276.572 126.723 277.051 126.573C277.082 126.563 277.095 126.563 277.127 126.555C277.166 126.544 277.183 126.536 277.183 126.536L277.24 126.544C277.247 126.536 277.247 126.536 277.259 126.544L295.27 127.893C295.27 127.893 295.422 127.957 295.692 128.053C295.704 128.061 295.704 128.061 295.704 128.061C295.704 128.061 295.712 128.073 295.719 128.08C295.955 128.42 298.993 132.838 300.25 137.655C301.015 140.581 301.13 143.646 299.555 146.043Z" fill="#C28FFF"/>
<path d="M296.303 109.101C296.303 109.101 295.968 111.167 295.696 114.201C295.552 115.752 295.425 117.554 295.365 119.46C295.209 124.739 295.56 130.834 297.527 134.65C297.527 134.65 287.656 140.881 276.453 126.653C276.453 126.653 276.967 108.579 270.496 99.1647C264.022 89.754 296.303 109.101 296.303 109.101Z" fill="#FED5B5"/>
<path d="M299.555 146.042C298.403 147.816 296.344 149.21 292.967 149.929C277.127 153.276 272.041 127.789 272.041 127.789C273.557 127.326 276.451 126.659 276.451 126.659C276.659 126.629 276.858 126.592 277.053 126.573C277.084 126.563 277.097 126.563 277.129 126.555C277.167 126.555 277.204 126.543 277.243 126.543C277.251 126.536 277.251 126.536 277.263 126.543C290.603 124.62 295.47 127.893 295.696 128.053C295.708 128.061 295.708 128.061 295.708 128.061C295.708 128.061 295.715 128.072 295.723 128.08C295.959 128.42 298.997 132.837 300.254 137.655C301.015 140.58 301.13 143.646 299.555 146.042Z" fill="#FED5B5"/>
<path d="M287.78 54.0642C287.78 54.0642 306.103 53.6033 309.472 74.69C312.841 95.7767 305.052 114.303 301.994 117.273C298.942 120.242 280.62 117.986 276.305 107.035C271.986 96.0852 265.669 88.1001 266.615 78.6835C267.564 69.2631 265.246 53.7049 287.78 54.0642Z" fill="#FED5B5"/>
<path d="M295.755 118.429C295.755 118.429 289.39 118.388 280.731 112.922C280.731 112.922 286.825 120.357 295.313 123.077C295.315 123.077 295.817 119.375 295.755 118.429Z" fill="#B2897C"/>
<path d="M386.419 154.908C386.419 155.549 383.784 159.322 379.827 164.567C379.667 164.772 379.496 164.991 379.34 165.208C367.83 180.365 346.117 206.766 343.832 206.793C338.975 206.858 332.937 199.767 328.33 193.061C328.33 193.061 328.566 191.95 330.033 179.799C331.47 167.973 326.433 160.068 326.149 159.644C327.25 162.276 327.992 165.055 327.891 167.983C327.608 175.991 324.405 181.205 323.794 184.121C323.698 184.537 323.646 185.027 323.615 185.583C323.615 185.583 323.615 185.593 323.615 185.603C322.128 183.086 321.246 181.387 321.246 181.387C321.246 181.387 302.095 161.446 299.555 146.044C301.129 143.648 301.015 140.582 300.25 137.659C298.992 132.839 295.954 128.424 295.719 128.084C297.262 128.69 302.443 130.644 306.279 130.82C306.626 130.84 306.99 130.906 307.359 131.027H307.367C307.447 131.054 307.507 131.084 307.595 131.113C309.325 131.717 320.596 135.95 325.719 144.732C331.283 154.268 333.632 164.549 335.541 170.359C335.541 170.359 341.312 182.424 342.912 181.34C344.508 180.254 352.256 169.754 358.61 164.833C364.963 159.919 371.884 148.251 371.884 148.251C371.884 148.251 372.314 148.364 373.028 148.571C375.529 149.288 381.464 151.089 384.515 152.911C385.667 153.596 386.419 154.276 386.419 154.908Z" fill="#C28FFF"/>
<path d="M323.409 200.314C322.728 206.975 321.071 238.691 322.22 247.691C322.292 248.252 322.109 248.769 321.692 249.246H255.093C257.892 243.707 264.026 230.885 264.063 224.837C264.094 222.15 265.484 213.73 260.741 207.732C258.248 204.571 255.757 191.178 251.409 182.955C249.858 179.791 248.044 176.794 246.344 174.243C243.923 177.407 241.897 180.217 240.574 182.75C240.566 182.756 240.566 182.771 240.558 182.779C237.271 189.024 218.842 210.193 214.725 212.228C211.088 214.019 208.754 215.331 203.83 205.58C199.344 196.703 188.34 165.116 186.006 158.363C185.724 157.543 185.564 157.09 185.564 157.09L194.973 150.306L195.926 149.614C195.926 149.614 201.187 160.085 205.136 167.84C209.06 175.558 207.941 172.675 211.641 181.393C211.641 181.393 220.981 168.195 223.194 163.075C224.646 159.72 231.317 143.764 240.558 135.677C243.349 133.226 246.381 131.496 249.571 131.056C250.404 130.941 251.251 130.912 252.104 130.98C255.395 129.82 258.398 129.313 262.207 128.963C262.925 128.903 263.674 128.842 264.46 128.779C267.432 128.569 270.003 128.18 272.043 127.793C272.043 127.793 272.302 129.09 272.892 131.056C274.443 136.329 278.324 146.435 285.778 149.397C287.88 150.231 290.272 150.495 292.969 149.927C296.34 149.214 298.397 147.818 299.554 146.043C302.097 161.446 321.245 181.385 321.245 181.385C321.245 181.385 322.126 183.086 323.613 185.603V185.611C323.409 188.946 323.991 194.623 323.409 200.314Z" fill="#C28FFF"/>
<path d="M310.938 87.2584C310.583 85.3407 305.377 83.0051 301.936 80.4293C297.777 77.3126 296.021 72.9988 295.982 69.3314C295.982 69.3314 297.088 85.5965 280.732 87.6607C271.921 88.7679 272.189 100.84 272.189 100.84C272.635 102.315 273.159 103.801 273.748 105.287C274.231 106.06 274.686 106.791 275.12 107.484C276.022 108.435 276.999 109.382 278.052 110.314C291.736 122.425 296.21 138.053 286.125 147.515C285.889 147.736 285.65 147.945 285.414 148.146C287.695 154.781 284.486 161.896 278.363 165.469C273.721 168.182 271.746 171.359 271.596 174.316C271.79 174.505 271.987 174.69 272.203 174.874C276.781 178.776 278.589 184 272.674 187.415C272.479 187.562 272.275 187.675 272.059 187.753C273.746 184.509 267.939 182.869 267.939 182.869C262.267 181.186 253.11 168.566 262.355 159.093C272.361 148.843 266.475 133.622 256.968 121.044C247.46 108.466 248.19 84.2002 259.161 68.1656C271.74 49.7718 291.123 51.5021 298.82 57.1731C311.165 59.5321 313.577 72.9949 310.938 87.2584Z" fill="#0E538C"/>
<path d="M423.506 117.484C420.67 118.222 417.667 119.152 415.429 121.736C413.052 124.475 411.297 128.244 408.887 130.976C408.196 131.761 407.416 132.517 406.573 133.209C401.341 137.524 393.615 139.684 388.227 134.056C385.256 130.947 383.601 128.211 380.016 126.682C376.542 125.216 372.957 124.862 369.46 123.563C363.876 121.484 359.648 111.856 360.82 103.914C361.052 102.323 361.466 100.965 361.976 99.7097C360.589 97.5908 359.144 95.5287 358.358 92.8025C355.032 81.2476 364.724 73.5964 369.664 72.3154C372.492 71.5791 375.503 70.6477 377.741 68.0621C380.106 65.3262 381.865 61.5572 384.286 58.8233C384.975 58.0363 385.754 57.2844 386.598 56.5912C391.83 52.2754 399.549 50.1175 404.936 55.7456C407.92 58.8623 409.562 61.6002 413.159 63.1176C416.633 64.5861 420.207 64.9415 423.7 66.2401C429.296 68.3179 433.523 77.9454 432.351 85.8876C432.12 87.4791 431.701 88.8461 431.199 90.0998C432.587 92.2303 434.031 94.2827 434.808 97.003C438.138 108.564 428.447 116.201 423.506 117.484Z" fill="#2A94F4"/>
<path d="M410.132 66.8416L410.013 70.5519L409.969 71.0675L409.47 76.4026L409.272 78.5644L409.169 79.6443L407.051 102.465L406.999 103.041L406.473 108.663L406.421 109.28L406.07 113.034L406.01 113.667L405.975 114.055L405.955 114.243L405.876 115.098L405.701 117.02C405.333 118.248 404.5 119.343 403.336 120.208C403.309 120.23 403.283 120.253 403.252 120.275C403.225 120.289 403.203 120.306 403.184 120.322C403.081 120.392 402.98 120.462 402.876 120.527C402.777 120.593 402.674 120.654 402.577 120.714L390.082 120.316C389.879 120.179 389.687 120.033 389.504 119.884C389.48 119.867 389.459 119.847 389.439 119.83C388.287 118.883 387.493 117.711 387.201 116.43L387.145 114.496L386.279 84.8213L386.244 83.6378L386.236 83.3723L386.228 83.1399L386.224 82.9329L386.201 82.2142L386.102 78.912L386.07 77.8282L386.01 75.6586L385.851 70.2981L385.835 69.7825L385.956 66.0721L410.132 66.8416Z" fill="#F2F2F2"/>
<path d="M389.382 119.879L389.185 126.166L403.074 126.605L403.271 120.318L389.382 119.879Z" fill="#F7F7F7"/>
<path d="M403.093 126.628L403.089 126.688C403.054 127.786 402.264 128.651 401.329 128.621L390.833 128.285C389.895 128.254 389.165 127.34 389.198 126.241L389.202 126.182L403.093 126.628Z" fill="#F2F2F2"/>
<path d="M388.261 69.3959C388.078 69.3901 387.93 69.2358 387.938 69.0503L387.994 67.2478C388.002 67.0603 388.158 66.9158 388.341 66.9217C388.524 66.9275 388.668 67.0818 388.664 67.2673L388.607 69.0717C388.598 69.2553 388.446 69.4018 388.261 69.3959Z" fill="#C28FFF"/>
<path d="M389.648 69.4389C389.465 69.4331 389.321 69.2788 389.325 69.0952L389.382 67.2908C389.389 67.1033 389.541 66.9608 389.728 66.9647C389.915 66.9705 390.059 67.1268 390.055 67.3103L389.995 69.1167C389.989 69.3022 389.833 69.4448 389.648 69.4389Z" fill="#C28FFF"/>
<path d="M390.962 69.4819C390.775 69.478 390.631 69.3217 390.639 69.1362L390.692 67.3337C390.699 67.1482 390.855 67.0018 391.038 67.0096C391.225 67.0135 391.369 67.1678 391.361 67.3552L391.305 69.1577C391.301 69.3432 391.145 69.4897 390.962 69.4819Z" fill="#C28FFF"/>
<path d="M392.4 69.5286C392.217 69.5208 392.073 69.3665 392.077 69.181L392.138 67.3786C392.141 67.1911 392.293 67.0485 392.48 67.0524C392.667 67.0583 392.811 67.2145 392.803 67.3981L392.747 69.2045C392.741 69.39 392.585 69.5345 392.4 69.5286Z" fill="#C28FFF"/>
<path d="M393.814 69.5716C393.631 69.5657 393.487 69.4114 393.491 69.2259L393.548 67.4196C393.556 67.236 393.711 67.0915 393.894 67.0973C394.081 67.1032 394.225 67.2594 394.217 67.443L394.161 69.2474C394.157 69.4329 394.001 69.5774 393.814 69.5716Z" fill="#C28FFF"/>
<path d="M395.152 69.6166C394.969 69.6108 394.825 69.4545 394.829 69.269L394.886 67.4646C394.893 67.2811 395.049 67.1346 395.232 67.1424C395.415 67.1482 395.563 67.3025 395.555 67.488L395.499 69.2905C395.489 69.478 395.337 69.6225 395.152 69.6166Z" fill="#C28FFF"/>
<path d="M396.54 69.6595C396.357 69.6536 396.213 69.4994 396.217 69.3138L396.277 67.5094C396.281 67.3239 396.437 67.1794 396.62 67.1833C396.807 67.1911 396.951 67.3454 396.943 67.529L396.886 69.3334C396.881 69.5208 396.725 69.6653 396.54 69.6595Z" fill="#C28FFF"/>
<path d="M397.85 69.7024C397.667 69.6946 397.523 69.5404 397.531 69.3549L397.583 67.5543C397.591 67.3649 397.747 67.2224 397.93 67.2263C398.116 67.2341 398.26 67.3903 398.253 67.5739L398.2 69.3763C398.192 69.5619 398.04 69.7064 397.85 69.7024Z" fill="#C28FFF"/>
<path d="M399.296 69.7475C399.109 69.7416 398.965 69.5874 398.969 69.4018L399.029 67.5955C399.033 67.4119 399.189 67.2674 399.372 67.2732C399.559 67.2791 399.703 67.4334 399.699 67.6189L399.638 69.4214C399.633 69.6088 399.477 69.7533 399.296 69.7475Z" fill="#C28FFF"/>
<path d="M400.71 69.7924C400.523 69.7865 400.379 69.6342 400.387 69.4467L400.44 67.6423C400.447 67.4588 400.603 67.3123 400.786 67.3182C400.973 67.326 401.117 67.4802 401.109 67.6658L401.057 69.4702C401.049 69.6518 400.893 69.8002 400.71 69.7924Z" fill="#C28FFF"/>
<path d="M402.069 69.8354C401.887 69.8315 401.739 69.6733 401.746 69.4897L401.803 67.6873C401.811 67.4998 401.962 67.3553 402.149 67.3631C402.336 67.367 402.48 67.5232 402.472 67.7068L402.416 69.5112C402.408 69.6987 402.256 69.8432 402.069 69.8354Z" fill="#C28FFF"/>
<path d="M403.462 69.8822C403.275 69.8744 403.131 69.7221 403.135 69.5346L403.191 67.7322C403.199 67.5466 403.351 67.4002 403.538 67.4061C403.725 67.4139 403.869 67.5681 403.861 67.7517L403.804 69.5561C403.8 69.7397 403.645 69.8881 403.462 69.8822Z" fill="#C28FFF"/>
<path d="M404.769 69.9232C404.587 69.9173 404.442 69.7611 404.446 69.5775L404.507 67.7692C404.511 67.5856 404.666 67.4431 404.849 67.447C405.036 67.4548 405.18 67.6091 405.172 67.7946L405.116 69.597C405.112 69.7826 404.956 69.9271 404.769 69.9232Z" fill="#C28FFF"/>
<path d="M406.209 69.97C406.026 69.9622 405.882 69.8099 405.886 69.6244L405.942 67.8199C405.95 67.6344 406.106 67.488 406.289 67.4938C406.476 67.5016 406.62 67.6539 406.612 67.8414L406.555 69.6459C406.548 69.8294 406.396 69.9739 406.209 69.97Z" fill="#C28FFF"/>
<path d="M407.624 70.0149C407.441 70.0071 407.297 69.8548 407.301 69.6674L407.357 67.8629C407.365 67.6774 407.517 67.5329 407.704 67.5387C407.891 67.5466 408.031 67.6989 408.027 67.8864L407.974 69.6908C407.963 69.8743 407.811 70.0189 407.624 70.0149Z" fill="#C28FFF"/>
<path fill-rule="evenodd" clip-rule="evenodd" d="M380.4 69.3958C379.803 69.1928 379.579 68.7631 379.555 68.1382C379.423 64.3732 376.811 61.2838 373.158 60.569C372.664 60.4753 372.154 60.4656 371.65 60.4265C371.22 60.3913 370.879 60.2156 370.7 59.8094C370.529 59.4306 370.567 59.0576 370.824 58.7236C371.048 58.4366 371.356 58.3292 371.718 58.3272C373.337 58.3155 374.84 57.8683 376.149 56.927C378.327 55.3687 379.487 53.2342 379.567 50.5374C379.583 49.973 379.83 49.5805 380.277 49.4379C380.976 49.2114 381.63 49.6703 381.657 50.4261C381.685 51.2794 381.776 52.1172 382.068 52.9179C383.156 55.9057 385.272 57.675 388.389 58.2393C388.693 58.2921 389.012 58.3409 389.322 58.3233C389.98 58.2882 390.427 58.5362 390.641 59.1787C390.641 59.3193 390.641 59.4598 390.641 59.6004C390.417 60.2195 389.96 60.4382 389.326 60.4421C387.85 60.4577 386.49 60.8971 385.273 61.7115C383.008 63.2269 381.788 65.3691 381.673 68.1031C381.646 68.7514 381.445 69.1908 380.818 69.3978C380.68 69.3959 380.54 69.3958 380.4 69.3958Z" fill="#C28FFF"/>
<path fill-rule="evenodd" clip-rule="evenodd" d="M360.472 76.2132C360.676 75.6118 361.106 75.3813 361.729 75.3755C364.405 75.3481 366.799 73.1239 367.058 70.4465C367.077 70.2317 367.093 70.0111 367.099 69.7943C367.122 69.2573 367.525 68.8316 368.076 68.7788C368.551 68.7378 369.053 69.0952 369.14 69.5912C369.22 70.0189 369.216 70.4602 369.296 70.8879C369.73 73.2098 371.645 75.0259 373.979 75.3247C374.226 75.3579 374.481 75.3716 374.728 75.3794C375.351 75.397 375.816 75.8539 375.816 76.4554C375.816 77.01 375.368 77.4513 374.767 77.4767C372.285 77.5919 370.528 78.7715 369.547 81.0719C369.277 81.7027 369.181 82.3744 369.181 83.0657C369.185 83.6574 368.706 84.1164 368.132 84.1144C367.574 84.1125 367.14 83.6848 367.099 83.1067C367.075 82.7845 367.054 82.4623 366.999 82.144C366.608 79.6307 364.46 77.67 361.929 77.5041C361.861 77.5001 361.793 77.4845 361.721 77.4904C361.114 77.5177 360.692 77.258 360.47 76.6819C360.472 76.5257 360.472 76.3695 360.472 76.2132Z" fill="#C28FFF"/>
<path fill-rule="evenodd" clip-rule="evenodd" d="M420.047 84.1163C420.658 84.3253 420.876 84.7686 420.896 85.3974C420.948 87.3092 422.519 88.9867 424.426 89.2054C424.666 89.2327 424.913 89.2269 425.152 89.2699C425.707 89.3675 426.073 89.8498 426.022 90.3966C425.973 90.9493 425.524 91.3399 424.934 91.3457C423.182 91.3653 421.596 92.5194 421.08 94.1871C420.96 94.5718 420.909 94.9858 420.89 95.39C420.855 96.013 420.452 96.4758 419.86 96.4895C419.263 96.507 418.827 96.0774 418.792 95.4447C418.681 93.4294 417.519 91.955 415.637 91.4766C415.341 91.4024 415.022 91.3711 414.712 91.3594C414.089 91.334 413.648 90.9142 413.636 90.3107C413.624 89.7386 414.095 89.2757 414.712 89.2582C416.715 89.2054 418.301 87.8872 418.712 85.9266C418.751 85.7411 418.792 85.5478 418.784 85.3583C418.749 84.7217 419.035 84.3155 419.629 84.1124C419.769 84.1163 419.909 84.1163 420.047 84.1163Z" fill="#C28FFF"/>
</svg>