<svg width="628" height="554" viewBox="0 0 628 554" fill="none" xmlns="http://www.w3.org/2000/svg">
<g clip-path="url(#clip0)">
<path opacity="0.11" d="M315.581 553.497C411.604 553.497 489.446 538.17 489.446 519.262C489.446 500.354 411.604 485.027 315.581 485.027C219.558 485.027 141.716 500.354 141.716 519.262C141.716 538.17 219.558 553.497 315.581 553.497Z" fill="#2A94F4"/>
<path opacity="0.11" d="M381.375 485.022C381.375 485.022 598.782 373.16 496.26 208.15C393.738 43.1401 282.694 46.8745 220.262 80.1453C157.831 113.416 130.266 191.274 104.214 208.15C0.414879 275.399 -21.474 419.732 176.305 468.674C374.084 517.615 381.375 485.022 381.375 485.022Z" fill="#2A94F4"/>
<path d="M407.982 517.636C407.982 517.636 364.44 566.896 241.597 532.691C118.755 498.487 141.454 403.558 191.703 376.571C241.956 349.584 262.989 359.089 304.808 410.596C332.091 444.2 387.928 396.854 413.345 421.296C438.766 445.739 450.806 493.327 407.982 517.636Z" fill="#0E538C"/>
<path d="M371.581 254.333C382.609 248.624 386.922 235.052 381.215 224.019C375.508 212.986 361.942 208.671 350.914 214.381C339.886 220.09 335.573 233.662 341.28 244.695C346.987 255.728 360.553 260.043 371.581 254.333Z" fill="#E05C76"/>
<path d="M350.54 231.151C350.632 227.509 353.657 224.626 357.297 224.719C359.369 224.77 361.189 225.77 362.363 227.294C363.609 225.832 365.481 224.919 367.552 224.97C371.193 225.062 374.074 228.089 373.982 231.731C373.864 236.517 366.096 243.544 361.892 246.355C357.708 243.252 350.422 235.855 350.54 231.151Z" fill="#F7F7F7"/>
<path d="M441.532 50.9508C453.179 39.298 453.179 20.4051 441.532 8.75237C429.884 -2.9004 410.999 -2.90038 399.352 8.75239C387.704 20.4052 387.704 39.298 399.352 50.9508C410.999 62.6035 429.884 62.6036 441.532 50.9508Z" fill="#0078D1"/>
<path d="M412.673 24.6478L405.392 24.7298C404.074 24.7452 403.013 25.8276 403.028 27.1459L403.193 41.991C403.208 43.3094 404.29 44.3712 405.608 44.3558L412.888 44.2737C414.206 44.2583 415.268 43.176 415.252 41.8577L415.088 27.0125C415.073 25.6942 413.991 24.6324 412.673 24.6478ZM437.551 25.9712L430.491 26.0482C429.096 26.0635 427.984 24.8837 428.081 23.4885L428.425 18.6307C428.44 18.3896 428.425 18.1485 428.368 17.9177L426.994 12.0648C426.738 10.9722 425.758 10.2079 424.641 10.2181C423.323 10.2335 422.261 11.3159 422.277 12.6342L422.333 17.6099C422.338 18.1177 422.184 18.6153 421.887 19.0257L416.38 26.7304C416.083 27.1459 415.929 27.6383 415.934 28.1462L416.068 40.4573C416.078 41.3191 416.549 42.1142 417.308 42.5297L421.677 44.9252C422.036 45.1201 422.441 45.2227 422.851 45.2176L433.044 45.1047C434.029 45.0945 434.906 44.4789 435.254 43.5607L439.833 31.424C439.936 31.147 439.992 30.8495 439.987 30.552L439.961 28.336C439.956 27.0125 438.874 25.9558 437.551 25.9712Z" fill="#F7F7F7"/>
<path d="M136.27 356.298C147.918 344.645 147.918 325.752 136.27 314.099C124.622 302.447 105.738 302.447 94.09 314.099C82.4423 325.752 82.4423 344.645 94.09 356.298C105.738 367.95 124.622 367.95 136.27 356.298Z" fill="#0078D1"/>
<path d="M107.411 329.995L100.13 330.077C98.8127 330.092 97.7514 331.175 97.7668 332.493L97.9309 347.338C97.9463 348.656 99.0281 349.718 100.346 349.703L107.627 349.621C108.945 349.605 110.006 348.523 109.99 347.205L109.826 332.359C109.811 331.041 108.729 329.979 107.411 329.995ZM132.29 331.318L125.229 331.395C123.835 331.41 122.722 330.231 122.819 328.835L123.163 323.978C123.178 323.737 123.163 323.495 123.106 323.265L121.732 317.412C121.476 316.319 120.497 315.555 119.379 315.565C118.061 315.58 117 316.663 117.015 317.981L117.071 322.957C117.077 323.465 116.923 323.962 116.625 324.373L111.119 332.077C110.821 332.493 110.667 332.985 110.672 333.493L110.806 345.804C110.816 346.666 111.288 347.461 112.047 347.877L116.415 350.272C116.774 350.467 117.179 350.57 117.589 350.565L127.783 350.452C128.767 350.441 129.644 349.826 129.992 348.908L134.571 336.771C134.674 336.494 134.73 336.196 134.725 335.899L134.699 333.683C134.694 332.359 133.612 331.303 132.29 331.318Z" fill="#F7F7F7"/>
<path d="M432.134 156.885C443.782 145.232 443.782 126.339 432.134 114.686C420.487 103.033 401.602 103.033 389.954 114.686C378.307 126.339 378.307 145.232 389.954 156.885C401.602 168.537 420.487 168.537 432.134 156.885Z" fill="#0078D1"/>
<path d="M403.275 130.58L395.994 130.662C394.676 130.677 393.615 131.759 393.63 133.078L393.794 147.923C393.809 149.241 394.891 150.303 396.209 150.288L403.49 150.206C404.808 150.19 405.869 149.108 405.854 147.79L405.69 132.944C405.679 131.626 404.598 130.564 403.275 130.58ZM428.158 131.903L421.097 131.98C419.703 131.995 418.59 130.816 418.688 129.42L419.031 124.563C419.046 124.322 419.031 124.08 418.975 123.85L417.601 117.997C417.344 116.904 416.365 116.14 415.247 116.15C413.929 116.165 412.868 117.248 412.883 118.566L412.94 123.542C412.945 124.05 412.791 124.547 412.494 124.958L406.987 132.662C406.689 133.078 406.536 133.57 406.541 134.078L406.674 146.389C406.684 147.251 407.156 148.046 407.915 148.462L412.284 150.857C412.642 151.052 413.047 151.155 413.458 151.149L423.651 151.037C424.635 151.026 425.512 150.411 425.861 149.493L430.44 137.356C430.542 137.079 430.599 136.781 430.593 136.484L430.568 134.268C430.557 132.944 429.476 131.888 428.158 131.903Z" fill="#F7F7F7"/>
<path d="M269.928 222.966C286.12 219.938 296.792 204.35 293.765 188.15C290.737 171.951 275.156 161.274 258.964 164.303C242.771 167.332 232.099 182.92 235.127 199.119C238.154 215.319 253.735 225.995 269.928 222.966Z" fill="#0078D1"/>
<path d="M256.651 188.447L249.37 188.529C248.052 188.545 246.991 189.627 247.006 190.945L247.17 205.79C247.185 207.109 248.267 208.171 249.585 208.155L256.866 208.073C258.184 208.058 259.245 206.975 259.23 205.657L259.066 190.812C259.05 189.494 257.974 188.432 256.651 188.447ZM281.534 189.765L274.473 189.842C273.079 189.858 271.966 188.678 272.064 187.283L272.407 182.425C272.423 182.184 272.407 181.943 272.351 181.712L270.977 175.859C270.72 174.766 269.741 174.002 268.623 174.012C267.305 174.028 266.244 175.11 266.259 176.428L266.316 181.404C266.321 181.912 266.167 182.41 265.87 182.82L260.363 190.525C260.065 190.94 259.912 191.433 259.917 191.94L260.05 204.251C260.06 205.113 260.532 205.908 261.291 206.324L265.659 208.719C266.018 208.914 266.423 209.017 266.834 209.012L277.027 208.899C278.011 208.889 278.888 208.273 279.237 207.355L283.816 195.218C283.918 194.941 283.975 194.644 283.969 194.346L283.944 192.13C283.934 190.812 282.852 189.755 281.534 189.765Z" fill="#F7F7F7"/>
<path d="M156.283 147.148C172.476 144.119 183.148 128.531 180.12 112.332C177.093 96.1325 161.512 85.4556 145.319 88.4846C129.127 91.5135 118.454 107.101 121.482 123.301C124.51 139.5 140.091 150.177 156.283 147.148Z" fill="#0078D1"/>
<path d="M143.006 112.629L135.725 112.711C134.407 112.726 133.346 113.809 133.361 115.127L133.526 129.972C133.541 131.29 134.623 132.352 135.941 132.337L143.221 132.255C144.539 132.239 145.601 131.157 145.585 129.839L145.421 114.993C145.406 113.675 144.329 112.613 143.006 112.629ZM167.889 113.947L160.829 114.024C159.434 114.039 158.322 112.86 158.419 111.464L158.763 106.607C158.778 106.365 158.763 106.124 158.706 105.894L157.332 100.041C157.076 98.948 156.096 98.1837 154.979 98.1939C153.661 98.2093 152.599 99.2917 152.615 100.61L152.671 105.586C152.676 106.094 152.523 106.591 152.225 107.002L146.718 114.706C146.421 115.122 146.267 115.614 146.272 116.122L146.406 128.433C146.416 129.295 146.888 130.09 147.646 130.505L152.015 132.901C152.374 133.096 152.779 133.199 153.189 133.193L163.382 133.081C164.367 133.07 165.244 132.455 165.592 131.537L170.171 119.4C170.274 119.123 170.33 118.825 170.325 118.528L170.299 116.312C170.289 114.993 169.207 113.937 167.889 113.947Z" fill="#F7F7F7"/>
<path d="M274.233 463.657C264.942 462.339 250.97 459.256 243.392 453.721C235.814 448.181 230.338 439.076 231.168 429.724C231.553 425.374 233.224 421.312 235.106 417.336L210.997 414.279C210.074 418.614 209.464 423.005 209.361 427.457C209.079 439.589 212.848 452.29 221.754 460.533C227.533 465.878 235.07 469.017 242.771 470.633C250.473 472.249 265.014 472.398 272.88 472.49C275.161 472.505 276.33 463.954 274.233 463.657Z" fill="#FCD2B1"/>
<path d="M296.363 466.104C297.312 466.442 298.276 466.832 299.014 467.514C299.753 468.202 300.235 469.253 299.978 470.228C299.599 471.664 297.927 472.28 296.476 472.593C291.943 473.577 287.288 473.829 282.653 474.075C282.125 474.101 281.596 474.131 281.068 474.157C280.438 474.188 279.812 474.224 279.181 474.239C276.418 474.301 273.193 473.88 271.583 471.326C270.511 469.628 270.301 467.263 271.66 465.678C274.695 462.138 281.925 463.108 285.898 463.611C289.467 464.057 292.984 464.893 296.363 466.104Z" fill="#FCD2B1"/>
<path fill-rule="evenodd" clip-rule="evenodd" d="M237.377 412.632C240.013 407.133 242.351 401.101 241.367 395.084C239.126 381.383 223.908 382.681 217.714 392.612C215.335 396.423 214.468 401.491 213.197 405.743C212.356 408.554 211.607 411.401 210.997 414.269L234.675 421.291C235.424 419.722 236.629 414.192 237.377 412.632Z" fill="#2A94F4"/>
<path d="M413.842 534.538C413.863 535.4 413.909 536.323 414.432 537C415.068 537.821 416.196 538.026 417.221 538.175C419.559 538.514 421.903 538.847 424.241 539.186C424.958 539.288 425.81 539.35 426.297 538.806C426.733 538.319 426.656 537.57 426.553 536.923C426.22 534.846 425.887 532.768 425.553 530.691C425.261 528.86 424.933 526.946 423.795 525.489C422.154 523.386 416.688 521.35 414.473 523.632C412.432 525.736 413.781 531.953 413.842 534.538Z" fill="#FCD2B1"/>
<path fill-rule="evenodd" clip-rule="evenodd" d="M448.534 551.886C449.119 550.096 447.734 548.183 446.048 547.342C444.361 546.506 442.422 546.398 440.592 545.952C435.372 544.679 431.019 540.365 429.691 535.164C429.512 534.451 429.353 533.666 428.804 533.168C428.076 532.507 426.912 532.604 426.035 533.04C425.153 533.476 424.441 534.184 423.605 534.707C422.113 535.641 420.226 535.918 418.518 535.497C417.088 535.143 415.734 533.676 414.186 534.082C412.822 534.441 412.104 536.051 411.52 537.18C410.51 539.129 409.546 541.104 408.561 543.064C408.341 543.5 408.12 543.951 407.977 544.418C407.977 544.418 419.482 546.423 419.852 547.162L447.252 553.497C447.842 553.097 448.314 552.558 448.534 551.886Z" fill="#0B4870"/>
<path fill-rule="evenodd" clip-rule="evenodd" d="M431.203 520.103C433.357 519.395 435.228 518.01 437.351 517.21C441.478 515.651 446.134 516.415 450.405 515.307C455.004 514.117 458.953 510.649 460.732 506.243C461.111 505.299 461.383 504.16 460.824 503.309C460.301 502.509 459.245 502.273 458.296 502.18C450.974 501.488 449.041 504.36 441.694 504.735C439.735 504.832 431.562 503.555 427.388 505.058C422.866 506.684 423.338 508.618 423.174 510.352C423.004 512.096 423.281 517.877 424.789 519.149C426.491 520.596 429.173 520.77 431.203 520.103Z" fill="#0B4870"/>
<path d="M423.528 503.719C423.354 502.878 423.19 501.965 423.549 501.185C423.985 500.246 425.036 499.79 426.005 499.41C428.209 498.554 430.409 497.697 432.614 496.835C433.291 496.574 434.106 496.322 434.701 496.738C435.239 497.117 435.331 497.861 435.378 498.513C435.521 500.611 435.67 502.709 435.813 504.807C435.942 506.653 436.054 508.592 435.275 510.275C434.152 512.696 429.291 515.917 426.615 514.194C424.143 512.614 424.051 506.253 423.528 503.719Z" fill="#FCD2B1"/>
<path d="M426.917 440.702C426.045 437.239 424.978 433.613 422.994 430.719L403.854 454.172C408.253 455.624 410.858 460.097 412.862 467.699C420.128 495.25 422.645 505.499 424.532 508.187C425.968 510.239 435.633 509.023 436.515 506.494C438.951 499.482 431.254 457.942 426.917 440.702Z" fill="#494949"/>
<path d="M311.181 473.162C315.976 476.594 341.197 477.296 347.073 476.845C355.708 476.183 364.342 475.516 372.977 474.855C377.094 474.537 387.262 471.095 390.559 473.577C395.045 476.953 408.443 522.268 412.417 528.044C413.735 529.962 424.61 531.009 425.83 527.587C427.056 524.166 420.959 488.12 418.513 473.778C417.575 468.273 416.627 462.723 414.601 457.517C412.576 452.31 409.381 447.411 404.751 444.287C398.25 439.896 335.091 442.584 332.081 444.195C327.851 446.473 306.136 469.556 311.181 473.162Z" fill="#343435"/>
<path d="M292.923 433.761C289.605 436.09 287.349 439.712 286.067 443.564C282.642 453.87 286.375 466.155 294.963 472.803C303.547 479.451 326.261 479.077 339.034 468.776C347.489 461.959 339.362 456.27 336.818 445.708C335.542 440.404 331.988 434.772 326.892 432.838C318.073 432.084 314.263 434.233 307.761 433.464C302.075 432.782 298.722 429.688 292.923 433.761Z" fill="#494949"/>
<path d="M419.969 427.534C386.354 421.081 344.022 430.72 326.025 432.946C321.282 438.763 320.215 458.214 322.651 464.78C326.481 475.111 336.772 474.578 345.786 472.044C360.142 468.017 374.217 462.99 387.882 457.014C395.024 453.89 409.222 447.175 412.601 453.198L423.004 430.719C422.163 429.509 421.44 427.816 419.969 427.534Z" fill="#494949"/>
<path fill-rule="evenodd" clip-rule="evenodd" d="M225.046 381.101C222.801 384.137 222.042 388.026 221.785 391.791C220.616 408.765 228.379 425.421 239.572 438.234C250.76 451.048 265.168 460.574 279.617 469.561C284.17 472.393 290.728 474.439 297.948 474.578C299.968 468.243 301.224 449.109 303.244 442.774C304.306 439.445 305.377 435.895 304.475 432.52C303.08 427.283 297.625 424.431 292.856 421.861C279.689 414.756 267.86 405.174 258.18 393.766C254.857 389.847 251.755 385.692 247.868 382.332C241.757 377.048 230.943 373.139 225.046 381.101Z" fill="#2A94F4"/>
<path d="M227.379 377.115C227.041 378.156 226.661 379.208 226.687 380.3C226.712 381.393 227.246 382.557 228.256 382.973C228.958 383.265 229.753 383.147 230.507 383.029C234.696 382.373 238.88 381.711 243.069 381.054C242.002 376.171 242.73 370.913 245.089 366.507C245.709 365.353 246.463 364.101 246.171 362.818C245.868 361.475 244.53 360.659 243.284 360.069C240.505 358.756 237.552 357.812 234.527 357.253C231.112 356.627 229.276 355.601 229.148 359.151C228.922 365.429 229.363 370.975 227.379 377.115Z" fill="#FCD2B1"/>
<path d="M221.939 345.763C219.739 349.523 219.473 354.791 222.518 357.904C224.303 359.73 226.861 360.526 229.312 361.249C233.691 362.547 238.07 363.844 242.448 365.142C245.084 365.922 251.688 364.819 253.913 363.208C256.18 361.562 253.944 359.879 253.913 357.078C253.867 352.554 249.822 346.296 248.273 342.044C246.725 337.791 246.432 335.806 242.172 334.288C234.68 331.62 225.472 339.72 221.939 345.763Z" fill="#FFE3CA"/>
<path fill-rule="evenodd" clip-rule="evenodd" d="M217.585 360.874C218.77 363.024 220 365.229 221.903 366.779C223.805 368.328 226.569 369.087 228.758 367.979C231.552 366.568 232.26 362.972 232.645 359.864C233.111 356.094 236.1 358.166 236.567 354.396C236.767 352.79 234.449 345.316 235.065 343.824C236.541 340.223 242.92 338.463 244.422 334.872C246.258 330.497 241.294 324.249 236.967 322.31C232.639 320.371 226.943 322.464 224.902 326.747C223.41 329.871 223.984 333.744 222.21 336.729C220.718 339.238 218.462 339.048 216.345 340.612C209.71 345.521 214.591 355.432 217.585 360.874Z" fill="#0B4870"/>
<path d="M226.409 356.176C225.856 353.631 227.906 350.887 230.486 350.533C233.065 350.179 236.608 358.664 235.772 359.725C231.157 360.638 227.532 359.048 226.409 356.176Z" fill="#FFE3CA"/>
<path d="M311.207 357.078C308.264 365.994 302.757 379.202 295.968 385.681C289.18 392.16 279.248 395.94 270.193 393.468C265.983 392.319 262.281 389.954 258.708 387.395L251.427 410.591C255.529 412.268 259.738 413.648 264.097 414.535C275.982 416.962 289.144 415.505 298.83 408.195C305.111 403.455 309.536 396.587 312.489 389.292C315.442 381.998 318.165 367.707 319.652 359.977C320.077 357.735 311.874 355.068 311.207 357.078Z" fill="#FCD2B1"/>
<path fill-rule="evenodd" clip-rule="evenodd" d="M254.482 384.327C249.539 380.757 244.017 377.387 237.926 377.289C224.046 377.069 222.631 392.278 231.306 400.142C234.634 403.158 239.469 404.912 243.427 406.918C246.048 408.247 248.714 409.483 251.426 410.596L262.532 388.523C261.112 387.513 255.887 385.343 254.482 384.327Z" fill="#2A94F4"/>
<path d="M310.719 348.163H322.092C322.764 348.163 323.461 347.619 323.651 346.942L330.593 322.797C330.783 322.125 330.388 321.576 329.716 321.576H318.344C317.672 321.576 316.975 322.12 316.785 322.797L309.843 346.942C309.653 347.619 310.048 348.163 310.719 348.163Z" fill="#3C79A6"/>
<path d="M309.612 348.163H320.984C321.656 348.163 322.353 347.619 322.543 346.942L329.486 322.797C329.675 322.125 329.28 321.576 328.609 321.576H317.236C316.565 321.576 315.867 322.12 315.678 322.797L308.735 346.942C308.545 347.619 308.94 348.163 309.612 348.163Z" fill="#C5DCFD"/>
<path d="M310.55 346.855H320.8C321.405 346.855 322.035 346.363 322.204 345.758L328.465 323.993C328.634 323.387 328.28 322.895 327.675 322.895H317.426C316.821 322.895 316.19 323.387 316.021 323.993L309.76 345.758C309.586 346.363 309.94 346.855 310.55 346.855Z" fill="#2A94F4"/>
<path d="M312.606 345.116C313.073 343.685 315.693 339.817 317.082 336.145C319.646 335.262 318.282 342.613 317.421 343.48C320.41 342.885 326.014 339.54 327.322 334.165C327.84 334.626 329.48 336.976 329.516 337.668C329.66 340.284 327.988 342.716 328.127 345.332C328.234 347.291 329.137 348.322 328.547 350.195C327.599 353.19 325.045 355.365 322.523 357.238C321.21 358.212 319.841 359.166 318.277 359.638C309.596 362.239 311.17 349.548 312.606 345.116Z" fill="#FCD2B1"/>
<path d="M506.987 212.023C519.404 212.023 529.47 201.952 529.47 189.53C529.47 177.107 519.404 167.036 506.987 167.036C494.569 167.036 484.503 177.107 484.503 189.53C484.503 201.952 494.569 212.023 506.987 212.023Z" fill="#E05C76"/>
<path d="M496.26 186.324C496.352 182.682 499.378 179.799 503.018 179.891C505.09 179.942 506.91 180.943 508.084 182.466C509.33 181.004 511.201 180.091 513.273 180.142C516.913 180.235 519.795 183.261 519.703 186.903C519.585 191.689 511.817 198.717 507.612 201.528C503.433 198.424 496.147 191.028 496.26 186.324Z" fill="#F7F7F7"/>
<path d="M326.302 112.283C338.719 112.283 348.786 102.212 348.786 89.7891C348.786 77.3663 338.719 67.2957 326.302 67.2957C313.885 67.2957 303.818 77.3663 303.818 89.7891C303.818 102.212 313.885 112.283 326.302 112.283Z" fill="#E05C76"/>
<path d="M315.581 86.578C315.673 82.936 318.698 80.0531 322.338 80.1455C324.41 80.1968 326.23 81.197 327.404 82.7205C328.65 81.2586 330.522 80.3455 332.593 80.3968C336.234 80.4891 339.115 83.5156 339.023 87.1577C338.905 91.9436 331.137 98.9712 326.933 101.782C322.749 98.6788 315.463 91.2819 315.581 86.578Z" fill="#F7F7F7"/>
<path d="M147.484 264.987C159.901 264.987 169.967 254.916 169.967 242.493C169.967 230.071 159.901 220 147.484 220C135.066 220 125 230.071 125 242.493C125 254.916 135.066 264.987 147.484 264.987Z" fill="#E05C76"/>
<path d="M136.762 239.282C136.854 235.64 139.88 232.757 143.52 232.85C145.591 232.901 147.412 233.901 148.586 235.425C149.832 233.963 151.703 233.05 153.775 233.101C157.415 233.193 160.297 236.22 160.205 239.862C160.087 244.648 152.319 251.676 148.114 254.487C143.93 251.383 136.644 243.986 136.762 239.282Z" fill="#F7F7F7"/>
<path d="M240.484 302.987C252.901 302.987 262.967 292.916 262.967 280.493C262.967 268.071 252.901 258 240.484 258C228.066 258 218 268.071 218 280.493C218 292.916 228.066 302.987 240.484 302.987Z" fill="#E05C76"/>
<path d="M229.762 277.282C229.854 273.64 232.88 270.757 236.52 270.85C238.591 270.901 240.412 271.901 241.586 273.425C242.832 271.963 244.703 271.05 246.775 271.101C250.415 271.193 253.297 274.22 253.205 277.862C253.087 282.648 245.319 289.676 241.114 292.487C236.93 289.383 229.644 281.986 229.762 277.282Z" fill="#F7F7F7"/>
<path d="M462.057 294.209C474.996 283.969 477.188 265.174 466.953 252.229C456.717 239.284 437.931 237.091 424.991 247.331C412.052 257.571 409.86 276.366 420.095 289.311C430.331 302.256 449.117 304.449 462.057 294.209Z" fill="#0078D1"/>
<path d="M435.726 265.535L428.435 265.617C427.112 265.633 426.056 266.715 426.066 268.038L426.231 282.904C426.246 284.227 427.328 285.284 428.651 285.274L435.942 285.192C437.265 285.176 438.321 284.094 438.311 282.771L438.147 267.905C438.131 266.582 437.044 265.52 435.726 265.535ZM460.64 266.859L453.57 266.935C452.17 266.951 451.057 265.766 451.155 264.371L451.498 259.503C451.514 259.262 451.498 259.02 451.442 258.785L450.068 252.926C449.811 251.834 448.832 251.064 447.709 251.08C446.386 251.095 445.33 252.178 445.34 253.501L445.397 258.482C445.402 258.99 445.248 259.487 444.951 259.903L439.434 267.618C439.136 268.033 438.982 268.531 438.987 269.039L439.121 281.37C439.131 282.237 439.608 283.027 440.367 283.443L444.746 285.843C445.104 286.038 445.51 286.141 445.92 286.136L456.128 286.023C457.113 286.013 457.995 285.397 458.343 284.474L462.927 272.316C463.035 272.039 463.086 271.742 463.081 271.444L463.055 269.223C463.045 267.905 461.963 266.843 460.64 266.859Z" fill="#F7F7F7"/>
<path d="M335.379 317.581C343.166 311.419 344.485 300.108 338.326 292.318C332.166 284.528 320.86 283.208 313.074 289.37C305.287 295.532 303.968 306.843 310.127 314.633C316.287 322.423 327.592 323.743 335.379 317.581Z" fill="#2A94F4"/>
<path d="M319.534 300.314L315.145 300.36C314.351 300.371 313.71 301.022 313.72 301.817L313.817 310.763C313.828 311.558 314.479 312.2 315.273 312.189L319.663 312.143C320.457 312.133 321.098 311.481 321.088 310.686L320.991 301.74C320.98 300.945 320.329 300.304 319.534 300.314ZM334.527 301.109L330.271 301.155C329.43 301.166 328.759 300.453 328.82 299.611L329.03 296.682C329.041 296.539 329.03 296.39 328.994 296.252L328.169 292.722C328.015 292.066 327.425 291.604 326.749 291.609C325.954 291.619 325.313 292.271 325.323 293.066L325.354 296.067C325.359 296.375 325.262 296.672 325.087 296.924L321.765 301.566C321.585 301.817 321.493 302.115 321.498 302.422L321.58 309.845C321.585 310.368 321.872 310.845 322.329 311.092L324.964 312.533C325.18 312.651 325.426 312.713 325.672 312.713L331.814 312.646C332.409 312.641 332.937 312.271 333.148 311.712L335.906 304.397C335.968 304.228 335.998 304.054 335.998 303.874L335.983 302.535C335.978 301.74 335.327 301.099 334.527 301.109Z" fill="#F7F7F7"/>
<path d="M308.812 312.713C308.812 312.713 315.893 324.495 319.477 328.42C321.308 330.425 333.327 323.198 338.695 314.118C344.063 305.034 332.598 322.007 308.812 312.713Z" fill="#2A94F4"/>
<path d="M440.454 343.957C446.281 343.957 451.006 339.231 451.006 333.4C451.006 327.57 446.281 322.844 440.454 322.844C434.626 322.844 429.901 327.57 429.901 333.4C429.901 339.231 434.626 343.957 440.454 343.957Z" fill="#EF81F6"/>
<path d="M484.497 104.485C490.325 104.485 495.05 99.759 495.05 93.9286C495.05 88.0983 490.325 83.3718 484.497 83.3718C478.67 83.3718 473.945 88.0983 473.945 93.9286C473.945 99.759 478.67 104.485 484.497 104.485Z" fill="#EF81F6"/>
<path d="M300.049 267.469C305.877 267.469 310.601 262.743 310.601 256.912C310.601 251.082 305.877 246.355 300.049 246.355C294.221 246.355 289.497 251.082 289.497 256.912C289.497 262.743 294.221 267.469 300.049 267.469Z" fill="#EF81F6"/>
</g>
<defs>
<clipPath id="clip0">
<rect width="628" height="554" fill="white"/>
</clipPath>
</defs>
</svg>