<svg width="694" height="516" viewBox="0 0 694 516" fill="none" xmlns="http://www.w3.org/2000/svg">
<g clip-path="url(#clip0)">
<path d="M575.742 147.723C598.415 157.922 621.55 169.29 637.475 188.386C642.788 194.756 647.359 202.491 646.897 210.772C646.036 226.214 628.326 235.412 612.863 235.44C597.4 235.468 582.357 229.672 566.894 229.714C558.914 229.735 548.925 233.599 549.03 241.586C549.093 246.36 552.929 250.119 556.485 253.297C583.778 277.692 611.071 302.087 638.371 326.482C647.464 334.609 656.844 343.128 661.576 354.37C666.308 365.612 664.943 380.424 655.15 387.704C648.703 392.499 640.142 393.129 632.106 393.269C595.615 393.92 559.313 388.306 523.424 381.691C396.521 358.311 271.977 322.191 152.249 274.066C130.325 265.253 106.791 254.424 96.3536 233.228C84.2996 208.728 97.1586 175.247 122.52 165.125C137.675 159.07 154.713 160.799 170.757 157.831C186.801 154.863 204.007 143.866 204.175 127.556C204.441 100.571 160.775 90.33 159.522 63.373C158.857 49.1 171.828 37.039 185.779 33.938C199.73 30.837 214.22 34.575 227.856 38.859C227.856 38.845 475.166 102.489 575.742 147.723Z" fill="#F7F7F7"/>
<path d="M613.347 427.695C601.846 417.622 588.693 406.94 573.426 407.626C560.749 408.193 549.696 416.726 541.814 426.68C533.932 436.627 528.353 448.205 520.793 458.404C512.827 469.142 501.319 478.816 487.949 478.718C473.914 478.613 462.455 468.022 452.522 458.103C430.598 436.214 408.674 414.325 386.75 392.436C374.605 380.312 359.87 367.236 342.839 369.329C325.836 371.422 314.713 387.648 305.865 402.32C292.404 424.643 278.95 446.973 265.489 469.296C262.808 473.748 259.938 478.382 255.43 480.972C243.509 487.825 229.474 476.933 220.045 466.923C210.336 456.612 200.347 446.147 187.817 439.532C175.294 432.917 159.565 430.705 147.049 437.341C139.069 441.569 133.224 448.849 127.61 455.926C105.931 483.268 84.2448 510.61 62.5658 537.952H721.469C721.469 537.945 649.39 459.258 613.347 427.695Z" fill="#CCE9FF"/>
<path d="M599.29 428.437C590.218 420.506 580.292 412.008 568.196 409.376C555.904 406.702 544.319 412.148 535.52 420.513C518.692 436.515 512.602 461.75 492.246 474.406C483.405 479.901 473.052 481.322 463.28 477.458C453.319 473.524 445.416 465.775 437.961 458.341C418.158 438.587 398.362 418.812 378.566 399.044C363.334 383.833 342.026 360.866 318.541 374.082C309.077 379.409 302.378 388.642 296.659 397.623C289.568 408.767 282.953 420.233 276.135 431.545C268.925 443.508 261.715 455.464 254.505 467.427C249.367 475.946 243.48 485.214 232.14 484.052C222.081 483.016 213.429 475.4 206.709 468.428C198.099 459.496 189.692 450.256 179.178 443.494C168.783 436.802 156.022 432.686 143.611 435.01C131.102 437.355 122.919 446.728 115.38 456.213C97.8938 478.214 80.4568 500.257 62.9918 522.279C58.6588 527.746 54.3187 533.213 49.9857 538.687C49.7407 538.092 49.4888 537.49 49.2438 536.895C55.1307 536.895 61.0107 536.895 66.8978 536.895C82.9068 536.895 98.9158 536.895 114.932 536.895C138.606 536.895 162.287 536.895 185.961 536.895C214.731 536.895 243.508 536.895 272.278 536.895C303.785 536.895 335.292 536.895 366.799 536.895C398.719 536.895 430.639 536.895 462.559 536.895C492.323 536.895 522.087 536.895 551.851 536.895C576.995 536.895 602.146 536.895 627.29 536.895C645.308 536.895 663.326 536.895 681.344 536.895C686.972 536.895 692.6 536.895 698.228 536.895C701.035 536.895 704.262 536.447 707.048 536.895C707.391 536.951 707.79 536.895 708.14 536.895C707.895 537.49 707.643 538.092 707.398 538.687C681.19 510.078 654.492 481.833 626.912 454.54C617.924 445.629 608.817 436.795 599.29 428.437C598.275 427.541 599.759 426.064 600.774 426.953C619.086 443.018 636.145 460.567 653.092 478.039C668.821 494.258 684.34 510.694 699.712 527.256C702.778 530.56 705.851 533.871 708.896 537.203C709.498 537.861 709.092 538.995 708.154 538.995C702.267 538.995 696.387 538.995 690.5 538.995C674.491 538.995 658.482 538.995 642.466 538.995C618.792 538.995 595.111 538.995 571.437 538.995C542.667 538.995 513.89 538.995 485.12 538.995C453.613 538.995 422.106 538.995 390.599 538.995C358.679 538.995 326.759 538.995 294.839 538.995C265.075 538.995 235.311 538.995 205.547 538.995C180.403 538.995 155.252 538.995 130.108 538.995C112.09 538.995 94.0718 538.995 76.0538 538.995C67.4998 538.995 58.9037 539.233 50.3497 538.995C49.9858 538.988 49.6218 538.995 49.2578 538.995C48.2708 538.995 47.9767 537.882 48.5157 537.203C66.4358 514.6 84.3628 491.997 102.283 469.394C109.983 459.685 117.242 448.506 126.944 440.638C135.54 433.666 146.236 431.23 157.114 432.742C168.391 434.31 178.506 439.77 187.326 446.784C196.979 454.463 204.525 464.242 213.8 472.285C223.005 480.272 236.683 487.202 246.378 475.946C250.788 470.822 253.917 464.361 257.396 458.593C261.12 452.412 264.844 446.238 268.568 440.057C275.897 427.898 283.226 415.739 290.555 403.58C295.973 394.592 301.601 385.422 309.392 378.261C316.378 371.842 325.205 367.551 334.872 368.104C345.393 368.706 354.703 374.495 362.634 381.026C372.714 389.328 381.625 399.135 390.858 408.347C401.001 418.476 411.144 428.605 421.294 438.727C430.534 447.953 439.452 457.774 449.413 466.223C458.891 474.266 470.644 480.293 483.251 476.31C507.492 468.652 515.066 439.812 530.585 422.578C537.655 414.724 546.951 408.088 557.675 406.779C568.7 405.428 579.074 410.258 587.859 416.495C592.381 419.701 596.602 423.299 600.774 426.946C601.796 427.849 600.305 429.326 599.29 428.437Z" fill="#CCE9FF"/>
<path d="M102.773 214.405C116.444 201.469 133.034 197.843 153.558 198.802C156.918 198.963 160.677 199.523 162.616 201.847C164.548 204.171 162.462 208.413 159.179 207.762C182.356 196.8 209.985 192.677 236.221 196.268C239.119 196.667 242.276 197.297 244.012 199.292C245.741 201.294 244.593 204.948 241.653 204.976C263.206 196.037 302.077 213.299 298.185 214.79L102.773 214.405Z" fill="#DCF2FF"/>
<path d="M197.149 338.053C209.784 326.097 225.121 322.744 244.084 323.633C247.192 323.78 250.664 324.298 252.456 326.447C254.241 328.596 252.309 332.516 249.285 331.914C270.705 321.778 296.241 317.97 320.489 321.288C323.17 321.652 326.089 322.24 327.685 324.088C329.288 325.936 328.224 329.317 325.508 329.345C345.43 321.078 381.347 337.038 377.749 338.417L197.149 338.053Z" fill="#DCF2FF"/>
<path d="M577.688 308.807L718.234 311.747L653.883 324.942L688.68 350.317L575.728 323.913L577.688 308.807Z" fill="#C28FFF"/>
<path d="M572.691 329.268L725.207 419.029L640.997 355.728L721.721 353.985L572.691 316.535V329.268Z" fill="#C28FFF"/>
<path d="M691.698 384.743L668.633 364.24L749.35 358.955L694.113 329.289L747.243 304.355H682.556L719.355 263.419L718.13 263.811C716.723 264.259 577.577 308.464 572.691 308.464H571.802L616.112 349.666L691.698 384.743ZM746.865 358.416L666.911 363.652L687.666 382.104L616.448 349.05L573.454 309.052C585.032 306.77 702.828 269.397 717.108 264.861L680.981 305.048H744.107L692.559 329.24L746.865 358.416Z" fill="#C28FFF"/>
<path d="M584.394 304.376L675.226 268.158L656.081 292.77L741.537 281.465L575.728 320.798L584.394 304.376Z" fill="#C28FFF"/>
<path d="M435.721 192.845C435.721 192.845 447.124 233.207 405.614 238.66C407.686 242.979 408.106 244.736 408.106 244.736C408.106 244.736 450.393 234.621 448.293 208.84C440.845 192.565 435.721 192.845 435.721 192.845Z" fill="#2189D6"/>
<path d="M525.531 267.228L567.986 247.019L616.258 304.699L575.728 295.844L525.531 267.228Z" fill="#2A94F4"/>
<path d="M508.934 343.184L539.097 379.262L607.018 346.964L566.495 338.109L508.934 343.184Z" fill="#2A94F4"/>
<path d="M560.98 331.55L578.018 333.566L584.395 304.376L567.987 299.511L560.98 331.55Z" fill="#0E538C"/>
<path d="M292.151 256.027C292.151 256.027 335.685 303.046 392.021 327.91C393.071 328.372 394.12 328.827 395.177 329.268C396.227 329.723 397.292 330.157 398.349 330.584C407.722 334.371 417.417 337.493 427.287 339.649C474.943 350.065 531.909 347.09 566.349 338.788L575.729 295.843C547.89 273.919 497.504 246.794 449.848 236.385C439.978 234.229 429.87 233.025 419.769 232.563C418.621 232.507 417.473 232.465 416.332 232.43C415.184 232.395 414.043 232.367 412.895 232.353C351.323 231.45 292.151 256.027 292.151 256.027Z" fill="#CCE9FF"/>
<path d="M292.152 256.027C292.152 256.027 335.685 303.046 392.021 327.91C393.071 328.372 394.121 328.827 395.178 329.268C408.842 316.668 417.984 301.156 421.659 284.321C425.334 267.493 423.493 249.58 416.325 232.43C415.177 232.395 414.036 232.367 412.888 232.353C351.323 231.45 292.152 256.027 292.152 256.027Z" fill="#2A94F4"/>
<path d="M412.894 232.354C414.042 232.368 415.183 232.396 416.331 232.431C417.472 232.466 418.62 232.508 419.768 232.564C423.009 240.628 425.13 248.839 426.082 257.021C427.174 266.45 426.719 275.858 424.724 284.986C422.729 294.114 419.222 302.864 414.294 310.97C410.017 318.012 404.662 324.599 398.355 330.577C397.298 330.15 396.234 329.709 395.184 329.261C394.127 328.813 393.077 328.365 392.027 327.903C405.467 315.863 414.84 300.883 418.606 283.649C422.365 266.416 420.09 248.902 412.894 232.354Z" fill="#0E538C"/>
<path d="M399.482 236.357C381.373 237.183 320.151 249.307 306.074 255.39C318.233 254.459 392.909 240.893 397.242 246.619C399.328 240.704 399.482 236.357 399.482 236.357Z" fill="#CCE9FF"/>
<path d="M515.996 310.858L591.715 327.406L611.637 325.831L594.186 316.094L518.467 299.553L515.996 310.858Z" fill="#2A94F4"/>
<path d="M441.432 310.578L430.19 324.942L445.849 315.66V317.76L449.629 315.219L446.073 308.807L441.432 310.578Z" fill="#0B4870"/>
<path d="M430.491 273.387C429.462 272.099 430.176 270.181 431.793 269.873C445.611 267.22 476.607 259.289 481.29 254.158C486.512 248.439 479.302 240.984 474.08 237.008L457.539 244.043L414.888 264.063C413.712 264.616 413.271 266.065 413.936 267.178L440.172 311.754C440.172 311.754 444.897 311.257 448.124 310.508C448.124 310.508 435.867 278.742 430.491 273.387Z" fill="#0B3E60"/>
<path d="M424.871 242.167H413.181L416.772 243.266L413.181 246.304L417.045 250.175L424.871 245.618V242.167Z" fill="#FCD2B1"/>
<path d="M435.209 191.578L439.395 215.77L457.539 244.036L476.887 238.898L458.75 186.482L438.331 182.065L435.209 191.578Z" fill="#2A94F4"/>
<path d="M429.141 185.264L435.721 192.845L438.332 182.065L435.21 180.119L429.141 185.264Z" fill="#FCD2B1"/>
<path d="M436.512 161.471C439.501 162.675 440.999 170.333 440.537 171.95C440.075 173.567 435.665 180.119 435.665 180.119L427.797 162.815L436.512 161.471Z" fill="#0E538C"/>
<path d="M424.906 166.714C424.906 166.714 419.012 189.058 423.359 188.043C427.706 187.021 434.062 186.188 434.867 184.032C435.672 181.876 437.583 167.673 435.756 165.482C433.929 163.291 425.242 165.328 425.242 165.328L424.906 166.714Z" fill="#FFE3CA"/>
<path d="M437.094 167.4C438.144 166.504 438.592 164.957 438.186 163.634C437.612 161.779 435.631 160.708 433.72 160.372C431.809 160.036 429.842 160.246 427.917 159.966C425.999 159.686 423.983 158.741 423.255 156.949C422.219 157.873 421.638 159.287 421.722 160.673C421.078 160.092 420.427 159.511 419.783 158.93C420.714 161.765 421.799 164.81 424.291 166.448C426.72 168.037 429.856 167.869 432.747 167.645C432.754 167.638 436.044 168.296 437.094 167.4Z" fill="#0E538C"/>
<path d="M432.984 166.973L437.044 173.245L437.443 165.447L432.984 166.973Z" fill="#0E538C"/>
<path d="M435.81 177.449C435.055 177.221 434.698 176.193 435.012 175.153C435.326 174.113 436.192 173.455 436.947 173.683C437.702 173.911 438.06 174.939 437.746 175.979C437.432 177.019 436.565 177.677 435.81 177.449Z" fill="#FFE3CA"/>
<path d="M458.751 186.482C458.751 186.482 487.815 242.167 423.73 247.074C424.052 243.952 424.052 241.544 424.052 241.544C424.052 241.544 457.211 237.127 452.178 208.308C451.639 205.235 450.638 202.267 449.399 199.404C443.757 186.335 458.751 186.482 458.751 186.482Z" fill="#45AFFF"/>
<path d="M150.437 331.032C152.775 331.319 155.204 331.62 156.975 331.851C170.828 313.903 182.553 279.932 188.51 241.838C186.326 241.572 184.149 241.299 181.965 241.033C176.008 279.113 164.29 313.077 150.437 331.032Z" fill="#F7F7F7"/>
<path d="M150.437 331.032C150.29 331.221 150.143 331.41 149.996 331.599C152.18 331.865 154.357 332.138 156.541 332.404C156.688 332.222 156.828 332.033 156.975 331.851C155.204 331.62 152.775 331.319 150.437 331.032Z" fill="#F7F7F7"/>
<path d="M149.996 331.599C147.189 335.162 144.291 338.06 141.344 340.202L147.889 341.007C150.836 338.865 153.734 335.967 156.541 332.404C154.357 332.138 152.18 331.865 149.996 331.599Z" fill="#F7F7F7"/>
<path d="M178.137 199.439C177.213 251.316 160.917 304.663 141.737 318.6L148.282 319.405C167.462 305.468 183.758 252.121 184.682 200.244C184.913 187.273 184.164 175.625 182.603 165.664C180.419 165.398 178.242 165.125 176.058 164.859C177.612 174.82 178.368 186.468 178.137 199.439Z" fill="#C28FFF"/>
<path d="M160.517 260.227C155.694 276.019 149.198 288.332 142.177 293.435L148.722 294.24C155.743 289.137 162.239 276.824 167.062 261.032C164.878 260.766 162.701 260.493 160.517 260.227Z" fill="#F7F7F7"/>
<path d="M149.163 261.564C147.126 265.302 144.907 268.165 142.597 269.838L149.142 270.643C151.445 268.97 153.671 266.107 155.708 262.369C153.531 262.103 151.347 261.837 149.163 261.564Z" fill="#C28FFF"/>
<path d="M150.787 223.4C149.912 233.298 146.713 242.58 143.038 245.254L149.583 246.059C153.258 243.385 156.457 234.103 157.332 224.205C155.155 223.932 152.971 223.666 150.787 223.4Z" fill="#F7F7F7"/>
<path d="M168.833 206.194C168.497 225.178 165.34 244.435 160.517 260.227C162.701 260.493 164.878 260.766 167.062 261.032C171.885 245.247 175.035 225.99 175.378 206.999C175.931 176.192 168.903 155.563 158.739 154.31L152.194 153.505C162.358 154.765 169.379 175.394 168.833 206.194Z" fill="#F7F7F7"/>
<path d="M186.123 193.636C185.836 209.582 184.373 225.64 181.965 241.033C184.149 241.299 186.326 241.572 188.51 241.838C190.918 226.452 192.381 210.387 192.668 194.441C193.592 142.683 181.79 108.019 164.71 105.919L158.165 105.114C175.245 107.214 187.047 141.878 186.123 193.636Z" fill="#F7F7F7"/>
<path d="M160.111 212.536C159.775 231.247 155.281 250.357 149.17 261.571C151.354 261.837 153.531 262.11 155.715 262.376C161.833 251.162 166.327 232.052 166.656 213.341C167.02 193.104 162.407 179.552 155.729 178.733L149.184 177.928C155.855 178.747 160.468 192.299 160.111 212.536Z" fill="#C28FFF"/>
<path d="M155.407 127.465C165.011 128.648 172.564 142.501 176.057 164.859C178.241 165.125 180.418 165.398 182.602 165.664C179.109 143.306 171.556 129.453 161.952 128.27C159.985 128.032 157.367 127.71 155.407 127.465Z" fill="#C28FFF"/>
<path d="M151.018 219.137C150.99 220.558 150.913 221.979 150.787 223.393C152.971 223.659 155.148 223.932 157.332 224.198C157.458 222.784 157.535 221.363 157.563 219.942C157.731 210.723 155.624 204.549 152.579 204.178L146.034 203.373C149.079 203.744 151.186 209.925 151.018 219.137Z" fill="#F7F7F7"/>
<path d="M142.604 269.838C140.861 271.105 139.195 271.602 137.641 271.413L144.186 272.218C145.74 272.407 147.406 271.91 149.149 270.643C147.182 270.405 144.515 269.348 142.604 269.838Z" fill="#C28FFF"/>
<path d="M143.038 245.247C142.247 245.821 141.484 246.052 140.777 245.961L147.322 246.766C148.029 246.85 148.792 246.626 149.583 246.052C147.623 245.814 144.956 244.75 143.038 245.247Z" fill="#F7F7F7"/>
<path d="M142.177 293.435C139.524 295.36 136.99 296.123 134.624 295.829L141.169 296.634C143.535 296.928 146.069 296.165 148.722 294.24C146.762 294.002 144.144 293.673 142.177 293.435Z" fill="#F7F7F7"/>
<path d="M141.729 318.6C138.11 321.232 134.645 322.268 131.411 321.869L137.956 322.674C141.19 323.073 144.655 322.037 148.274 319.405C146.314 319.167 143.647 318.103 141.729 318.6Z" fill="#C28FFF"/>
<path d="M141.344 340.202C136.892 343.436 132.629 344.717 128.653 344.227L135.198 345.032C139.174 345.522 143.437 344.241 147.889 341.007C145.929 340.769 143.311 340.44 141.344 340.202Z" fill="#F7F7F7"/>
<path d="M152.579 204.178L146.034 203.373C145.327 203.289 144.564 203.513 143.773 204.087L150.318 204.892C151.116 204.318 151.872 204.094 152.579 204.178Z" fill="#C28FFF"/>
<path d="M155.722 178.733L149.177 177.928C147.623 177.739 145.957 178.236 144.214 179.503L150.759 180.308C152.502 179.041 154.168 178.537 155.722 178.733Z" fill="#F7F7F7"/>
<path d="M158.738 154.317L152.193 153.512C149.827 153.218 147.286 153.981 144.633 155.906L151.178 156.711C153.831 154.779 156.372 154.023 158.738 154.317Z" fill="#C28FFF"/>
<path d="M140.777 245.961L147.322 246.766C144.284 246.388 142.177 240.221 142.345 230.995C142.548 219.634 146.118 207.937 150.318 204.892L143.773 204.087C139.573 207.139 136.003 218.829 135.8 230.19C135.639 239.416 137.739 245.59 140.777 245.961Z" fill="#C28FFF"/>
<path d="M161.951 128.27L155.406 127.465C152.172 127.066 148.707 128.102 145.081 130.734L151.626 131.539C155.252 128.914 158.717 127.871 161.951 128.27Z" fill="#F7F7F7"/>
<path d="M164.71 105.919L158.165 105.114C154.189 104.624 149.926 105.898 145.467 109.139L152.012 109.944C156.471 106.703 160.734 105.429 164.71 105.919Z" fill="#C28FFF"/>
<path d="M137.641 271.413L144.186 272.218C137.508 271.392 132.895 257.84 133.259 237.61C133.707 212.662 141.547 187.007 150.766 180.308L144.221 179.503C135.002 186.202 127.162 211.857 126.714 236.805C126.35 257.035 130.963 270.587 137.641 271.413Z" fill="#F7F7F7"/>
<path d="M134.624 295.829L141.169 296.634C131.005 295.381 123.984 274.745 124.53 243.945C125.209 205.963 137.144 166.91 151.179 156.711L144.634 155.906C130.599 166.105 118.664 205.165 117.985 243.14C117.439 273.94 124.46 294.576 134.624 295.829Z" fill="#C28FFF"/>
<path d="M131.411 321.869L137.956 322.674C124.075 320.959 114.485 292.777 115.234 250.7C116.158 198.823 132.454 145.476 151.634 131.539L145.089 130.734C125.909 144.664 109.613 198.018 108.689 249.895C107.933 291.972 117.523 320.161 131.411 321.869Z" fill="#F7F7F7"/>
<path d="M128.646 344.227L135.191 345.032C118.118 342.925 106.316 308.261 107.24 256.51C108.381 192.705 128.429 127.087 152.012 109.944L145.467 109.139C121.877 126.275 101.836 191.9 100.695 255.705C99.7707 307.456 111.573 342.12 128.646 344.227Z" fill="#C28FFF"/>
<path d="M152.012 109.944C128.421 127.08 108.381 192.705 107.24 256.51C106.099 320.322 124.299 358.15 147.889 341.014C171.479 323.878 191.527 258.26 192.668 194.448C193.802 130.636 175.602 92.8008 152.012 109.944ZM148.274 319.405C129.094 333.335 114.302 302.584 115.226 250.7C116.15 198.823 132.447 145.476 151.627 131.539C170.807 117.602 185.598 148.367 184.674 200.244C183.75 252.128 167.454 305.475 148.274 319.405Z" fill="#C28FFF"/>
<path d="M150.759 180.308C141.54 187.007 133.7 212.662 133.252 237.61C132.804 262.558 139.923 277.349 149.142 270.65C158.368 263.951 166.201 238.296 166.649 213.348C167.097 188.393 159.978 173.602 150.759 180.308ZM149.583 246.052C145.383 249.104 142.142 242.37 142.345 231.002C142.548 219.641 146.118 207.944 150.318 204.899C154.518 201.847 157.766 208.588 157.563 219.949C157.36 231.317 153.79 243 149.583 246.052Z" fill="#F7F7F7"/>
<path d="M115.227 250.707C115.906 212.613 124.88 173.721 137.186 150.229C137.445 149.732 137.711 149.235 137.977 148.752C139.3 146.323 140.665 144.076 142.058 142.018C142.338 141.605 142.618 141.206 142.898 140.807C145.705 136.859 148.631 133.723 151.627 131.546C155.225 128.935 158.662 127.892 161.875 128.27C163.751 128.487 165.543 129.187 167.251 130.342C167.741 130.671 168.217 131.035 168.686 131.441C169.155 131.84 169.624 132.281 170.079 132.757C171.444 134.178 172.732 135.914 173.943 137.951C174.349 138.63 174.741 139.344 175.119 140.086C175.504 140.828 175.875 141.605 176.239 142.417C176.603 143.229 176.96 144.069 177.303 144.937C181.944 156.704 184.695 174.134 184.716 195.456C184.716 197.038 184.702 198.634 184.674 200.258C184.31 220.523 181.608 241.012 177.296 259.289C177.121 260.017 176.946 260.745 176.771 261.473C175.35 267.262 173.775 272.82 172.053 278.056C170.121 283.95 168.021 289.438 165.774 294.415C165.277 295.521 164.773 296.599 164.262 297.656C159.404 307.673 153.965 315.282 148.267 319.419C147.371 320.07 146.482 320.63 145.6 321.085C145.012 321.393 144.431 321.652 143.857 321.876C143.283 322.1 142.709 322.275 142.149 322.415C141.302 322.625 140.469 322.737 139.643 322.765C139.097 322.779 138.551 322.758 138.019 322.695C124.635 321.134 115.22 294.996 115.185 255.516C115.185 253.927 115.199 252.324 115.227 250.707ZM148.722 294.24C162.764 284.041 174.699 244.981 175.371 207.006C176.05 169.024 165.214 146.512 151.172 156.711C137.137 166.91 125.202 205.97 124.523 243.945C123.851 281.927 134.687 304.439 148.722 294.24Z" fill="#F7F7F7"/>
<path d="M125.922 366.298L132.467 367.103C112.237 364.604 98.2585 323.542 99.3575 262.229C100.709 186.643 124.453 108.901 152.396 88.6009L145.851 87.7959C117.907 108.096 94.1565 185.838 92.8125 261.424C91.7135 322.737 105.693 363.806 125.922 366.298Z" fill="#DBDBDB"/>
<path d="M99.3508 262.236C100.702 186.65 124.446 108.908 152.39 88.608C180.334 68.301 201.894 113.122 200.55 188.715C199.199 264.308 175.455 342.043 147.504 362.343C119.567 382.643 98.0068 337.829 99.3508 262.236ZM107.87 281.801C108.066 284.51 108.304 287.149 108.577 289.711C108.836 292.112 109.123 294.443 109.452 296.711C109.578 297.6 109.711 298.482 109.851 299.35C110.075 300.771 110.313 302.164 110.565 303.529C110.698 304.264 110.838 304.985 110.978 305.706C111.237 307.008 111.51 308.275 111.79 309.521C111.853 309.808 111.923 310.095 111.986 310.382C112.224 311.404 112.469 312.405 112.728 313.385C112.805 313.693 112.889 313.994 112.973 314.302C113.757 317.207 114.604 319.93 115.528 322.464C115.661 322.828 115.794 323.178 115.927 323.535C116.578 325.264 117.264 326.895 117.985 328.435C118.678 329.912 119.392 331.305 120.134 332.6C120.974 334.063 121.849 335.414 122.752 336.632C123.235 337.283 123.732 337.899 124.243 338.48C124.306 338.557 124.376 338.634 124.439 338.704C125.244 339.614 126.07 340.433 126.91 341.154C127.491 341.651 128.079 342.099 128.681 342.505C129.283 342.911 129.885 343.268 130.508 343.583C131.124 343.898 131.754 344.164 132.384 344.381C132.958 344.584 133.539 344.738 134.127 344.857C134.239 344.878 134.351 344.899 134.463 344.92C135.037 345.025 135.618 345.095 136.206 345.123C136.234 345.123 136.262 345.13 136.29 345.13C139.951 345.284 143.843 343.961 147.896 341.021C162.358 330.514 175.483 301.793 183.743 266.436C184.072 265.043 184.387 263.636 184.695 262.222C185.178 260.01 185.647 257.777 186.095 255.523C186.767 252.135 187.39 248.698 187.971 245.226C188.181 243.966 188.384 242.692 188.58 241.425C190.19 231.044 191.373 220.362 192.052 209.617C192.059 209.491 192.066 209.365 192.073 209.239C192.381 204.311 192.584 199.376 192.668 194.448C193.809 130.643 175.609 92.808 152.019 109.951C149.842 111.533 147.693 113.535 145.586 115.901C145.131 116.412 144.676 116.944 144.228 117.49C124.166 141.808 108.255 199.873 107.247 256.51C107.079 265.477 107.303 273.94 107.87 281.801Z" fill="#F7F7F7"/>
<path d="M143.675 219.361C143.801 218.766 143.934 218.171 144.074 217.597C144.151 217.282 144.235 216.967 144.312 216.659C144.473 216.036 144.648 215.434 144.83 214.839C144.921 214.545 145.012 214.251 145.103 213.964C145.292 213.39 145.488 212.837 145.691 212.298C147.007 208.805 148.61 206.145 150.318 204.899C150.843 204.514 151.354 204.29 151.844 204.206C154.539 203.737 156.639 207.587 157.325 214.083C157.353 214.377 157.388 214.678 157.409 214.986C157.458 215.595 157.5 216.232 157.528 216.883C157.57 217.863 157.577 218.885 157.563 219.956C157.472 224.933 156.744 229.966 155.589 234.313C155.428 234.936 155.253 235.538 155.071 236.133C154.707 237.316 154.315 238.429 153.902 239.465C153.482 240.501 153.041 241.453 152.572 242.3C152.453 242.51 152.341 242.72 152.222 242.923C151.746 243.721 151.256 244.421 150.745 244.995C150.367 245.429 149.975 245.786 149.583 246.073C148.008 247.214 146.566 246.983 145.39 245.646C145.194 245.422 145.005 245.17 144.823 244.89C144.375 244.183 143.969 243.294 143.626 242.237C143.486 241.817 143.36 241.369 143.248 240.893C143.073 240.186 142.919 239.416 142.793 238.597C142.492 236.686 142.331 234.495 142.331 232.073C142.331 231.73 142.331 231.373 142.338 231.023C142.415 227.033 142.898 223.029 143.675 219.361Z" fill="#C28FFF"/>
<path d="M167.439 83.8409L160.894 83.0359C156.183 82.4549 151.129 83.9669 145.851 87.8029L152.396 88.6079C157.674 84.7719 162.728 83.2599 167.439 83.8409Z" fill="#DBDBDB"/>
<path d="M151.179 156.711C137.144 166.91 125.209 205.97 124.53 243.945C123.851 281.927 134.687 304.439 148.722 294.24C162.764 284.041 174.699 244.981 175.371 207.006C176.057 169.024 165.221 146.512 151.179 156.711ZM149.142 270.65C139.923 277.349 132.804 262.558 133.252 237.61C133.7 212.662 141.54 187.007 150.759 180.308C159.985 173.609 167.097 188.393 166.656 213.348C166.208 238.289 158.368 263.944 149.142 270.65Z" fill="#C28FFF"/>
<path d="M378.707 117.042C397.292 99.4648 419.839 94.5298 447.734 95.8388C452.305 96.0558 457.415 96.8188 460.04 99.9758C462.672 103.133 459.83 108.901 455.371 108.012C486.871 93.1088 524.426 87.5088 560.084 92.3878C564.025 92.9268 568.316 93.7808 570.668 96.5038C573.02 99.2198 571.459 104.19 567.469 104.232C596.771 92.0728 649.6 115.53 644.308 117.56L378.707 117.042Z" fill="#DCF2FF"/>
</g>
<defs>
<clipPath id="clip0">
<rect width="756" height="516" fill="white" transform="matrix(-1 0 0 1 756 0)"/>
</clipPath>
</defs>
</svg>
