<svg width="17" height="17" viewBox="0 0 17 17" fill="none" xmlns="http://www.w3.org/2000/svg">
<path d="M11.1074 8.625L16.3809 3.40039C16.6738 3.10742 16.6738 2.57031 16.3809 2.27734L15.1602 1.05664C14.8672 0.763672 14.3301 0.763672 14.0371 1.05664L8.8125 6.33008L3.53906 1.05664C3.24609 0.763672 2.70898 0.763672 2.41602 1.05664L1.19531 2.27734C0.902344 2.57031 0.902344 3.10742 1.19531 3.40039L6.46875 8.625L1.19531 13.8984C0.902344 14.1914 0.902344 14.7285 1.19531 15.0215L2.41602 16.2422C2.70898 16.5352 3.24609 16.5352 3.53906 16.2422L8.8125 10.9688L14.0371 16.2422C14.3301 16.5352 14.8672 16.5352 15.1602 16.2422L16.3809 15.0215C16.6738 14.7285 16.6738 14.1914 16.3809 13.8984L11.1074 8.625Z" fill="#3E3E3E"/>
</svg>
