<svg width="16" height="22" viewBox="0 0 16 22" fill="none" xmlns="http://www.w3.org/2000/svg">
<path d="M6.91603 14.9598V17.2003H5.8327C5.54538 17.2003 5.26983 17.3142 5.06666 17.5169C4.8635 17.7197 4.74936 17.9946 4.74936 18.2814C4.74936 18.5681 4.8635 18.8431 5.06666 19.0458C5.26983 19.2485 5.54538 19.3624 5.8327 19.3624H6.91603V20.4435C6.91603 20.7302 7.03017 21.0052 7.23333 21.2079C7.43649 21.4107 7.71204 21.5246 7.99936 21.5246C8.28668 21.5246 8.56223 21.4107 8.76539 21.2079C8.96856 21.0052 9.0827 20.7302 9.0827 20.4435V19.3624H10.166C10.4533 19.3624 10.7289 19.2485 10.9321 19.0458C11.1352 18.8431 11.2494 18.5681 11.2494 18.2814C11.2494 17.9946 11.1352 17.7197 10.9321 17.5169C10.7289 17.3142 10.4533 17.2003 10.166 17.2003H9.0827V14.9598C10.9802 14.6864 12.7036 13.706 13.906 12.2158C15.1084 10.7256 15.7005 8.83624 15.5632 6.92793C15.4259 5.01963 14.5694 3.23404 13.166 1.93053C11.7626 0.62702 9.91658 -0.0976562 7.99936 -0.0976562C6.08214 -0.0976562 4.23608 0.62702 2.8327 1.93053C1.42932 3.23404 0.572795 5.01963 0.435498 6.92793C0.298202 8.83624 0.890327 10.7256 2.09271 12.2158C3.29509 13.706 5.01847 14.6864 6.91603 14.9598ZM7.99936 2.06525C9.07068 2.06525 10.1179 2.38227 11.0087 2.97622C11.8995 3.57017 12.5937 4.41437 13.0037 5.40208C13.4137 6.38978 13.521 7.47662 13.3119 8.52516C13.1029 9.5737 12.5871 10.5368 11.8295 11.2928C11.072 12.0487 10.1068 12.5636 9.0561 12.7721C8.00537 12.9807 6.91626 12.8737 5.92649 12.4645C4.93673 12.0554 4.09076 11.3626 3.49557 10.4737C2.90038 9.58477 2.58269 8.5397 2.58269 7.47062C2.58269 6.03703 3.15338 4.66215 4.1692 3.64845C5.18502 2.63474 6.56277 2.06525 7.99936 2.06525Z" fill="#FFBAFC"/>
</svg>
