<svg width="22" height="21" viewBox="0 0 22 21" fill="none" xmlns="http://www.w3.org/2000/svg">
<path d="M7.70024 20.7792C9.05471 20.7767 10.382 20.4068 11.5349 19.7107C12.6878 19.0145 13.6214 18.0193 14.232 16.8354C14.8426 15.6515 15.1064 14.3251 14.9942 13.0033C14.882 11.6815 14.3981 10.4159 13.5962 9.34696L19.4336 3.63082V8.21235H21.6336V1.03126C21.6336 0.745583 21.5177 0.471602 21.3114 0.269595C21.1051 0.0675879 20.8253 -0.0458984 20.5336 -0.0458984H13.2002V2.10843H17.8789L12.0416 7.82457C11.1084 7.14871 10.0246 6.69942 8.87952 6.51366C7.73441 6.32789 6.56062 6.41096 5.45469 6.75602C4.34875 7.10109 3.34226 7.69829 2.51797 8.49852C1.69368 9.29876 1.07515 10.2792 0.713241 11.3591C0.351329 12.4391 0.256374 13.5877 0.436185 14.7106C0.615996 15.8335 1.06544 16.8986 1.74755 17.8182C2.42966 18.7379 3.32495 19.4858 4.35981 20.0006C5.39467 20.5154 6.53953 20.7822 7.70024 20.7792ZM7.70024 8.5714C8.71552 8.5714 9.708 8.86622 10.5522 9.41856C11.3963 9.97091 12.0543 10.756 12.4428 11.6745C12.8314 12.593 12.933 13.6037 12.7349 14.5788C12.5369 15.5539 12.048 16.4496 11.3301 17.1526C10.6121 17.8556 9.69747 18.3344 8.7017 18.5283C7.70593 18.7223 6.67379 18.6227 5.7358 18.2423C4.7978 17.8618 3.99609 17.2175 3.43203 16.3909C2.86797 15.5642 2.56691 14.5924 2.56691 13.5982C2.56691 12.265 3.10774 10.9864 4.07042 10.0437C5.03311 9.10101 6.33879 8.5714 7.70024 8.5714Z" fill="#0E538C"/>
</svg>
