<svg width="144" height="82" viewBox="0 0 144 82" fill="none" xmlns="http://www.w3.org/2000/svg">
<line x1="15.0682" y1="34.5047" x2="124.068" y2="49.5047" stroke="black"/>
<path d="M52.9001 28.0912C52.4863 28.3759 51.9897 28.5745 51.4102 28.687C50.8517 28.7834 50.2763 28.7929 49.684 28.7154C48.3143 28.5363 47.3077 28.0282 46.6641 27.191C46.0206 26.3538 45.7872 25.2596 45.9639 23.9085L47.1184 15.0796L44.5086 14.7384L44.7265 13.0725L47.3362 13.4138L47.7538 10.221L49.725 10.4788L49.3075 13.6716L53.7496 14.2525L53.5318 15.9183L49.0896 15.3374L47.9496 24.0552C47.8358 24.9251 47.9616 25.6193 48.3267 26.1377C48.7129 26.64 49.3131 26.9444 50.1275 27.0509C50.5347 27.1041 50.9319 27.0902 51.319 27.009C51.7247 26.9303 52.082 26.7888 52.3911 26.5845L52.9001 28.0912ZM65.7372 15.7072C67.5696 15.9468 68.9524 16.6735 69.8855 17.8875C70.8396 19.0853 71.1835 20.7022 70.9173 22.7382L69.8099 31.2061L67.8387 30.9483L68.9206 22.6748C69.1191 21.157 68.8909 19.9506 68.2362 19.0555C67.5814 18.1603 66.5506 17.6208 65.1439 17.4368C63.5707 17.2311 62.2596 17.5397 61.2107 18.3626C60.1827 19.1695 59.561 20.3966 59.3456 22.0439L58.3435 29.7066L56.3723 29.4489L59.0663 8.84826L61.0375 9.10604L59.9192 17.6572C60.5673 16.876 61.3936 16.3158 62.3981 15.9765C63.4026 15.6372 64.5156 15.5474 65.7372 15.7072ZM88.8065 26.8848L76.5905 25.2873C76.5031 26.8196 76.9252 28.1267 77.8568 29.2086C78.7908 30.2721 80.0629 30.909 81.6732 31.1196C82.5801 31.2382 83.4336 31.1898 84.2336 30.9744C85.0361 30.7405 85.7561 30.3452 86.3936 29.7885L87.3372 31.2108C86.5877 31.9035 85.6958 32.3893 84.6616 32.6682C83.6459 32.9495 82.555 33.014 81.3889 32.8615C79.8897 32.6654 78.5982 32.1765 77.5144 31.3947C76.4516 30.5968 75.6701 29.591 75.1699 28.3772C74.6697 27.1634 74.5128 25.844 74.6992 24.4188C74.8856 22.9936 75.358 21.7564 76.1164 20.7072C76.8934 19.6604 77.8598 18.8926 79.0156 18.4037C80.1899 17.9172 81.4526 17.7623 82.8038 17.939C84.155 18.1156 85.3262 18.5888 86.3174 19.3585C87.3086 20.1282 88.0358 21.1175 88.499 22.3265C88.9646 23.5169 89.1029 24.8339 88.9142 26.2777L88.8065 26.8848ZM82.5823 19.6325C81.1757 19.4486 79.9318 19.7471 78.8507 20.5282C77.7906 21.2932 77.1013 22.3891 76.7829 23.8159L87.1388 25.1701C87.198 23.7094 86.8045 22.472 85.9582 21.4577C85.1328 20.4273 84.0075 19.8189 82.5823 19.6325ZM108.686 21.3236C110.056 21.5027 111.255 21.9795 112.283 22.754C113.314 23.5101 114.07 24.4937 114.551 25.7051C115.033 26.9164 115.179 28.244 114.991 29.6877C114.802 31.1314 114.319 32.3766 113.542 33.4234C112.765 34.4701 111.78 35.2356 110.587 35.7196C109.395 36.2037 108.113 36.3562 106.744 36.1771C105.522 36.0174 104.455 35.6142 103.541 34.9677C102.647 34.3236 101.967 33.4723 101.503 32.4138L101.126 35.3013L99.2378 35.0544L101.932 14.4538L103.903 14.7115L102.756 23.4849C103.49 22.6208 104.361 22.0098 105.367 21.652C106.395 21.2781 107.501 21.1687 108.686 21.3236ZM106.834 34.4098C107.852 34.543 108.807 34.4326 109.701 34.0788C110.596 33.7065 111.333 33.1156 111.909 32.3062C112.504 31.4992 112.874 30.5404 113.019 29.4299C113.165 28.3194 113.054 27.2977 112.686 26.3648C112.337 25.4344 111.776 24.6833 111.004 24.1117C110.234 23.5215 109.34 23.1599 108.322 23.0268C107.286 22.8912 106.319 23.0096 105.424 23.3819C104.549 23.7381 103.814 24.3198 103.219 25.1268C102.642 25.9362 102.281 26.8961 102.136 28.0067C101.991 29.1172 102.093 30.1377 102.442 31.0682C102.809 32.001 103.369 32.7613 104.12 33.3491C104.893 33.9207 105.797 34.2743 106.834 34.4098ZM120.748 16.9144L122.719 17.1722L120.025 37.7728L118.054 37.515L120.748 16.9144ZM131.461 39.4094C130.055 39.2255 128.828 38.745 127.781 37.9681C126.737 37.1726 125.964 36.168 125.464 34.9542C124.964 33.7404 124.807 32.421 124.994 30.9958C125.18 29.5706 125.671 28.3358 126.466 27.2915C127.262 26.2471 128.265 25.4841 129.477 25.0024C130.688 24.5208 131.997 24.3719 133.404 24.5559C134.81 24.7398 136.037 25.2203 137.084 25.9972C138.131 26.7742 138.895 27.7684 139.376 28.9797C139.877 30.1935 140.034 31.513 139.847 32.9382C139.661 34.3634 139.17 35.5981 138.374 36.6425C137.597 37.6892 136.602 38.4627 135.388 38.9629C134.177 39.4445 132.868 39.5934 131.461 39.4094ZM131.69 37.6603C132.727 37.7959 133.682 37.6855 134.557 37.3293C135.453 36.957 136.189 36.3661 136.766 35.5567C137.342 34.7473 137.703 33.7873 137.848 32.6767C137.993 31.5662 137.892 30.5457 137.543 29.6153C137.194 28.6848 136.633 27.9338 135.861 27.3621C135.109 26.7744 134.215 26.4128 133.179 26.2772C132.142 26.1417 131.176 26.2601 130.28 26.6324C129.405 26.9886 128.67 27.5702 128.075 28.3772C127.499 29.1866 127.138 30.1466 126.993 31.2572C126.847 32.3677 126.949 33.3882 127.298 34.3186C127.666 35.2515 128.225 36.0118 128.977 36.5995C129.749 37.1712 130.653 37.5248 131.69 37.6603ZM87.973 53.0174L86.2956 65.8442C85.9713 68.3244 85.1209 70.0769 83.7444 71.1017C82.3839 72.1475 80.4821 72.5106 78.0389 72.1911C76.6878 72.0144 75.428 71.6426 74.2597 71.0757C73.1074 70.5296 72.1978 69.8553 71.5309 69.0528L72.7265 67.6842C73.3475 68.4055 74.1348 69.0073 75.0883 69.4897C76.0603 69.9745 77.1016 70.2895 78.2121 70.4348C80.063 70.6768 81.4803 70.4197 82.464 69.6636C83.4453 68.9259 84.0545 67.6501 84.2917 65.8362L84.535 63.9761C83.8032 64.8217 82.906 65.4197 81.8436 65.7703C80.7997 66.1232 79.6762 66.221 78.4731 66.0637C77.1034 65.8846 75.8928 65.4251 74.8412 64.6851C73.8105 63.9291 73.0415 62.972 72.5341 61.8137C72.0476 60.6394 71.8939 59.3674 72.073 57.9977C72.2521 56.628 72.7265 55.4476 73.4962 54.4564C74.2844 53.4676 75.2725 52.7496 76.4605 52.3025C77.6485 51.8555 78.9366 51.7227 80.3247 51.9042C81.5649 52.0664 82.652 52.4627 83.5861 53.0932C84.5203 53.7236 85.231 54.5508 85.7184 55.5746L86.0851 52.7705L87.973 53.0174ZM78.8962 64.34C79.9512 64.478 80.9335 64.3805 81.843 64.0476C82.7549 63.6962 83.4955 63.1436 84.0647 62.3897C84.6525 61.6382 85.0141 60.7443 85.1496 59.7078C85.2852 58.6712 85.1644 57.7236 84.7872 56.8648C84.431 55.9898 83.8562 55.2746 83.0629 54.7191C82.2905 54.1474 81.3675 53.7914 80.294 53.651C79.239 53.513 78.2567 53.6105 77.3472 53.9434C76.4562 54.2787 75.7168 54.8221 75.1291 55.5735C74.5599 56.3274 74.2075 57.2226 74.0719 58.2591C73.9364 59.2956 74.0467 60.2513 74.403 61.1263C74.7777 62.0036 75.3513 62.7281 76.1237 63.2997C76.917 63.8553 77.8412 64.202 78.8962 64.34ZM107.006 55.5063L105.329 68.3331C105.005 70.8133 104.154 72.5659 102.778 73.5907C101.417 74.6365 99.5154 74.9996 97.0722 74.6801C95.721 74.5034 94.4613 74.1316 93.2929 73.5646C92.1407 73.0186 91.2311 72.3443 90.5642 71.5417L91.7597 70.1732C92.3808 70.8945 93.1681 71.4963 94.1216 71.9787C95.0936 72.4635 96.1349 72.7785 97.2454 72.9237C99.0963 73.1658 100.514 72.9087 101.497 72.1525C102.479 71.4149 103.088 70.1391 103.325 68.3252L103.568 66.4651C102.836 67.3106 101.939 67.9087 100.877 68.2592C99.833 68.6122 98.7095 68.71 97.5064 68.5527C96.1367 68.3736 94.9261 67.914 93.8745 67.1741C92.8438 66.4181 92.0748 65.4609 91.5673 64.3027C91.0808 63.1284 90.9271 61.8564 91.1062 60.4867C91.2853 59.117 91.7597 57.9366 92.5294 56.9453C93.3176 55.9565 94.3057 55.2386 95.4937 54.7915C96.6817 54.3445 97.9698 54.2117 99.358 54.3932C100.598 54.5554 101.685 54.9517 102.619 55.5821C103.554 56.2126 104.264 57.0397 104.752 58.0636L105.118 55.2595L107.006 55.5063ZM97.9295 66.829C98.9845 66.9669 99.9667 66.8695 100.876 66.5366C101.788 66.1852 102.529 65.6326 103.098 64.8787C103.686 64.1272 104.047 63.2332 104.183 62.1967C104.318 61.1602 104.198 60.2126 103.82 59.3537C103.464 58.4788 102.889 57.7636 102.096 57.208C101.324 56.6364 100.401 56.2804 99.3273 56.14C98.2722 56.002 97.29 56.0995 96.3805 56.4324C95.4895 56.7677 94.7501 57.311 94.1624 58.0625C93.5931 58.8164 93.2408 59.7116 93.1052 60.7481C92.9697 61.7846 93.08 62.7403 93.4362 63.6152C93.811 64.4926 94.3845 65.217 95.1569 65.7887C95.9503 66.3443 96.8744 66.691 97.9295 66.829ZM124.2 65.8027L111.984 64.2052C111.896 65.7374 112.318 67.0445 113.25 68.1265C114.184 69.1899 115.456 69.8269 117.066 70.0375C117.973 70.1561 118.827 70.1076 119.627 69.8922C120.429 69.6583 121.149 69.263 121.787 68.7063L122.73 70.1287C121.981 70.8213 121.089 71.3071 120.055 71.586C119.039 71.8674 117.948 71.9318 116.782 71.7793C115.283 71.5832 113.991 71.0943 112.908 70.3125C111.845 69.5146 111.063 68.5088 110.563 67.295C110.063 66.0813 109.906 64.7618 110.092 63.3366C110.279 61.9114 110.751 60.6742 111.51 59.625C112.286 58.5783 113.253 57.8104 114.409 57.3215C115.583 56.835 116.846 56.6801 118.197 56.8568C119.548 57.0335 120.719 57.5067 121.711 58.2764C122.702 59.0461 123.429 60.0354 123.892 61.2443C124.358 62.4347 124.496 63.7518 124.307 65.1955L124.2 65.8027ZM117.975 58.5504C116.569 58.3664 115.325 58.665 114.244 59.4461C113.184 60.2111 112.494 61.3069 112.176 62.7337L122.532 64.0879C122.591 62.6273 122.198 61.3898 121.351 60.3755C120.526 59.3451 119.401 58.7367 117.975 58.5504ZM130.788 61.5249C131.379 60.6044 132.161 59.9536 133.133 59.5725C134.124 59.1937 135.295 59.0927 136.646 59.2694L136.396 61.1851L135.927 61.0956C134.391 60.8947 133.126 61.2094 132.133 62.0396C131.14 62.8698 130.532 64.1363 130.309 65.8391L129.336 73.2798L127.365 73.022L129.274 58.4183L131.162 58.6652L130.788 61.5249Z" fill="black"/>
<g clip-path="url(#clip0)">
<path d="M18.8046 93.3182C19.2618 93.7936 20.2827 94.6385 21.9165 94.8554C22.7966 94.9723 23.8545 94.907 25.0979 94.5031C25.3433 94.4234 25.5201 94.2068 25.5504 93.9492C25.5804 93.6912 25.4584 93.4397 25.2382 93.3057C24.8597 93.0757 24.0585 92.4032 23.9972 91.7941C23.987 91.6929 23.9562 91.3883 24.3917 90.9698C24.4773 90.9055 24.5618 90.84 24.645 90.7738C29.8896 86.6038 30.8376 79.1434 26.8032 73.7896C22.7258 68.3773 14.9959 67.2799 9.57152 71.3439C6.94165 73.3143 5.23955 76.1894 4.77845 79.4394C4.31743 82.6888 5.15241 85.9233 7.12939 88.5471C9.87053 92.1858 14.3153 93.9911 18.8046 93.3182ZM10.3553 72.4059C15.2019 68.7745 22.1105 69.7547 25.755 74.5917C29.3522 79.3654 28.5073 86.0169 23.832 89.7343C23.7484 89.8009 23.6632 89.8662 23.5773 89.9308C23.5582 89.9449 23.54 89.9605 23.5226 89.9768C22.744 90.704 22.6394 91.4405 22.6887 91.9303C22.7524 92.5626 23.0939 93.1074 23.4691 93.5272C20.8542 93.8782 19.6485 92.2916 19.5939 92.2175C19.4866 92.0672 19.3237 91.9718 19.1471 91.9483C19.0809 91.9396 19.0127 91.9409 18.9451 91.9532C14.8193 92.6979 10.6941 91.0857 8.17761 87.745C6.41396 85.4047 5.66938 82.5209 6.08029 79.6244C6.49134 76.7269 8.00956 74.1635 10.3553 72.4059Z" fill="#FE5196"/>
<path d="M33.5442 94.4087C33.2967 94.4806 33.1132 94.6914 33.0749 94.9483C33.0369 95.205 33.151 95.4603 33.3671 95.6012C34.4623 96.3156 35.4661 96.6548 36.3463 96.7717C37.9798 96.9883 39.1861 96.4393 39.7516 96.1C43.9083 97.9209 48.6715 97.3388 52.2673 94.542C54.8606 92.5249 56.5109 89.6204 56.914 86.3634C57.3172 83.1057 56.4245 79.886 54.4001 77.2974C50.2254 71.9589 42.4771 71.001 37.1275 75.1603C31.8355 79.2758 30.8034 86.725 34.7779 92.1197C34.8408 92.2051 34.9052 92.2903 34.9711 92.3747C35.2814 92.8913 35.1735 93.1768 35.1376 93.2716C34.9057 93.8838 33.8829 94.3088 33.5442 94.4087ZM37.93 76.2082C42.7106 72.4904 49.6353 73.3474 53.3663 78.118C55.172 80.427 55.9685 83.2978 55.609 86.2021C55.2497 89.1054 53.7782 91.695 51.4648 93.4941C48.164 96.0616 43.7608 96.5421 39.9722 94.7456C39.7477 94.6391 39.4767 94.6733 39.2806 94.8283C39.2053 94.8878 37.6251 96.1034 35.1941 95.0843C35.666 94.777 36.1378 94.3401 36.3644 93.7464C36.5397 93.2865 36.631 92.5482 36.0692 91.6429C36.0567 91.6227 36.0431 91.6029 36.0284 91.5843C35.9623 91.4995 35.8972 91.4142 35.8341 91.3285C32.2909 86.5193 33.2115 79.8778 37.93 76.2082Z" fill="#FE5196"/>
<path d="M28.3043 63.2188C33.5488 59.0487 34.4968 51.5884 30.4625 46.2343C26.3849 40.8226 18.6551 39.7256 13.2307 43.7889C10.6009 45.7593 8.89877 48.6344 8.43763 51.8847C7.97661 55.1341 8.8116 58.3686 10.7886 60.9924C13.5298 64.6302 17.9746 66.4358 22.4638 65.7632C22.9211 66.2386 23.9419 67.0835 25.5757 67.3004C26.4559 67.4173 27.5138 67.352 28.7572 66.9481C29.0025 66.8684 29.1793 66.6518 29.2096 66.3941C29.2397 66.1361 29.1176 65.8847 28.8974 65.7507C28.5189 65.5207 27.7177 64.8482 27.6564 64.2391C27.6462 64.1379 27.6155 63.8333 28.0512 63.4149C28.1369 63.3499 28.2217 63.2848 28.3043 63.2188ZM26.3479 64.3753C26.4116 65.0075 26.7531 65.5527 27.1284 65.9722C24.515 66.3237 23.3078 64.7363 23.2531 64.6624C23.1458 64.5121 22.983 64.4168 22.8063 64.3933C22.7402 64.3845 22.672 64.3859 22.6043 64.3981C18.4806 65.1422 14.3539 63.5314 11.8368 60.1903C10.0731 57.85 9.32862 54.9659 9.73952 52.0694C10.1505 49.1722 11.6687 46.6088 14.0146 44.8509C18.861 41.2201 25.7697 42.1997 29.4142 47.0367C33.0114 51.8103 32.1666 58.4619 27.4901 62.1801C27.4065 62.247 27.3217 62.3121 27.2354 62.377C27.2167 62.3908 27.1988 62.406 27.1818 62.4221C26.4032 63.149 26.2986 63.8855 26.3479 64.3753Z" fill="#FE5196"/>
<path d="M58.0605 49.7428C53.8856 44.4054 46.1374 43.4465 40.7878 47.6058C35.4958 51.7212 34.4637 59.1704 38.4374 64.5641C38.5005 64.6501 38.5653 64.7351 38.6311 64.8201C38.9417 65.3368 38.8338 65.6223 38.7979 65.717C38.566 66.3293 37.5433 66.7543 37.2046 66.8542C36.957 66.926 36.7735 67.1369 36.7352 67.3938C36.6973 67.6504 36.8113 67.9057 37.0274 68.0466C38.1226 68.7611 39.1264 69.1006 40.0066 69.2172C41.64 69.4341 42.8464 68.885 43.4119 68.5454C47.5697 70.3684 52.3318 69.7842 55.9276 66.9874C58.5209 64.9707 60.1712 62.0662 60.5743 58.8091C60.9775 55.5511 60.0849 52.3314 58.0605 49.7428ZM55.125 65.9399C51.8233 68.5073 47.4197 68.986 43.6326 67.1911C43.4047 67.0832 43.1337 67.1163 42.9372 67.2769C42.9187 67.2917 41.322 68.5615 38.8551 67.5295C39.3266 67.2221 39.7982 66.7853 40.0247 66.1918C40.2001 65.7319 40.2913 64.9937 39.7295 64.0887C39.7173 64.0688 39.704 64.0494 39.6896 64.0312C39.6231 63.946 39.5583 63.8611 39.4944 63.774C35.9512 58.9647 36.8718 52.3232 41.5903 48.654C46.371 44.9356 53.2956 45.7926 57.0266 50.5634C58.8323 52.8727 59.6288 55.7436 59.2693 58.6476C58.91 61.5509 57.4384 64.1408 55.125 65.9399Z" fill="#FE5196"/>
</g>
<defs>
<clipPath id="clip0">
<rect width="65.7434" height="30.7487" fill="white" transform="translate(4.04785 35) rotate(7.56513)"/>
</clipPath>
</defs>
</svg>
